<?xml version="1.0" encoding="utf-8"?>
<!-- Generator: Adobe Illustrator 19.1.0, SVG Export Plug-In . SVG Version: 6.00 Build 0)  -->
<svg version="1.1" id="Layer_1" xmlns="http://www.w3.org/2000/svg" xmlns:xlink="http://www.w3.org/1999/xlink" x="0px" y="0px"
	 viewBox="0 0 242 60" style="enable-background:new 0 0 242 60;" xml:space="preserve">
<style type="text/css">
	.st0{opacity:0.5;fill:url(#SVGID_1_);stroke:#FFFFFF;stroke-miterlimit:10;}
	.st1{opacity:0.8;fill:#1A1A1A;}
	.st2{fill:#FFFFFF;}
</style>
<g>
	
		<linearGradient id="SVGID_1_" gradientUnits="userSpaceOnUse" x1="121" y1="-16370.0732" x2="121" y2="-16329.3252" gradientTransform="matrix(1 0 0 -1 0 -16320.4561)">
		<stop  offset="0" style="stop-color:#FFFFFF;stop-opacity:0.5"/>
		<stop  offset="1" style="stop-color:#FFFFFF;stop-opacity:0.7"/>
	</linearGradient>
	<path class="st0" d="M212.7,55.4H29.3C15.2,55.4,3.9,44,3.9,30v0c0-14,11.4-25.4,25.4-25.4h183.5c14,0,25.4,11.4,25.4,25.4v0
		C238.1,44,226.8,55.4,212.7,55.4z"/>
	<circle class="st1" cx="211.7" cy="30" r="21.1"/>
	<g>
		<path class="st2" d="M32.7,23.7c2.8,0,4.4,1.4,4.4,3.8c0,2.5-1.6,4-4.4,4h-3v3.6h-1.3V23.7H32.7z M29.7,30.3h2.9
			c2,0,3.2-0.9,3.2-2.7c0-1.7-1.2-2.6-3.2-2.6h-2.9V30.3z"/>
		<path class="st2" d="M44.4,31.5c-0.2,0-0.5,0-0.8,0h-3v3.6h-1.3V23.7h4.3c2.8,0,4.5,1.4,4.5,3.8c0,1.9-0.9,3.2-2.6,3.7l2.7,3.9
			h-1.5L44.4,31.5z M43.6,30.3c2.1,0,3.2-0.9,3.2-2.7c0-1.7-1.2-2.6-3.2-2.6h-3v5.3H43.6z"/>
		<path class="st2" d="M52.4,25v3.7h5.7V30h-5.7v3.9H59v1.2h-7.9V23.7h7.7V25H52.4z"/>
		<path class="st2" d="M61,30.6v-0.9h3.8v0.9H61z"/>
		<path class="st2" d="M78.4,29.4c0,3.2-2.6,5.8-6,5.8c-3.3,0-6-2.6-6-5.8c0-3.2,2.6-5.7,6-5.7C75.8,23.7,78.4,26.2,78.4,29.4z
			 M67.8,29.4c0,2.5,2.1,4.5,4.6,4.5c2.5,0,4.6-2,4.6-4.5s-2.1-4.5-4.6-4.5C69.9,24.9,67.8,26.9,67.8,29.4z"/>
		<path class="st2" d="M85.9,31.5c-0.2,0-0.5,0-0.8,0h-3v3.6h-1.3V23.7h4.3c2.8,0,4.5,1.4,4.5,3.8c0,1.9-0.9,3.2-2.6,3.7l2.7,3.9
			h-1.5L85.9,31.5z M85.1,30.3c2.1,0,3.2-0.9,3.2-2.7c0-1.7-1.2-2.6-3.2-2.6h-3v5.3H85.1z"/>
		<path class="st2" d="M97.1,23.7c3.3,0,5.9,2.5,5.9,5.7c0,3.2-2.6,5.7-5.9,5.7h-4.6V23.7H97.1z M93.8,33.9h3.3
			c2.5,0,4.5-1.9,4.5-4.4c0-2.6-2-4.5-4.6-4.5h-3.3V33.9z"/>
		<path class="st2" d="M106.7,25v3.7h5.7V30h-5.7v3.9h6.6v1.2h-7.9V23.7h7.7V25H106.7z"/>
		<path class="st2" d="M121,31.5c-0.2,0-0.5,0-0.8,0h-3v3.6H116V23.7h4.3c2.8,0,4.5,1.4,4.5,3.8c0,1.9-0.9,3.2-2.6,3.7l2.7,3.9h-1.5
			L121,31.5z M120.3,30.3c2.1,0,3.2-0.9,3.2-2.7c0-1.7-1.2-2.6-3.2-2.6h-3v5.3H120.3z"/>
		<path class="st2" d="M140.3,35.1l-6.8-9.1v9.1h-1.3V23.7h1.3l6.8,9.2v-9.2h1.3v11.4H140.3z"/>
		<path class="st2" d="M155.9,29.4c0,3.2-2.6,5.8-6,5.8c-3.3,0-6-2.6-6-5.8c0-3.2,2.6-5.7,6-5.7C153.3,23.7,155.9,26.2,155.9,29.4z
			 M145.3,29.4c0,2.5,2.1,4.5,4.7,4.5c2.5,0,4.6-2,4.6-4.5s-2.1-4.5-4.6-4.5C147.4,24.9,145.3,26.9,145.3,29.4z"/>
		<path class="st2" d="M167.8,35.1l-3.1-9.6l-3.1,9.6h-1.3l-3.8-11.4h1.4l3.1,9.9l3.1-9.9l1.3,0l3.1,9.9l3.1-9.9h1.3l-3.8,11.4
			H167.8z"/>
	</g>
	<g>
		<g>
			<path class="st2" d="M223.4,42.7l-4.8-4.8V42h-1.4v-6.5h6.5v1.4h-4.1l4.8,4.8L223.4,42.7z M211.6,42.5c-1.7,0-3.4-0.3-4.9-1
				c-1.5-0.7-2.9-1.6-4-2.7s-2-2.5-2.7-4c-0.7-1.5-1-3.2-1-4.9c0-1.7,0.3-3.4,1-4.9c0.7-1.5,1.6-2.9,2.7-4c1.1-1.1,2.5-2,4-2.7
				c1.5-0.7,3.2-1,4.9-1c1.7,0,3.4,0.3,4.9,1c1.5,0.7,2.9,1.6,4,2.7c1.1,1.1,2,2.5,2.7,4c0.7,1.5,1,3.2,1,4.9c0,0.4,0,0.8,0,1.1
				c0,0.4-0.1,0.8-0.1,1.1h-1.4c0.1-0.4,0.1-0.8,0.2-1.1c0-0.4,0.1-0.8,0.1-1.1c0-0.5,0-1.1-0.1-1.6c-0.1-0.5-0.2-1.1-0.4-1.6h-5.6
				c0.1,0.5,0.2,1.1,0.2,1.6c0,0.5,0.1,1.1,0.1,1.6c0,0.4,0,0.8,0,1.1c0,0.4-0.1,0.8-0.1,1.1h-1.4c0-0.4,0.1-0.8,0.1-1.1
				c0-0.4,0-0.8,0-1.1c0-0.5,0-1.1-0.1-1.6c0-0.5-0.1-1.1-0.2-1.6h-7.3c-0.1,0.5-0.2,1.1-0.2,1.6c0,0.6-0.1,1.1-0.1,1.7
				c0,0.6,0,1.1,0.1,1.6c0,0.5,0.1,1.1,0.2,1.6h5.6v1.4h-5.3c0.3,1.2,0.8,2.3,1.3,3.4c0.5,1.1,1.2,2.1,2,3.1c0.4,0,0.8,0,1.1-0.1
				c0.4,0,0.8-0.1,1.1-0.1v1.4c-0.4,0-0.8,0.1-1.1,0.1C212.3,42.5,212,42.5,211.6,42.5z M200.9,33.2h5.6c-0.1-0.5-0.2-1.1-0.2-1.6
				c0-0.6-0.1-1.1-0.1-1.7c0-0.6,0-1.1,0.1-1.6c0-0.5,0.1-1.1,0.2-1.6h-5.6c-0.2,0.5-0.3,1.1-0.4,1.6c-0.1,0.6-0.1,1.1-0.1,1.7
				c0,0.6,0,1.1,0.1,1.6S200.7,32.6,200.9,33.2z M201.5,25.2h5.4c0.3-1.2,0.7-2.3,1.1-3.4c0.5-1.1,1.1-2.1,1.9-3
				c-1.9,0.3-3.5,1-5,2.1C203.4,22.1,202.2,23.5,201.5,25.2z M209.8,40.9c-0.7-1-1.3-2-1.8-3c-0.5-1.1-0.9-2.2-1.2-3.3h-5.4
				c0.8,1.7,1.9,3.1,3.4,4.2C206.3,39.9,208,40.6,209.8,40.9z M208.3,25.2h6.7c-0.3-1.2-0.8-2.3-1.3-3.4s-1.2-2.1-2-3.1
				c-0.8,0.9-1.5,2-2,3.1C209,22.9,208.6,24,208.3,25.2z M216.4,25.2h5.4c-0.8-1.7-1.9-3.1-3.4-4.3c-1.5-1.1-3.1-1.8-5-2.1
				c0.7,1,1.3,2,1.8,3C215.6,23,216,24.1,216.4,25.2z"/>
		</g>
	</g>
</g>
</svg>
