<?xml version="1.0" encoding="utf-8"?>
<!-- Generator: Adobe Illustrator 19.1.0, SVG Export Plug-In . SVG Version: 6.00 Build 0)  -->
<svg version="1.1" id="Layer_1" xmlns="http://www.w3.org/2000/svg" xmlns:xlink="http://www.w3.org/1999/xlink" x="0px" y="0px"
	 viewBox="0 0 395 90" style="enable-background:new 0 0 395 90;" xml:space="preserve">
<style type="text/css">
	.st0{opacity:0.5;fill:url(#SVGID_1_);stroke:#FFFFFF;stroke-width:1.6802;stroke-miterlimit:10;}
	.st1{opacity:0.8;fill:#1A1A1A;}
	.st2{fill:#FFFFFF;}
</style>
<g>
	
		<linearGradient id="SVGID_1_" gradientUnits="userSpaceOnUse" x1="197.5" y1="-16368.9609" x2="197.5" y2="-16300.4961" gradientTransform="matrix(1 0 0 -1 0 -16291)">
		<stop  offset="0" style="stop-color:#FFFFFF;stop-opacity:0.5"/>
		<stop  offset="1" style="stop-color:#FFFFFF;stop-opacity:0.7"/>
	</linearGradient>
	<path class="st0" d="M350.9,87.6H44.1C20.5,87.6,1.5,68.5,1.5,45v0c0-23.5,19.1-42.6,42.6-42.6h306.9c23.5,0,42.6,19.1,42.6,42.6v0
		C393.5,68.5,374.5,87.6,350.9,87.6z"/>
	<circle class="st1" cx="349" cy="44.7" r="35.5"/>
	<g>
		<path class="st2" d="M67.1,36.1l-0.9,2.1c-1.7-1.2-3.8-1.6-5.3-1.6c-2.5,0-4.1,0.9-4.1,2.5c0,4.9,10.8,2.4,10.8,9.3
			c0,3.2-2.8,5.3-6.9,5.3c-2.8,0-5.5-1.2-7.3-2.9l1-2c1.8,1.7,4.2,2.7,6.4,2.7c2.8,0,4.5-1.1,4.5-3c0-5-10.8-2.4-10.8-9.2
			c0-3,2.7-5,6.6-5C63.3,34.4,65.6,35.1,67.1,36.1z"/>
		<path class="st2" d="M79.3,34.4c4.7,0,7.5,2.4,7.5,6.4c0,4.2-2.7,6.7-7.5,6.7h-5v6.1h-2.2V34.4H79.3z M74.3,45.5h4.9
			c3.5,0,5.5-1.5,5.5-4.5c0-2.9-2-4.4-5.5-4.4h-4.9V45.5z"/>
		<path class="st2" d="M108.7,44c0,5.4-4.4,9.7-10,9.7c-5.6,0-10.1-4.3-10.1-9.7c0-5.4,4.4-9.6,10.1-9.6
			C104.2,34.4,108.7,38.6,108.7,44z M90.8,44c0,4.2,3.6,7.6,7.8,7.6s7.8-3.4,7.8-7.6c0-4.2-3.5-7.6-7.8-7.6S90.8,39.8,90.8,44z"/>
		<path class="st2" d="M118.3,36.5v17.1h-2.2V36.5h-6.2v-2.1h14.7v2.1H118.3z"/>
		<path class="st2" d="M127.7,53.6V34.4h2.2v19.2H127.7z"/>
		<path class="st2" d="M137.9,36.5v6.7h9v2.1h-9v8.2h-2.2V34.4h12.2v2.1H137.9z"/>
		<path class="st2" d="M157.9,53.6h-2.2v-6.5l-7.4-12.7h2.3l6.2,10l6.1-10h2.2L157.9,47V53.6z"/>
	</g>
	<path class="st2" d="M367.7,45c0,10.3-8.4,18.9-19.1,18.6c-9.9-0.3-18.3-8.5-18-19.1c0.2-10,8.5-18.4,19.1-18.1
		C359.7,26.7,367.8,34.9,367.7,45z M344,36.8c-0.4,0-0.8,0-1.2,0.1c-1.5,0.1-3,0.3-4.5,0.6c-0.3,0.1-0.6,0.1-0.9,0.2
		c-0.8,0.4-1.1,1.3-0.9,2.2c0.3,0.8,1.1,1.3,2,1.1c2.1-0.4,4.2-0.6,6.3-0.7c1.1,0,2.2,0,3.3,0.1c2.5,0.2,5,0.7,7.4,1.5
		c1.7,0.6,3.4,1.3,5,2.1c0.8,0.4,1.9,0.1,2.3-0.8c0.4-0.9,0.1-1.9-0.7-2.4c-0.5-0.3-1.1-0.5-1.6-0.8c-2.8-1.3-5.7-2.2-8.7-2.8
		c-2.1-0.4-4.3-0.6-6.4-0.6C344.9,36.8,344.5,36.7,344,36.8z M345.1,43.2c-0.8,0-1.5,0-2.2,0.1c-1.4,0.1-2.8,0.3-4.2,0.6
		c-0.8,0.2-1.2,0.9-1.1,1.6c0.1,0.7,0.8,1.3,1.5,1.2c0.3,0,0.6-0.1,1-0.2c1.6-0.3,3.2-0.5,4.7-0.5c1,0,2.1,0,3.1,0.1
		c2,0.2,3.9,0.6,5.8,1.2c1.6,0.5,3.1,1.2,4.6,2c0.7,0.4,1.6,0.1,1.9-0.6c0.4-0.7,0.1-1.5-0.6-1.9c-1.7-0.9-3.6-1.7-5.5-2.3
		C351.2,43.6,348.2,43.2,345.1,43.2z M345.3,48.9c-1,0-1.7,0-2.5,0.1c-1.1,0.1-2.2,0.3-3.4,0.6c-0.6,0.1-1,0.7-0.9,1.3
		c0.1,0.6,0.7,1,1.4,0.8c1.6-0.4,3.3-0.6,5-0.6c0.8,0,1.5,0,2.3,0.1c1.9,0.2,3.7,0.6,5.5,1.2c1.2,0.4,2.4,1,3.5,1.6
		c0.2,0.1,0.4,0.1,0.5,0.1c0.5,0,0.9-0.4,1.1-0.9c0.1-0.5-0.1-1-0.6-1.2c-1.5-0.8-3-1.5-4.6-2C350.2,49.3,347.7,48.9,345.3,48.9z"/>
</g>
</svg>
