<?xml version="1.0" encoding="utf-8"?>
<!-- Generator: Adobe Illustrator 19.1.0, SVG Export Plug-In . SVG Version: 6.00 Build 0)  -->
<svg version="1.1" id="Layer_1" xmlns="http://www.w3.org/2000/svg" xmlns:xlink="http://www.w3.org/1999/xlink" x="0px" y="0px"
	 viewBox="0 0 395 90" style="enable-background:new 0 0 395 90;" xml:space="preserve">
<style type="text/css">
	.st0{opacity:0.5;fill:url(#SVGID_1_);stroke:#FFFFFF;stroke-width:1.6802;stroke-miterlimit:10;}
	.st1{opacity:0.8;fill:#1A1A1A;}
	.st2{fill:#FFFFFF;}
</style>
<g>
	
		<linearGradient id="SVGID_1_" gradientUnits="userSpaceOnUse" x1="197.5" y1="-16368.9609" x2="197.5" y2="-16300.4961" gradientTransform="matrix(1 0 0 -1 0 -16291)">
		<stop  offset="0" style="stop-color:#FFFFFF;stop-opacity:0.5"/>
		<stop  offset="1" style="stop-color:#FFFFFF;stop-opacity:0.7"/>
	</linearGradient>
	<path class="st0" d="M351.7,87.6H43.3C19.8,87.6,0.7,68.5,0.7,45v0c0-23.5,19.1-42.6,42.6-42.6h308.3c23.5,0,42.6,19.1,42.6,42.6v0
		C394.3,68.5,375.2,87.6,351.7,87.6z"/>
	<circle class="st1" cx="349.9" cy="44.4" r="35.5"/>
	<g>
		<path class="st2" d="M56.3,48.8l-2.1,4.8h-2.3l8.6-19.2h2.3l8.6,19.2h-2.4l-2.1-4.8H56.3z M61.5,36.9l-4.3,9.7h8.6L61.5,36.9z"/>
		<path class="st2" d="M91.7,53.6l0-15.8l-7,13.8h-1.3l-7-13.8v15.8h-2.1V34.4H77l7,13.8l7-13.8h2.7v19.2H91.7z"/>
		<path class="st2" d="M101.2,48.8l-2.1,4.8h-2.3l8.6-19.2h2.3l8.6,19.2h-2.4l-2.1-4.8H101.2z M106.4,36.9l-4.3,9.7h8.6L106.4,36.9z
			"/>
		<path class="st2" d="M120.4,51.5h12.8l0,2.1h-15.7v-1.8l12.7-15.3h-12.4v-2.1h15.2v1.8L120.4,51.5z"/>
		<path class="st2" d="M155.5,44c0,5.4-4.4,9.7-10,9.7c-5.6,0-10.1-4.3-10.1-9.7c0-5.4,4.4-9.6,10.1-9.6
			C151.1,34.4,155.5,38.6,155.5,44z M137.7,44c0,4.2,3.6,7.6,7.8,7.6s7.8-3.4,7.8-7.6c0-4.2-3.5-7.6-7.8-7.6S137.7,39.8,137.7,44z"
			/>
		<path class="st2" d="M173.2,53.6l-11.5-15.4v15.4h-2.2V34.4h2.3l11.5,15.4V34.4h2.2v19.2H173.2z"/>
		<path class="st2" d="M206.2,53.6l0-15.8l-7,13.8h-1.3l-7-13.8v15.8h-2.1V34.4h2.7l7,13.8l7-13.8h2.7v19.2H206.2z"/>
		<path class="st2" d="M229.7,45.7c0,5-3,8-8,8c-5,0-8.1-3-8.1-8V34.4h2.2v11.3c0,3.7,2.2,5.9,5.9,5.9s5.8-2.2,5.8-5.9V34.4h2.2
			V45.7z"/>
		<path class="st2" d="M246.8,36.1l-0.9,2.1c-1.7-1.2-3.8-1.6-5.3-1.6c-2.5,0-4.1,0.9-4.1,2.5c0,4.9,10.8,2.4,10.8,9.3
			c0,3.2-2.8,5.3-6.9,5.3c-2.8,0-5.5-1.2-7.3-2.9l1-2c1.8,1.7,4.2,2.7,6.4,2.7c2.8,0,4.5-1.1,4.5-3c0-5-10.8-2.4-10.8-9.2
			c0-3,2.7-5,6.6-5C243,34.4,245.2,35.1,246.8,36.1z"/>
		<path class="st2" d="M251.8,53.6V34.4h2.2v19.2H251.8z"/>
		<path class="st2" d="M275,37.2l-1.3,1.7c-1.5-1.5-3.6-2.4-5.7-2.4c-4.3,0-7.8,3.3-7.8,7.6c0,4.2,3.5,7.6,7.8,7.6
			c2.1,0,4.2-0.9,5.7-2.3l1.3,1.5c-1.9,1.8-4.5,3-7.1,3c-5.5,0-9.9-4.3-9.9-9.7c0-5.4,4.4-9.6,10-9.6
			C270.6,34.4,273.1,35.5,275,37.2z"/>
	</g>
	<g>
		<g>
			<path class="st2" d="M336,45.4c1,0,1.7,0.5,2,1.5h0.1c0.6-1,1.3-1.5,2.2-1.5c1.5,0,2.3,1.2,2.3,3.2v4.8c0,0.1-0.1,0.3-0.3,0.3
				h-1.6c-0.1,0-0.3-0.1-0.3-0.3v-4.6c0-0.9-0.4-1.5-1.1-1.5c-0.8,0-1.2,0.6-1.2,1.7v4.4c0,0.1-0.1,0.3-0.3,0.3h-1.6
				c-0.1,0-0.3-0.1-0.3-0.3v-4.6c0-0.9-0.4-1.5-1.1-1.5c-0.8,0-1.2,0.6-1.2,1.7v4.4c0,0.1-0.1,0.3-0.3,0.3h-1.6
				c-0.1,0-0.3-0.1-0.3-0.3v-7.6c0-0.1,0.1-0.3,0.3-0.3h1.3c0.1,0,0.2,0.1,0.3,0.3l0.2,0.9h0.1C334.4,45.9,335.1,45.4,336,45.4z"/>
			<path class="st2" d="M350.1,45.8v7.6c0,0.1-0.1,0.3-0.3,0.3h-1.3c-0.2,0-0.2-0.1-0.3-0.3l-0.2-0.9H348c-0.3,0.9-1,1.4-1.9,1.4
				c-1.5,0-2.3-1.2-2.3-3.1v-4.8c0-0.1,0.1-0.3,0.3-0.3h1.6c0.1,0,0.3,0.1,0.3,0.3v4.7c0,0.9,0.4,1.4,1.1,1.4c0.8,0,1.2-0.6,1.2-1.7
				v-4.4c0-0.1,0.1-0.3,0.3-0.3h1.6C350,45.6,350.1,45.7,350.1,45.8z"/>
			<path class="st2" d="M355.1,47.9c-0.1-0.5-0.5-0.8-1.1-0.8c-0.6,0-0.9,0.3-0.9,0.7c0,0.4,0.3,0.7,0.9,0.8l1.1,0.3
				c1.4,0.3,2,1.2,2,2.4c0,1.5-1.3,2.6-3,2.6c-1.6,0-2.9-0.8-3.1-2.6c0-0.2,0.1-0.3,0.2-0.3l1.3-0.3c0.2,0,0.3,0,0.3,0.3
				c0.1,0.8,0.6,1.3,1.3,1.3c0.6,0,1-0.3,1-0.8c0-0.5-0.3-0.8-0.9-0.9l-0.8-0.2c-1.7-0.4-2.3-1.2-2.3-2.4c0-1.6,1.3-2.5,2.9-2.5
				c1.7,0,2.6,0.9,2.9,2.1c0,0.2,0,0.3-0.2,0.3l-1.4,0.2C355.3,48.1,355.2,48,355.1,47.9z"/>
			<path class="st2" d="M359.2,42.5c0.7,0,1.2,0.4,1.2,1.2c0,0.7-0.5,1.2-1.2,1.2s-1.2-0.5-1.2-1.2C358,43,358.5,42.5,359.2,42.5z
				 M358.1,53.4v-7.6c0-0.1,0.1-0.3,0.3-0.3h1.6c0.1,0,0.3,0.1,0.3,0.3v7.6c0,0.1-0.1,0.3-0.3,0.3h-1.6
				C358.2,53.6,358.1,53.5,358.1,53.4z"/>
			<path class="st2" d="M367.8,51.1c-0.3,1.7-1.6,2.7-3.1,2.7c-2,0-3.5-1.8-3.5-4.2c0-2.4,1.5-4.2,3.5-4.2c1.5,0,2.8,1,3.1,2.7
				c0,0.2,0,0.3-0.2,0.3l-1.4,0.3c-0.2,0-0.3,0-0.3-0.2c-0.2-1-0.6-1.4-1.2-1.4c-0.9,0-1.4,0.9-1.4,2.6c0,1.7,0.5,2.6,1.4,2.6
				c0.6,0,1-0.4,1.2-1.4c0-0.2,0.1-0.2,0.3-0.2l1.4,0.3C367.7,50.8,367.8,50.9,367.8,51.1z"/>
			<path class="st2" d="M358.2,57.7c0.1,0.2,0.4,0.2,0.8,0.1c1.2-0.3,2.6-0.3,2.9,0.1c0.2,0.4-0.3,1.7-0.9,2.7
				c-0.2,0.4-0.3,0.6-0.1,0.8c0,0.1,0.1,0.1,0.2,0.1c0.2,0,0.5-0.2,0.8-0.5c0.6-0.5,1.1-1.2,1.3-2c0.3-0.7,0.4-1.8,0.1-2.2
				c-0.3-0.4-1.3-0.6-2.1-0.6c-0.8,0-1.6,0.2-2.3,0.6C358.5,57.1,358,57.4,358.2,57.7L358.2,57.7z"/>
			<path class="st2" d="M336.7,57.3c0.1,0.2,0.2,0.5,0.5,0.7c3,3.7,7.8,5.3,12.4,5.3c4,0,7.9-1.2,10.4-3.4c0.4-0.4,0.6-0.7,0.6-0.9
				c0-0.1,0-0.2-0.1-0.3c-0.2-0.2-0.5-0.1-0.9,0.1c-2.3,1.2-5.9,2-9.6,2c-4.3,0-8.8-1.1-12.3-3.8c-0.3-0.3-0.7-0.5-0.9-0.3
				C336.7,56.9,336.6,57,336.7,57.3L336.7,57.3z"/>
			<path class="st2" d="M328.7,41.2c-1.4,0-2.3-1-2.3-2.4c0-1.7,1.4-2.9,3.5-2.9c0.3,0,0.6,0,0.8,0.1v-0.2c0-1-0.4-1.5-1.1-1.5
				c-0.6,0-1,0.3-1.1,0.9c0,0.2-0.1,0.3-0.3,0.2l-1.3-0.2c-0.2,0-0.3-0.2-0.2-0.3c0.4-1.4,1.5-2.1,3.1-2.1c2,0,3,1.1,3,3.1v4.9
				c0,0.1-0.1,0.3-0.3,0.3h-1.3c-0.2,0-0.2-0.1-0.3-0.3l-0.2-0.9h-0.1C330.4,40.7,329.7,41.2,328.7,41.2z M329.5,39.7
				c0.8,0,1.2-0.7,1.2-2.1v-0.5c-0.2,0-0.3,0-0.5,0c-1.1,0-1.7,0.6-1.7,1.5C328.5,39.2,328.9,39.7,329.5,39.7z"/>
			<path class="st2" d="M338,32.8c1,0,1.7,0.5,2,1.5h0.1c0.6-1,1.3-1.5,2.2-1.5c1.5,0,2.3,1.2,2.3,3.2v4.8c0,0.1-0.1,0.3-0.3,0.3
				h-1.6c-0.1,0-0.3-0.1-0.3-0.3v-4.6c0-0.9-0.4-1.5-1.1-1.5c-0.8,0-1.2,0.6-1.2,1.7v4.4c0,0.1-0.1,0.3-0.3,0.3h-1.6
				c-0.1,0-0.3-0.1-0.3-0.3v-4.6c0-0.9-0.4-1.5-1.1-1.5c-0.8,0-1.2,0.6-1.2,1.7v4.4c0,0.1-0.1,0.3-0.3,0.3h-1.6
				c-0.1,0-0.3-0.1-0.3-0.3v-7.6c0-0.1,0.1-0.3,0.3-0.3h1.3c0.1,0,0.2,0.1,0.3,0.3l0.2,0.9h0.1C336.4,33.3,337.1,32.8,338,32.8z"/>
			<path class="st2" d="M347.8,41.2c-1.4,0-2.3-1-2.3-2.4c0-1.7,1.4-2.9,3.5-2.9c0.3,0,0.6,0,0.8,0.1v-0.2c0-1-0.4-1.5-1.1-1.5
				c-0.6,0-1,0.3-1.1,0.9c0,0.2-0.1,0.3-0.3,0.2l-1.3-0.2c-0.2,0-0.3-0.2-0.2-0.3c0.4-1.4,1.5-2.1,3.1-2.1c2,0,3,1.1,3,3.1v4.9
				c0,0.1-0.1,0.3-0.3,0.3h-1.3c-0.2,0-0.2-0.1-0.3-0.3l-0.2-0.9h-0.1C349.5,40.7,348.8,41.2,347.8,41.2z M348.6,39.7
				c0.8,0,1.2-0.7,1.2-2.1v-0.5c-0.2,0-0.3,0-0.5,0c-1.1,0-1.7,0.6-1.7,1.5C347.6,39.2,348,39.7,348.6,39.7z"/>
			<path class="st2" d="M352.7,39.6c0-0.1,0-0.3,0.1-0.4l3.2-4.6h-2.9c-0.1,0-0.3-0.1-0.3-0.3v-1.1c0-0.1,0.1-0.3,0.3-0.3h5.1
				c0.1,0,0.3,0.1,0.3,0.3v1.2c0,0.1,0,0.2-0.1,0.4l-3.2,4.6h3.2c0.2,0,0.3,0.1,0.3,0.3v1.1c0,0.1-0.1,0.3-0.3,0.3H353
				c-0.1,0-0.3-0.1-0.3-0.3V39.6z"/>
			<path class="st2" d="M359,37c0-2.4,1.5-4.2,3.5-4.2c2,0,3.5,1.8,3.5,4.2c0,2.4-1.5,4.2-3.5,4.2C360.5,41.2,359,39.4,359,37z
				 M362.5,39.5c0.9,0,1.4-0.9,1.4-2.6c0-1.6-0.5-2.6-1.4-2.6c-0.9,0-1.4,0.9-1.4,2.6C361.1,38.6,361.6,39.5,362.5,39.5z"/>
			<path class="st2" d="M371,32.8c1.5,0,2.4,1.2,2.4,3.2v4.8c0,0.1-0.1,0.3-0.3,0.3h-1.6c-0.1,0-0.3-0.1-0.3-0.3v-4.6
				c0-0.9-0.4-1.5-1.1-1.5c-0.8,0-1.2,0.6-1.2,1.7v4.4c0,0.1-0.1,0.3-0.3,0.3h-1.6c-0.1,0-0.3-0.1-0.3-0.3v-7.6
				c0-0.1,0.1-0.3,0.3-0.3h1.3c0.1,0,0.2,0.1,0.3,0.3l0.2,0.9h0.1C369.4,33.3,370.1,32.8,371,32.8z"/>
		</g>
	</g>
</g>
</svg>
