<?xml version="1.0" encoding="utf-8"?>
<!-- Generator: Adobe Illustrator 19.1.0, SVG Export Plug-In . SVG Version: 6.00 Build 0)  -->
<svg version="1.1" id="Layer_1" xmlns="http://www.w3.org/2000/svg" xmlns:xlink="http://www.w3.org/1999/xlink" x="0px" y="0px"
	 viewBox="0 0 237 54" style="enable-background:new 0 0 237 54;" xml:space="preserve">
<style type="text/css">
	.st0{opacity:0.5;fill:url(#SVGID_1_);stroke:#FFFFFF;stroke-miterlimit:10;}
	.st1{opacity:0.8;fill:#1A1A1A;}
	.st2{fill:#FFFFFF;}
</style>
<g>
	
		<linearGradient id="SVGID_1_" gradientUnits="userSpaceOnUse" x1="118.5" y1="-16374.2842" x2="118.5" y2="-16333.5361" gradientTransform="matrix(1 0 0 -1 0 -16327.667)">
		<stop  offset="0" style="stop-color:#FFFFFF;stop-opacity:0.5"/>
		<stop  offset="1" style="stop-color:#FFFFFF;stop-opacity:0.7"/>
	</linearGradient>
	<path class="st0" d="M210.2,52.4H26.8C12.7,52.4,1.4,41,1.4,27v0c0-14,11.4-25.4,25.4-25.4h183.5c14,0,25.4,11.4,25.4,25.4v0
		C235.6,41,224.3,52.4,210.2,52.4z"/>
	<circle class="st1" cx="209.4" cy="27" r="21.1"/>
	<g>
		<path class="st2" d="M34.5,29.2l-1.3,2.9h-1.4l5.1-11.4h1.4l5.1,11.4H42l-1.3-2.9H34.5z M37.6,22.2L35,28h5.1L37.6,22.2z"/>
		<path class="st2" d="M55.5,32.1l0-9.4l-4.2,8.2h-0.8l-4.1-8.2v9.4h-1.2V20.7h1.6l4.2,8.2l4.2-8.2h1.6v11.4H55.5z"/>
		<path class="st2" d="M61.2,29.2l-1.3,2.9h-1.4l5.1-11.4H65l5.1,11.4h-1.4l-1.3-2.9H61.2z M64.3,22.2L61.7,28h5.1L64.3,22.2z"/>
		<path class="st2" d="M72.6,30.9h7.6l0,1.2h-9.3v-1l7.6-9.1h-7.4v-1.3h9.1v1L72.6,30.9z"/>
		<path class="st2" d="M93.5,26.4c0,3.2-2.6,5.8-6,5.8c-3.3,0-6-2.6-6-5.8c0-3.2,2.6-5.7,6-5.7C90.9,20.7,93.5,23.2,93.5,26.4z
			 M82.9,26.4c0,2.5,2.1,4.5,4.7,4.5s4.6-2,4.6-4.5c0-2.5-2.1-4.5-4.6-4.5S82.9,23.9,82.9,26.4z"/>
		<path class="st2" d="M104.1,32.1L97.2,23v9.2h-1.3V20.7h1.4l6.8,9.2v-9.2h1.3v11.4H104.1z"/>
		<path class="st2" d="M123.7,32.1l0-9.4l-4.2,8.2h-0.8l-4.1-8.2v9.4h-1.2V20.7h1.6l4.2,8.2l4.2-8.2h1.6v11.4H123.7z"/>
		<path class="st2" d="M137.7,27.4c0,3-1.8,4.8-4.8,4.8c-3,0-4.8-1.8-4.8-4.8v-6.7h1.3v6.7c0,2.2,1.3,3.5,3.5,3.5
			c2.2,0,3.5-1.3,3.5-3.5v-6.7h1.3V27.4z"/>
		<path class="st2" d="M147.9,21.7l-0.6,1.2c-1-0.7-2.2-1-3.1-1c-1.5,0-2.4,0.6-2.4,1.5c0,2.9,6.4,1.4,6.4,5.5
			c0,1.9-1.7,3.1-4.1,3.1c-1.7,0-3.3-0.7-4.4-1.7l0.6-1.2c1.1,1,2.5,1.6,3.8,1.6c1.6,0,2.7-0.7,2.7-1.8c0-3-6.4-1.4-6.4-5.5
			c0-1.8,1.6-2.9,3.9-2.9C145.6,20.7,146.9,21.1,147.9,21.7z"/>
		<path class="st2" d="M150.8,32.1V20.7h1.3v11.4H150.8z"/>
		<path class="st2" d="M164.6,22.3l-0.8,1c-0.9-0.9-2.1-1.4-3.4-1.4c-2.6,0-4.6,2-4.6,4.5c0,2.5,2.1,4.5,4.6,4.5
			c1.3,0,2.5-0.5,3.4-1.4l0.8,0.9c-1.1,1.1-2.7,1.8-4.2,1.8c-3.3,0-5.9-2.6-5.9-5.8c0-3.2,2.6-5.7,5.9-5.7
			C162,20.7,163.5,21.3,164.6,22.3z"/>
	</g>
	<g>
		<g>
			<path class="st2" d="M200.9,27.2c0.6,0,1,0.3,1.2,0.9h0c0.3-0.6,0.8-0.9,1.3-0.9c0.9,0,1.4,0.7,1.4,1.9V32c0,0.1-0.1,0.1-0.1,0.1
				h-0.9c-0.1,0-0.1-0.1-0.1-0.1v-2.8c0-0.6-0.2-0.9-0.6-0.9c-0.4,0-0.7,0.4-0.7,1V32c0,0.1-0.1,0.1-0.1,0.1h-0.9
				c-0.1,0-0.1-0.1-0.1-0.1v-2.8c0-0.6-0.2-0.9-0.6-0.9c-0.4,0-0.7,0.4-0.7,1V32c0,0.1-0.1,0.1-0.1,0.1h-0.9c-0.1,0-0.1-0.1-0.1-0.1
				v-4.5c0-0.1,0.1-0.1,0.1-0.1h0.8c0.1,0,0.1,0.1,0.2,0.1l0.1,0.6h0C200,27.5,200.4,27.2,200.9,27.2z"/>
			<path class="st2" d="M209.3,27.5V32c0,0.1-0.1,0.1-0.1,0.1h-0.8c-0.1,0-0.1-0.1-0.2-0.1l-0.1-0.6h0c-0.2,0.5-0.6,0.8-1.2,0.8
				c-0.9,0-1.4-0.7-1.4-1.9v-2.9c0-0.1,0.1-0.1,0.1-0.1h0.9c0.1,0,0.1,0.1,0.1,0.1v2.8c0,0.5,0.2,0.8,0.6,0.8c0.5,0,0.7-0.3,0.7-1
				v-2.6c0-0.1,0.1-0.1,0.1-0.1h0.9C209.2,27.3,209.3,27.4,209.3,27.5z"/>
			<path class="st2" d="M212.3,28.7c-0.1-0.3-0.3-0.5-0.6-0.5s-0.5,0.2-0.5,0.4c0,0.2,0.2,0.4,0.5,0.5l0.7,0.2
				c0.8,0.2,1.2,0.7,1.2,1.4c0,0.9-0.8,1.6-1.8,1.6c-0.9,0-1.7-0.5-1.9-1.5c0-0.1,0-0.2,0.1-0.2l0.8-0.1c0.1,0,0.2,0,0.2,0.1
				c0.1,0.5,0.4,0.7,0.8,0.7c0.4,0,0.6-0.2,0.6-0.5c0-0.3-0.2-0.5-0.6-0.6l-0.5-0.1c-1-0.2-1.3-0.7-1.3-1.4c0-0.9,0.8-1.5,1.7-1.5
				c1,0,1.6,0.5,1.7,1.3c0,0.1,0,0.2-0.1,0.2l-0.8,0.1C212.4,28.8,212.3,28.8,212.3,28.7z"/>
			<path class="st2" d="M214.7,25.5c0.4,0,0.7,0.3,0.7,0.7c0,0.4-0.3,0.7-0.7,0.7c-0.4,0-0.7-0.3-0.7-0.7
				C214,25.8,214.3,25.5,214.7,25.5z M214.1,32v-4.5c0-0.1,0.1-0.1,0.1-0.1h0.9c0.1,0,0.1,0.1,0.1,0.1V32c0,0.1-0.1,0.1-0.1,0.1
				h-0.9C214.2,32.1,214.1,32.1,214.1,32z"/>
			<path class="st2" d="M219.8,30.6c-0.2,1-1,1.6-1.9,1.6c-1.2,0-2.1-1.1-2.1-2.5c0-1.4,0.9-2.5,2.1-2.5c0.9,0,1.6,0.6,1.9,1.6
				c0,0.1,0,0.2-0.1,0.2l-0.8,0.1c-0.1,0-0.1,0-0.2-0.1c-0.1-0.6-0.4-0.8-0.7-0.8c-0.5,0-0.8,0.5-0.8,1.5c0,1,0.3,1.5,0.8,1.5
				c0.3,0,0.6-0.3,0.7-0.8c0-0.1,0.1-0.1,0.2-0.1l0.8,0.1C219.8,30.5,219.9,30.5,219.8,30.6z"/>
			<path class="st2" d="M214.1,34.6c0.1,0.1,0.2,0.1,0.5,0.1c0.7-0.1,1.6-0.2,1.7,0c0.1,0.2-0.2,1-0.5,1.6c-0.1,0.2-0.2,0.4-0.1,0.5
				c0,0,0.1,0,0.1,0.1c0.1,0,0.3-0.1,0.5-0.3c0.4-0.3,0.6-0.7,0.8-1.2c0.2-0.4,0.2-1.1,0.1-1.3c-0.2-0.2-0.8-0.4-1.2-0.4
				c-0.5,0-1,0.1-1.4,0.3C214.3,34.2,214.1,34.4,214.1,34.6L214.1,34.6z"/>
			<path class="st2" d="M201.3,34.3c0,0.1,0.1,0.3,0.3,0.4c1.8,2.2,4.6,3.1,7.4,3.1c2.4,0,4.7-0.7,6.2-2c0.3-0.2,0.4-0.4,0.4-0.5
				c0-0.1,0-0.1-0.1-0.1c-0.1-0.1-0.3,0-0.5,0.1c-1.4,0.7-3.5,1.2-5.7,1.2c-2.5,0-5.2-0.6-7.3-2.3c-0.2-0.2-0.4-0.3-0.6-0.2
				C201.3,34.1,201.3,34.2,201.3,34.3L201.3,34.3z"/>
			<path class="st2" d="M196.6,24.7c-0.8,0-1.4-0.6-1.4-1.4c0-1,0.8-1.7,2.1-1.7c0.2,0,0.3,0,0.5,0v-0.1c0-0.6-0.2-0.9-0.7-0.9
				c-0.3,0-0.6,0.2-0.7,0.6c0,0.1-0.1,0.2-0.2,0.1l-0.8-0.1c-0.1,0-0.1-0.1-0.1-0.2c0.2-0.8,0.9-1.3,1.9-1.3c1.2,0,1.8,0.6,1.8,1.9
				v2.9c0,0.1-0.1,0.1-0.1,0.1h-0.8c-0.1,0-0.1-0.1-0.2-0.1l-0.1-0.5h0C197.6,24.4,197.2,24.7,196.6,24.7z M197.1,23.8
				c0.5,0,0.7-0.4,0.7-1.2v-0.3c-0.1,0-0.2,0-0.3,0c-0.6,0-1,0.4-1,0.9C196.5,23.6,196.7,23.8,197.1,23.8z"/>
			<path class="st2" d="M202.1,19.7c0.6,0,1,0.3,1.2,0.9h0c0.3-0.6,0.8-0.9,1.3-0.9c0.9,0,1.4,0.7,1.4,1.9v2.9
				c0,0.1-0.1,0.1-0.1,0.1H205c-0.1,0-0.1-0.1-0.1-0.1v-2.8c0-0.6-0.2-0.9-0.6-0.9c-0.4,0-0.7,0.4-0.7,1v2.6c0,0.1-0.1,0.1-0.1,0.1
				h-0.9c-0.1,0-0.1-0.1-0.1-0.1v-2.8c0-0.6-0.2-0.9-0.6-0.9c-0.4,0-0.7,0.4-0.7,1v2.6c0,0.1-0.1,0.1-0.1,0.1h-0.9
				c-0.1,0-0.1-0.1-0.1-0.1V20c0-0.1,0.1-0.1,0.1-0.1h0.8c0.1,0,0.1,0.1,0.2,0.1l0.1,0.6h0C201.2,20,201.6,19.7,202.1,19.7z"/>
			<path class="st2" d="M208,24.7c-0.8,0-1.4-0.6-1.4-1.4c0-1,0.8-1.7,2.1-1.7c0.2,0,0.3,0,0.5,0v-0.1c0-0.6-0.2-0.9-0.7-0.9
				c-0.3,0-0.6,0.2-0.7,0.6c0,0.1-0.1,0.2-0.2,0.1l-0.8-0.1c-0.1,0-0.1-0.1-0.1-0.2c0.2-0.8,0.9-1.3,1.9-1.3c1.2,0,1.8,0.6,1.8,1.9
				v2.9c0,0.1-0.1,0.1-0.1,0.1h-0.8c-0.1,0-0.1-0.1-0.2-0.1l-0.1-0.5h0C208.9,24.4,208.5,24.7,208,24.7z M208.4,23.8
				c0.5,0,0.7-0.4,0.7-1.2v-0.3c-0.1,0-0.2,0-0.3,0c-0.6,0-1,0.4-1,0.9C207.8,23.6,208.1,23.8,208.4,23.8z"/>
			<path class="st2" d="M210.9,23.8c0-0.1,0-0.1,0.1-0.2l1.9-2.8h-1.8c-0.1,0-0.1-0.1-0.1-0.1V20c0-0.1,0.1-0.1,0.1-0.1h3
				c0.1,0,0.1,0.1,0.1,0.1v0.7c0,0.1,0,0.1-0.1,0.2l-1.9,2.8h1.9c0.1,0,0.1,0.1,0.1,0.1v0.7c0,0.1-0.1,0.1-0.1,0.1h-3.2
				c-0.1,0-0.1-0.1-0.1-0.1V23.8z"/>
			<path class="st2" d="M214.6,22.2c0-1.4,0.9-2.5,2.1-2.5c1.2,0,2.1,1.1,2.1,2.5c0,1.4-0.9,2.5-2.1,2.5
				C215.5,24.7,214.6,23.7,214.6,22.2z M216.7,23.7c0.5,0,0.8-0.5,0.8-1.5c0-1-0.3-1.5-0.8-1.5c-0.5,0-0.8,0.5-0.8,1.5
				C215.9,23.2,216.2,23.7,216.7,23.7z"/>
			<path class="st2" d="M221.8,19.7c0.9,0,1.4,0.7,1.4,1.9v2.9c0,0.1-0.1,0.1-0.1,0.1h-0.9c-0.1,0-0.1-0.1-0.1-0.1v-2.8
				c0-0.6-0.2-0.9-0.7-0.9c-0.5,0-0.7,0.4-0.7,1v2.6c0,0.1-0.1,0.1-0.1,0.1h-0.9c-0.1,0-0.1-0.1-0.1-0.1V20c0-0.1,0.1-0.1,0.1-0.1
				h0.8c0.1,0,0.1,0.1,0.2,0.1l0.1,0.6h0C220.8,20,221.2,19.7,221.8,19.7z"/>
		</g>
	</g>
</g>
</svg>
