<?xml version="1.0" encoding="utf-8"?>
<!-- Generator: Adobe Illustrator 19.1.0, SVG Export Plug-In . SVG Version: 6.00 Build 0)  -->
<svg version="1.1" id="Layer_1" xmlns="http://www.w3.org/2000/svg" xmlns:xlink="http://www.w3.org/1999/xlink" x="0px" y="0px"
	 viewBox="0 0 58 58" style="enable-background:new 0 0 58 58;" xml:space="preserve">
<style type="text/css">
	.st0{fill:#F9F4EC;}
</style>
<g>
	<g>
		<path class="st0" d="M31.9,8.9c4,0.1,10.9-0.1,17.7,0.9c4.4,0.6,6.7,2.9,7.1,7.2c0.9,8.1,1.2,16.2-0.1,24.2
			c-0.6,4.1-2.8,6.3-7,6.8c-8.8,1.1-17.6,1.1-26.4,0.9c-4.9-0.1-9.8-0.1-14.7-0.8c-4.8-0.7-6.8-2.9-7.4-7.7
			c-1-7.4-0.8-14.9-0.1-22.3C1.6,12.4,4.2,10,10,9.5C16.3,9.1,22.7,8.9,31.9,8.9z M23.3,37.4c5-2.9,9.6-5.6,14.5-8.5
			c-5-2.9-9.6-5.6-14.5-8.4C23.3,26.3,23.3,31.7,23.3,37.4z"/>
	</g>
</g>
</svg>
