<?xml version="1.0" encoding="utf-8"?>
<!-- Generator: Adobe Illustrator 19.1.0, SVG Export Plug-In . SVG Version: 6.00 Build 0)  -->
<svg version="1.1" id="Layer_1" xmlns="http://www.w3.org/2000/svg" xmlns:xlink="http://www.w3.org/1999/xlink" x="0px" y="0px"
	 viewBox="0 0 395 90" style="enable-background:new 0 0 395 90;" xml:space="preserve">
<style type="text/css">
	.st0{opacity:0.5;fill:url(#SVGID_1_);stroke:#FFFFFF;stroke-width:1.6802;stroke-miterlimit:10;}
	.st1{opacity:0.8;fill:#1A1A1A;}
	.st2{fill:#FFFFFF;}
</style>
<g>
	
		<linearGradient id="SVGID_1_" gradientUnits="userSpaceOnUse" x1="197.5" y1="-16368.9609" x2="197.5" y2="-16300.4961" gradientTransform="matrix(1 0 0 -1 0 -16291)">
		<stop  offset="0" style="stop-color:#FFFFFF;stop-opacity:0.5"/>
		<stop  offset="1" style="stop-color:#FFFFFF;stop-opacity:0.7"/>
	</linearGradient>
	<path class="st0" d="M351.6,87.6H43.4C19.9,87.6,0.8,68.5,0.8,45v0c0-23.5,19.1-42.6,42.6-42.6h308.1c23.5,0,42.6,19.1,42.6,42.6v0
		C394.2,68.5,375.1,87.6,351.6,87.6z"/>
	<circle class="st1" cx="349.8" cy="44.4" r="35.5"/>
	<g>
		<path class="st2" d="M61.6,53.6h-2.2v-6.5L52,34.4h2.3l6.2,10l6.1-10h2.2L61.6,47V53.6z"/>
		<path class="st2" d="M89.1,44c0,5.4-4.4,9.7-10,9.7C73.4,53.7,69,49.4,69,44c0-5.4,4.4-9.6,10.1-9.6C84.6,34.4,89.1,38.6,89.1,44z
			 M71.2,44c0,4.2,3.6,7.6,7.8,7.6s7.8-3.4,7.8-7.6c0-4.2-3.5-7.6-7.8-7.6S71.2,39.8,71.2,44z"/>
		<path class="st2" d="M108.7,45.7c0,5-3,8-8,8c-5,0-8.1-3-8.1-8V34.4h2.2v11.3c0,3.7,2.2,5.9,5.9,5.9s5.8-2.2,5.8-5.9V34.4h2.2
			V45.7z"/>
		<path class="st2" d="M119.9,36.5v17.1h-2.2V36.5h-6.2v-2.1h14.7v2.1H119.9z"/>
		<path class="st2" d="M145,45.7c0,5-3,8-8,8c-5,0-8.1-3-8.1-8V34.4h2.2v11.3c0,3.7,2.2,5.9,5.9,5.9s5.8-2.2,5.8-5.9V34.4h2.2V45.7z
			"/>
		<path class="st2" d="M158.5,34.4c3.9,0,6.2,1.8,6.2,4.8c0,2.2-1.3,3.9-3.5,4.3c2.8,0.4,4.4,2.2,4.4,4.8c0,3.3-2.6,5.2-6.9,5.2
			h-8.2V34.4H158.5z M152.6,42.7h5.8c2.6,0,4.1-1.1,4.1-3.1c0-1.9-1.5-3-4.1-3h-5.8V42.7z M152.6,51.5h5.8c3.1,0,4.9-1.2,4.9-3.4
			c0-2.1-1.8-3.3-4.9-3.3h-5.8V51.5z"/>
		<path class="st2" d="M172.2,36.5v6.3h9.7V45h-9.7v6.6h11.2v2.1H170V34.4h13v2.1H172.2z"/>
	</g>
	<path class="st2" d="M368.8,34.8c-0.5-1.7-1.8-3.1-3.5-3.5c-3.1-0.8-15.5-0.8-15.5-0.8s-12.4,0-15.5,0.8c-1.7,0.5-3.1,1.8-3.5,3.5
		c-0.8,3.1-0.8,9.6-0.8,9.6s0,6.5,0.8,9.6c0.5,1.7,1.8,3.1,3.5,3.5c3.1,0.8,15.5,0.8,15.5,0.8s12.4,0,15.5-0.8
		c1.7-0.5,3.1-1.8,3.5-3.5c0.8-3.1,0.8-9.6,0.8-9.6S369.7,37.9,368.8,34.8z M345.8,50.4V38.4l10.3,6L345.8,50.4z"/>
</g>
</svg>
