<?xml version="1.0" encoding="utf-8"?>
<!-- Generator: Adobe Illustrator 19.1.0, SVG Export Plug-In . SVG Version: 6.00 Build 0)  -->
<svg version="1.1" id="Layer_1" xmlns="http://www.w3.org/2000/svg" xmlns:xlink="http://www.w3.org/1999/xlink" x="0px" y="0px"
	 viewBox="0 0 180 54" style="enable-background:new 0 0 180 54;" xml:space="preserve">
<style type="text/css">
	.st0{opacity:0.5;fill:url(#SVGID_1_);stroke:#FFFFFF;stroke-miterlimit:10;}
	.st1{opacity:0.8;fill:#1A1A1A;}
	.st2{fill:#FFFFFF;}
</style>
<g>
	
		<linearGradient id="SVGID_1_" gradientUnits="userSpaceOnUse" x1="90" y1="-16374.2842" x2="90" y2="-16333.5361" gradientTransform="matrix(1 0 0 -1 0 -16327.667)">
		<stop  offset="0" style="stop-color:#FFFFFF;stop-opacity:0.5"/>
		<stop  offset="1" style="stop-color:#FFFFFF;stop-opacity:0.7"/>
	</linearGradient>
	<path class="st0" d="M153.7,52.4H26.3C12.3,52.4,1,41,1,27v0C1,13,12.3,1.6,26.3,1.6h127.4C167.7,1.6,179,13,179,27v0
		C179,41,167.7,52.4,153.7,52.4z"/>
	<circle class="st1" cx="152.6" cy="27" r="21.1"/>
	<g>
		<path class="st2" d="M37.1,32.1h-1.3v-3.9l-4.4-7.5h1.4l3.7,5.9l3.7-5.9h1.3l-4.3,7.5V32.1z"/>
		<path class="st2" d="M53.5,26.4c0,3.2-2.6,5.8-6,5.8c-3.3,0-6-2.6-6-5.8c0-3.2,2.6-5.7,6-5.7C50.8,20.7,53.5,23.2,53.5,26.4z
			 M42.8,26.4c0,2.5,2.1,4.5,4.7,4.5s4.6-2,4.6-4.5c0-2.5-2.1-4.5-4.6-4.5S42.8,23.9,42.8,26.4z"/>
		<path class="st2" d="M65.2,27.4c0,3-1.8,4.8-4.8,4.8c-3,0-4.8-1.8-4.8-4.8v-6.7h1.3v6.7c0,2.2,1.3,3.5,3.5,3.5
			c2.2,0,3.5-1.3,3.5-3.5v-6.7h1.3V27.4z"/>
		<path class="st2" d="M71.8,22v10.2h-1.3V22h-3.7v-1.3h8.8V22H71.8z"/>
		<path class="st2" d="M86.8,27.4c0,3-1.8,4.8-4.8,4.8c-3,0-4.8-1.8-4.8-4.8v-6.7h1.3v6.7c0,2.2,1.3,3.5,3.5,3.5
			c2.2,0,3.5-1.3,3.5-3.5v-6.7h1.3V27.4z"/>
		<path class="st2" d="M94.8,20.7c2.3,0,3.7,1.1,3.7,2.9c0,1.3-0.8,2.3-2.1,2.6C98,26.4,99,27.5,99,29c0,1.9-1.5,3.1-4.1,3.1H90
			V20.7H94.8z M91.3,25.6h3.4c1.5,0,2.4-0.7,2.4-1.9c0-1.2-0.9-1.8-2.4-1.8h-3.4V25.6z M91.3,30.9h3.4c1.9,0,2.9-0.7,2.9-2
			c0-1.2-1.1-2-2.9-2h-3.4V30.9z"/>
		<path class="st2" d="M103,22v3.7h5.8V27H103v3.9h6.6v1.2h-8V20.7h7.7V22H103z"/>
	</g>
	<path class="st2" d="M164,21.3c-0.3-1-1.1-1.8-2.1-2.1c-1.8-0.5-9.3-0.5-9.3-0.5s-7.4,0-9.3,0.5c-1,0.3-1.8,1.1-2.1,2.1
		c-0.5,1.8-0.5,5.7-0.5,5.7s0,3.9,0.5,5.7c0.3,1,1.1,1.8,2.1,2.1c1.8,0.5,9.3,0.5,9.3,0.5s7.4,0,9.3-0.5c1-0.3,1.8-1.1,2.1-2.1
		c0.5-1.8,0.5-5.7,0.5-5.7S164.5,23.1,164,21.3z M150.3,30.6v-7.1l6.2,3.6L150.3,30.6z"/>
</g>
</svg>
