<?xml version="1.0" encoding="utf-8"?>
<!-- Generator: Adobe Illustrator 19.1.0, SVG Export Plug-In . SVG Version: 6.00 Build 0)  -->
<svg version="1.1" id="Layer_1" xmlns="http://www.w3.org/2000/svg" xmlns:xlink="http://www.w3.org/1999/xlink" x="0px" y="0px"
	 viewBox="0 0 395 90" style="enable-background:new 0 0 395 90;" xml:space="preserve">
<style type="text/css">
	.st0{opacity:0.5;fill:url(#SVGID_1_);stroke:#FFFFFF;stroke-width:1.6802;stroke-miterlimit:10;}
	.st1{opacity:0.8;fill:#1A1A1A;}
	.st2{fill:#FFFFFF;}
</style>
<g>
	
		<linearGradient id="SVGID_1_" gradientUnits="userSpaceOnUse" x1="197.5" y1="-16368.9609" x2="197.5" y2="-16300.4961" gradientTransform="matrix(1 0 0 -1 0 -16291)">
		<stop  offset="0" style="stop-color:#FFFFFF;stop-opacity:0.5"/>
		<stop  offset="1" style="stop-color:#FFFFFF;stop-opacity:0.7"/>
	</linearGradient>
	<path class="st0" d="M351.1,87.6H43.9C20.4,87.6,1.3,68.5,1.3,45v0c0-23.5,19.1-42.6,42.6-42.6h307.2c23.5,0,42.6,19.1,42.6,42.6v0
		C393.7,68.5,374.6,87.6,351.1,87.6z"/>
	<circle class="st1" cx="349.3" cy="44.4" r="35.5"/>
	<g>
		<path class="st2" d="M56.9,48.8l-2.1,4.8h-2.3L61,34.4h2.3l8.6,19.2h-2.4l-2.1-4.8H56.9z M62.1,36.9l-4.3,9.7h8.6L62.1,36.9z"/>
		<path class="st2" d="M82.1,34.4c4.7,0,7.5,2.4,7.5,6.4c0,4.2-2.7,6.7-7.5,6.7h-5v6.1h-2.2V34.4H82.1z M77.1,45.5H82
			c3.5,0,5.5-1.5,5.5-4.5c0-2.9-2-4.4-5.5-4.4h-4.9V45.5z"/>
		<path class="st2" d="M100.4,34.4c4.7,0,7.5,2.4,7.5,6.4c0,4.2-2.7,6.7-7.5,6.7h-5v6.1h-2.2V34.4H100.4z M95.4,45.5h4.9
			c3.5,0,5.5-1.5,5.5-4.5c0-2.9-2-4.4-5.5-4.4h-4.9V45.5z"/>
		<path class="st2" d="M122.1,51.5v2.1h-10.6V34.4h2.2v17.1H122.1z"/>
		<path class="st2" d="M127.9,36.5v6.3h9.7V45h-9.7v6.6H139v2.1h-13.4V34.4h13v2.1H127.9z"/>
		<path class="st2" d="M168.4,53.6l0-15.8l-7,13.8H160l-7-13.8v15.8H151V34.4h2.7l7,13.8l7-13.8h2.7v19.2H168.4z"/>
		<path class="st2" d="M191.9,45.7c0,5-3,8-8,8c-5,0-8.1-3-8.1-8V34.4h2.2v11.3c0,3.7,2.2,5.9,5.9,5.9s5.8-2.2,5.8-5.9V34.4h2.2
			V45.7z"/>
		<path class="st2" d="M209,36.1l-0.9,2.1c-1.7-1.2-3.8-1.6-5.3-1.6c-2.5,0-4.1,0.9-4.1,2.5c0,4.9,10.8,2.4,10.8,9.3
			c0,3.2-2.8,5.3-6.9,5.3c-2.8,0-5.5-1.2-7.3-2.9l1-2c1.8,1.7,4.2,2.7,6.4,2.7c2.8,0,4.5-1.1,4.5-3c0-5-10.8-2.4-10.8-9.2
			c0-3,2.7-5,6.6-5C205.2,34.4,207.4,35.1,209,36.1z"/>
		<path class="st2" d="M214,53.6V34.4h2.2v19.2H214z"/>
		<path class="st2" d="M237.2,37.2l-1.3,1.7c-1.5-1.5-3.6-2.4-5.7-2.4c-4.3,0-7.8,3.3-7.8,7.6c0,4.2,3.5,7.6,7.8,7.6
			c2.1,0,4.2-0.9,5.7-2.3l1.3,1.5c-1.9,1.8-4.5,3-7.1,3c-5.5,0-9.9-4.3-9.9-9.7c0-5.4,4.4-9.6,10-9.6
			C232.8,34.4,235.3,35.5,237.2,37.2z"/>
	</g>
	<path id="_Compound_Path_11_2_" class="st2" d="M367.7,31c-0.9-2.2-2.8-3.9-5.1-4.6c-1.5-0.4-3.1-0.5-4.6-0.5h-17.2
		c-1.6-0.1-3.1,0.1-4.6,0.5c-2.3,0.7-4.2,2.4-5.1,4.6c-0.6,1.7-0.8,3.6-0.8,5.4v17.2c-0.1,1.8,0.2,3.7,0.8,5.4
		c0.9,2.2,2.8,3.9,5.1,4.6c1.5,0.4,3.1,0.5,4.6,0.5h17.2c1.6,0.1,3.1-0.1,4.6-0.5c2.3-0.7,4.2-2.4,5.1-4.6c0.6-1.7,0.8-3.6,0.8-5.4
		V36.4C368.5,34.6,368.3,32.7,367.7,31z M358.1,52.2c-0.1,0.5-0.3,0.9-0.6,1.3c-0.3,0.4-0.6,0.7-1,1c-0.4,0.2-0.9,0.4-1.3,0.5
		c-0.7,0.2-1.4,0.2-2.1,0.1c-0.5-0.1-1-0.3-1.4-0.7c-1.2-1.1-1.3-3-0.2-4.2c0,0,0,0,0.1-0.1c0.3-0.4,0.8-0.6,1.2-0.8
		c0.7-0.2,1.4-0.4,2.1-0.5c0.2,0,0.5-0.1,0.7-0.1c0.3,0,0.6-0.2,0.8-0.4c0.2-0.3,0.3-0.6,0.2-0.9l0-8.4c0-0.6-0.3-0.8-0.9-0.7
		c-0.4,0.1-9.9,2-9.9,2c-0.4,0-0.8,0.4-0.7,0.8c0,0,0,0.1,0,0.1l0,12.4c0,0.5,0,0.9-0.1,1.4c-0.1,0.5-0.3,0.9-0.6,1.3
		c-0.3,0.4-0.6,0.7-1,1c-0.4,0.2-0.9,0.4-1.3,0.5c-0.7,0.2-1.4,0.2-2.1,0.1c-0.5-0.1-1-0.3-1.4-0.7c-1.2-1.1-1.3-3.1-0.2-4.3
		c0.3-0.4,0.8-0.6,1.2-0.8c0.7-0.2,1.4-0.4,2.1-0.5c0.2,0,0.5-0.1,0.7-0.1c0.3,0,0.6-0.2,0.8-0.4c0.2-0.3,0.3-0.6,0.3-0.9V35.6
		c0-0.1,0-0.3,0-0.4c0-0.3,0.2-0.5,0.4-0.7c0.2-0.2,0.4-0.3,0.7-0.3l0,0l11.4-2.3c0.1,0,0.9-0.2,1-0.2c0.5-0.1,0.9,0.3,1,0.7
		c0,0.1,0,0.2,0,0.3l0,18C358.2,51.2,358.2,51.7,358.1,52.2L358.1,52.2z"/>
</g>
</svg>
