<?xml version="1.0" encoding="utf-8"?>
<!-- Generator: Adobe Illustrator 19.1.0, SVG Export Plug-In . SVG Version: 6.00 Build 0)  -->
<svg version="1.1" id="Layer_1" xmlns="http://www.w3.org/2000/svg" xmlns:xlink="http://www.w3.org/1999/xlink" x="0px" y="0px"
	 viewBox="-282 236 395 90" style="enable-background:new -282 236 395 90;" xml:space="preserve">
<style type="text/css">
	.st0{opacity:0.5;fill:url(#SVGID_1_);stroke:#FFFFFF;stroke-width:1.6802;stroke-miterlimit:10;enable-background:new    ;}
	.st1{opacity:0.8;fill:#1A1A1A;enable-background:new    ;}
	.st2{fill:#FFFFFF;}
</style>
<g>
	
		<linearGradient id="SVGID_1_" gradientUnits="userSpaceOnUse" x1="-84.5" y1="-16832.9609" x2="-84.5" y2="-16764.4961" gradientTransform="matrix(1 0 0 -1 0 -16519)">
		<stop  offset="0" style="stop-color:#FFFFFF;stop-opacity:0.5"/>
		<stop  offset="1" style="stop-color:#FFFFFF;stop-opacity:0.7"/>
	</linearGradient>
	<path class="st0" d="M69.1,323.6h-307.2c-23.5,0-42.6-19.1-42.6-42.6l0,0c0-23.5,19.1-42.6,42.6-42.6H69.1
		c23.5,0,42.6,19.1,42.6,42.6l0,0C111.7,304.5,92.6,323.6,69.1,323.6z"/>
	<circle class="st1" cx="67.3" cy="280.4" r="35.5"/>
	<path class="st2" d="M80.3,269.7c0.4-2.1,0.9-3.3,1.4-3.3l0,0c1.1,0,1.9,4.5,1.9,10s-0.9,10-1.9,10c-0.4,0-0.8-0.8-1.2-2
		c-0.5,4.7-1.6,7.9-2.8,7.9c-1,0-1.8-1.9-2.4-5c-0.4,5.8-1.4,9.9-2.6,9.9c-0.7,0-1.4-1.6-1.9-4.3c-0.6,5.5-2,9.3-3.6,9.3
		s-3-3.8-3.6-9.3c-0.5,2.6-1.2,4.3-1.9,4.3c-1.2,0-2.2-4.1-2.6-9.9c-0.6,3-1.4,5-2.4,5c-1.2,0-2.3-3.2-2.8-7.9c-0.3,1.3-0.7,2-1.2,2
		c-1.1,0-1.9-4.5-1.9-10s0.9-10,1.9-10c0.6,0,1.1,1.3,1.4,3.3c0.6-3.5,1.5-5.8,2.6-5.8c1.2,0,2.3,3.3,2.8,8c0.5-3.4,1.3-5.6,2.1-5.6
		c1.2,0,2.2,4.3,2.6,10.3c0.7-3.1,1.7-5,2.9-5c1.1,0,2.2,1.9,2.9,5c0.4-6,1.4-10.3,2.6-10.3c0.9,0,1.6,2.2,2.1,5.6
		c0.5-4.7,1.6-8,2.8-8C78.8,263.9,79.8,266.2,80.3,269.7z M48.3,275.4c0-2.5,0.5-4.5,1.1-4.5s1.1,2,1.1,4.5s-0.5,4.5-1.1,4.5
		S48.3,277.9,48.3,275.4z M84.3,275.4c0-2.5,0.5-4.5,1.1-4.5s1.1,2,1.1,4.5s-0.5,4.5-1.1,4.5S84.3,277.9,84.3,275.4z"/>
	<g>
		<path class="st2" d="M-221.7,270.4c5.6,0,9.9,4.2,9.9,9.6s-4.3,9.6-10,9.6h-7.7v-19.2H-221.7z M-227.3,287.5h5.6
			c4.3,0,7.6-3.2,7.6-7.5c0-4.3-3.4-7.5-7.7-7.5h-5.5V287.5z"/>
		<path class="st2" d="M-205.6,272.5v6.3h9.7v2.1h-9.7v6.6h11.2v2.1h-13.4v-19.2h13.1v2.1H-205.6z"/>
		<path class="st2" d="M-187.7,272.5v6.3h9.7v2.1h-9.7v6.6h11.2v2.1h-13.4v-19.2h13.1v2.1H-187.7z"/>
		<path class="st2" d="M-170.9,287.5h12.9l0,2.1h-15.7v-1.8l12.7-15.4h-12.4v-2.1h15.3v1.8L-170.9,287.5z"/>
		<path class="st2" d="M-151.7,272.5v6.3h9.7v2.1h-9.7v6.6h11.2v2.1h-13.4v-19.2h13.1v2.1H-151.7z"/>
		<path class="st2" d="M-127.4,283.5c-0.4,0-0.9,0.1-1.3,0.1h-5.1v6.1h-2.2v-19.2h7.3c4.8,0,7.6,2.4,7.6,6.5c0,3.2-1.5,5.3-4.3,6.2
			l4.5,6.5h-2.5L-127.4,283.5z M-128.7,281.4c3.5,0,5.5-1.5,5.5-4.5c0-2.9-2-4.4-5.5-4.4h-5.1v8.9H-128.7z"/>
	</g>
</g>
</svg>
