<?xml version="1.0" encoding="utf-8"?>
<!-- Generator: Adobe Illustrator 19.1.0, SVG Export Plug-In . SVG Version: 6.00 Build 0)  -->
<svg version="1.1" id="Layer_1" xmlns="http://www.w3.org/2000/svg" xmlns:xlink="http://www.w3.org/1999/xlink" x="0px" y="0px"
	 viewBox="-327 254 169 54" style="enable-background:new -327 254 169 54;" xml:space="preserve">
<style type="text/css">
	.st0{opacity:0.5;fill:url(#SVGID_1_);stroke:#FFFFFF;stroke-miterlimit:10;enable-background:new    ;}
	.st1{opacity:0.8;fill:#1A1A1A;enable-background:new    ;}
	.st2{fill:#FFFFFF;}
</style>
<g>
	
		<linearGradient id="SVGID_1_" gradientUnits="userSpaceOnUse" x1="-242" y1="-16856.2852" x2="-242" y2="-16815.5371" gradientTransform="matrix(1 0 0 -1 0 -16555.668)">
		<stop  offset="0" style="stop-color:#FFFFFF;stop-opacity:0.5"/>
		<stop  offset="1" style="stop-color:#FFFFFF;stop-opacity:0.7"/>
	</linearGradient>
	<path class="st0" d="M-185.1,306.4h-114c-14,0-25.3-11.4-25.3-25.4l0,0c0-14,11.3-25.4,25.3-25.4h114c14,0,25.4,11.4,25.4,25.4l0,0
		C-159.8,295-171.1,306.4-185.1,306.4z"/>
	<circle class="st1" cx="-186.3" cy="281" r="21.1"/>
	<path class="st2" d="M-178.1,273.7c0.2-1.3,0.5-2.1,0.9-2.1l0,0c0.7,0,1.2,2.8,1.2,6.3s-0.5,6.3-1.2,6.3c-0.3,0-0.5-0.5-0.7-1.3
		c-0.3,2.9-1,4.9-1.8,4.9c-0.6,0-1.1-1.2-1.5-3.1c-0.2,3.6-0.9,6.2-1.6,6.2c-0.5,0-0.9-1-1.2-2.7c-0.4,3.4-1.2,5.8-2.2,5.8
		s-1.9-2.4-2.2-5.8c-0.3,1.7-0.7,2.7-1.2,2.7c-0.7,0-1.4-2.6-1.6-6.2c-0.4,1.9-0.9,3.1-1.5,3.1c-0.8,0-1.5-2-1.8-4.9
		c-0.2,0.8-0.5,1.3-0.7,1.3c-0.7,0-1.2-2.8-1.2-6.3s0.5-6.3,1.2-6.3c0.4,0,0.7,0.8,0.9,2.1c0.4-2.2,0.9-3.7,1.6-3.7
		c0.8,0,1.5,2,1.8,5c0.3-2.2,0.8-3.5,1.3-3.5c0.7,0,1.4,2.7,1.6,6.5c0.4-1.9,1.1-3.1,1.8-3.1s1.4,1.2,1.8,3.1
		c0.2-3.8,0.9-6.5,1.6-6.5c0.5,0,1,1.4,1.3,3.5c0.3-3,1-5,1.8-5C-178.9,270-178.4,271.4-178.1,273.7z M-198.1,277.2
		c0-1.5,0.3-2.8,0.7-2.8c0.4,0,0.7,1.3,0.7,2.8s-0.3,2.8-0.7,2.8C-197.9,280-198.1,278.8-198.1,277.2z M-175.6,277.2
		c0-1.5,0.3-2.8,0.7-2.8c0.4,0,0.7,1.3,0.7,2.8s-0.3,2.8-0.7,2.8C-175.3,280-175.6,278.8-175.6,277.2z"/>
	<g>
		<path class="st2" d="M-289.4,274.7c3.3,0,5.9,2.5,5.9,5.7s-2.6,5.7-5.9,5.7h-4.6v-11.4L-289.4,274.7L-289.4,274.7z M-292.7,284.9
			h3.3c2.5,0,4.5-1.9,4.5-4.4c0-2.6-2-4.5-4.6-4.5h-3.3v8.9H-292.7z"/>
		<path class="st2" d="M-279.8,276v3.7h5.7v1.3h-5.7v3.9h6.6v1.2h-7.9v-11.4h7.7v1.3H-279.8z"/>
		<path class="st2" d="M-269.2,276v3.7h5.7v1.3h-5.7v3.9h6.6v1.2h-7.9v-11.4h7.7v1.3H-269.2z"/>
		<path class="st2" d="M-259.2,284.9h7.6v1.2h-9.3v-1l7.6-9.1h-7.3v-1.3h9.1v1L-259.2,284.9z"/>
		<path class="st2" d="M-247.9,276v3.7h5.7v1.3h-5.7v3.9h6.6v1.2h-7.9v-11.4h7.7v1.3H-247.9z"/>
		<path class="st2" d="M-233.5,282.5c-0.2,0-0.5,0-0.8,0h-3v3.6h-1.3v-11.4h4.3c2.9,0,4.5,1.4,4.5,3.8c0,1.9-0.9,3.2-2.6,3.7
			l2.7,3.9h-1.5L-233.5,282.5z M-234.2,281.2c2.1,0,3.2-0.9,3.2-2.7c0-1.7-1.2-2.6-3.2-2.6h-3v5.3L-234.2,281.2L-234.2,281.2z"/>
	</g>
</g>
</svg>
