<?xml version="1.0" encoding="utf-8"?>
<!-- Generator: Adobe Illustrator 19.1.0, SVG Export Plug-In . SVG Version: 6.00 Build 0)  -->
<svg version="1.1" id="Layer_1" xmlns="http://www.w3.org/2000/svg" xmlns:xlink="http://www.w3.org/1999/xlink" x="0px" y="0px"
	 viewBox="0 0 58 58" style="enable-background:new 0 0 58 58;" xml:space="preserve">
<style type="text/css">
	.st0{fill:#F9F4EC;}
</style>
<g>
	<g>
		<path class="st0" d="M29,53.5c-4.4-0.1-8.8-0.1-13.1-0.7C9.6,52,6.5,49.6,5.5,43.4c-1.4-9.4-1.4-19,0-28.4C6.4,8.8,8.9,6.4,15,5.5
			c9.3-1.3,18.6-1.3,27.9,0c6.2,0.9,8.7,3.4,9.6,9.6c1.3,9.3,1.3,18.7,0,27.9c-0.9,6.5-4,9-10.6,9.8C37.6,53.3,33.3,53.3,29,53.5z
			 M29,48.6c4-0.1,8.1,0.1,12.1-0.3c4.6-0.4,6.8-2.5,7.1-7.2c0.5-8,0.5-16,0-24c-0.3-4.7-2.5-6.9-7.2-7.2c-8-0.5-16-0.5-24,0
			c-4.8,0.3-6.9,2.5-7.2,7.3c-0.5,8-0.5,16,0,24c0.3,4.6,2.5,6.7,7.1,7.1C20.9,48.7,25,48.5,29,48.6z"/>
		<path class="st0" d="M28.9,16.9c6.7,0,12.2,5.4,12.2,12.1c0,6.7-5.5,12.2-12.2,12.2c-6.7,0-12-5.4-12.1-12.1
			C16.8,22.5,22.2,16.9,28.9,16.9z M29,36.4c4,0,7.4-3.4,7.4-7.4c0-3.9-3.3-7.3-7.2-7.4c-3.9-0.1-7.4,3.3-7.5,7.3
			C21.6,32.9,25,36.4,29,36.4z"/>
		<path class="st0" d="M43.6,16.9c0,1.3-1.1,2.3-2.5,2.3c-1.4,0-2.3-1-2.3-2.4c0-1.4,1.1-2.4,2.4-2.4C42.5,14.5,43.6,15.7,43.6,16.9
			z"/>
	</g>
</g>
</svg>
