<?xml version="1.0" encoding="utf-8"?>
<!-- Generator: Adobe Illustrator 19.1.0, SVG Export Plug-In . SVG Version: 6.00 Build 0)  -->
<svg version="1.1" id="Layer_1" xmlns="http://www.w3.org/2000/svg" xmlns:xlink="http://www.w3.org/1999/xlink" x="0px" y="0px"
	 viewBox="-167.3 370 183.3 54" style="enable-background:new -167.3 370 183.3 54;" xml:space="preserve">
<style type="text/css">
	.st0{opacity:0.5;fill:url(#SVGID_1_);stroke:#FFFFFF;stroke-miterlimit:10;enable-background:new    ;}
	.st1{opacity:0.8;fill:#1A1A1A;enable-background:new    ;}
	.st2{fill:#FFFFFF;}
</style>
<g>
	
		<linearGradient id="SVGID_1_" gradientUnits="userSpaceOnUse" x1="-75.45" y1="17536.2832" x2="-75.45" y2="17495.5371" gradientTransform="matrix(1 0 0 1 0 -17119.668)">
		<stop  offset="0" style="stop-color:#FFFFFF;stop-opacity:0.5"/>
		<stop  offset="1" style="stop-color:#FFFFFF;stop-opacity:0.7"/>
	</linearGradient>
	<path class="st0" d="M-11,422.4h-129c-14,0-25.3-11.4-25.3-25.4l0,0c0-14,11.3-25.4,25.3-25.4h129c14,0,25.4,11.4,25.4,25.4l0,0
		C14.3,411,3,422.4-11,422.4z"/>
	<circle class="st1" cx="-12.2" cy="397" r="21.1"/>
	<g>
		<path class="st2" d="M-19.6,387.9c0.1,0,0.1,0,0.2,0c3,0,6,0,9,0c1.4,0,2.7,0.2,4,0.8c2.3,1,3.5,2.8,3.8,5.3
			c0.2,1.5,0.1,3-0.5,4.4c-0.8,2.1-2.4,3.5-4.5,4.2c-1.4,0.5-2.9,0.7-4.3,0.7c-0.4,0-0.9,0-1.3,0c0,0.1,0,0.2,0,0.2
			c0,1.2,0,2.3,0,3.5c0,0.7-0.4,1-1,1c-1.7,0-3.4,0-5.1,0c-0.1,0-0.1,0-0.2,0C-19.6,401.4-19.6,394.6-19.6,387.9z"/>
	</g>
	<g>
		<path class="st2" d="M-130.7,390.7c2.8,0,4.4,1.4,4.4,3.8c0,2.5-1.6,3.9-4.4,3.9h-3v3.6h-1.3v-11.3H-130.7z M-133.7,397.2h2.9
			c2,0,3.2-0.9,3.2-2.7c0-1.7-1.2-2.6-3.2-2.6h-2.9V397.2z"/>
		<path class="st2" d="M-123.8,399.2l-1.3,2.9h-1.4l5.1-11.3h1.3l5.1,11.3h-1.4l-1.3-2.9H-123.8z M-120.7,392.2l-2.5,5.7h5.1
			L-120.7,392.2z"/>
		<path class="st2" d="M-105.1,402.1l-6.8-9.1v9.1h-1.3v-11.3h1.3l6.8,9.1v-9.1h1.3v11.3H-105.1z"/>
		<path class="st2" d="M-95.7,390.7c3.3,0,5.8,2.4,5.8,5.7c0,3.2-2.5,5.7-5.9,5.7h-4.5v-11.3H-95.7z M-99,400.8h3.3
			c2.5,0,4.5-1.9,4.5-4.4c0-2.5-2-4.4-4.5-4.4H-99V400.8z"/>
		<path class="st2" d="M-77,396.4c0,3.2-2.6,5.7-5.9,5.7c-3.3,0-5.9-2.5-5.9-5.7c0-3.2,2.6-5.7,5.9-5.7
			C-79.6,390.7-77,393.2-77,396.4z M-87.6,396.4c0,2.5,2.1,4.5,4.6,4.5c2.5,0,4.6-2,4.6-4.5c0-2.5-2.1-4.5-4.6-4.5
			C-85.5,391.9-87.6,393.9-87.6,396.4z"/>
		<path class="st2" d="M-69.6,398.4c-0.2,0-0.5,0-0.8,0h-3v3.6h-1.3v-11.3h4.3c2.8,0,4.5,1.4,4.5,3.8c0,1.9-0.9,3.1-2.5,3.7l2.7,3.9
			h-1.5L-69.6,398.4z M-70.4,397.2c2.1,0,3.2-0.9,3.2-2.7c0-1.7-1.2-2.6-3.2-2.6h-3v5.3H-70.4z"/>
		<path class="st2" d="M-62,399.2l-1.3,2.9h-1.4l5.1-11.3h1.3l5.1,11.3h-1.4l-1.3-2.9H-62z M-58.9,392.2l-2.5,5.7h5.1L-58.9,392.2z"
			/>
	</g>
</g>
</svg>
