<?xml version="1.0" encoding="utf-8"?>
<!-- Generator: Adobe Illustrator 19.1.0, SVG Export Plug-In . SVG Version: 6.00 Build 0)  -->
<svg version="1.1" id="Layer_1" xmlns="http://www.w3.org/2000/svg" xmlns:xlink="http://www.w3.org/1999/xlink" x="0px" y="0px"
	 viewBox="-108 352 395 90" style="enable-background:new -108 352 395 90;" xml:space="preserve">
<style type="text/css">
	.st0{opacity:0.5;fill:url(#SVGID_1_);stroke:#FFFFFF;stroke-width:1.6802;stroke-miterlimit:10;enable-background:new    ;}
	.st1{opacity:0.8;fill:#1A1A1A;enable-background:new    ;}
	.st2{fill:#FFFFFF;}
</style>
<g>
	
		<linearGradient id="SVGID_1_" gradientUnits="userSpaceOnUse" x1="89.5" y1="17512.9609" x2="89.5" y2="17444.4961" gradientTransform="matrix(1 0 0 1 0 -17083)">
		<stop  offset="0" style="stop-color:#FFFFFF;stop-opacity:0.5"/>
		<stop  offset="1" style="stop-color:#FFFFFF;stop-opacity:0.7"/>
	</linearGradient>
	<path class="st0" d="M243.1,439.6H-64.1c-23.5,0-42.6-19.1-42.6-42.6l0,0c0-23.5,19.1-42.6,42.6-42.6h307.2
		c23.5,0,42.6,19.1,42.6,42.6l0,0C285.7,420.5,266.6,439.6,243.1,439.6z"/>
	<circle class="st1" cx="241.3" cy="396.4" r="35.5"/>
	<g>
		<path class="st2" d="M226.9,376.9c0.1,0,0.3,0,0.4,0c5.8,0,11.6,0,17.3,0c2.7,0,5.2,0.5,7.6,1.6c4.4,2,6.8,5.5,7.4,10.2
			c0.4,2.9,0.1,5.7-1,8.5c-1.6,4.1-4.6,6.7-8.6,8.2c-2.7,1-5.5,1.3-8.4,1.3c-0.8,0-1.7,0-2.6,0c0,0.2,0,0.3,0,0.5c0,2.3,0,4.5,0,6.8
			c0,1.3-0.7,2-2,2c-3.3,0-6.5,0-9.8,0c-0.1,0-0.2,0-0.4,0C226.9,402.9,226.9,389.9,226.9,376.9z"/>
	</g>
	<g>
		<path class="st2" d="M-48.2,386.4c4.8,0,7.6,2.4,7.6,6.5c0,4.3-2.8,6.8-7.6,6.8h-5.1v6.1h-2.2v-19.4H-48.2z M-53.3,397.5h5
			c3.5,0,5.5-1.6,5.5-4.6c0-2.9-2-4.4-5.5-4.4h-5V397.5z"/>
		<path class="st2" d="M-36.4,400.9l-2.2,4.9h-2.4l8.7-19.4h2.3l8.7,19.4h-2.4l-2.2-4.9H-36.4z M-31.1,388.9l-4.3,9.8h8.7
			L-31.1,388.9z"/>
		<path class="st2" d="M-4.3,405.8l-11.6-15.6v15.6h-2.2v-19.4h2.3L-4.2,402v-15.6H-2v19.4H-4.3z"/>
		<path class="st2" d="M11.7,386.4c5.6,0,10,4.2,10,9.7s-4.3,9.7-10.1,9.7H3.9v-19.4H11.7z M6.1,403.7h5.6c4.3,0,7.7-3.2,7.7-7.6
			c0-4.3-3.4-7.6-7.8-7.6H6.1V403.7z"/>
		<path class="st2" d="M43.7,396.1c0,5.5-4.5,9.8-10.1,9.8c-5.7,0-10.2-4.3-10.2-9.8c0-5.5,4.5-9.7,10.2-9.7
			C39.3,386.3,43.7,390.6,43.7,396.1z M25.7,396.1c0,4.3,3.6,7.7,7.9,7.7s7.9-3.4,7.9-7.7c0-4.3-3.5-7.6-7.9-7.6
			S25.7,391.8,25.7,396.1z"/>
		<path class="st2" d="M56.5,399.6c-0.4,0-0.9,0.1-1.3,0.1H50v6.1h-2.2v-19.4h7.4c4.8,0,7.6,2.4,7.6,6.5c0,3.2-1.6,5.4-4.3,6.3
			l4.5,6.6h-2.5L56.5,399.6z M55.2,397.5c3.5,0,5.5-1.6,5.5-4.6c0-2.9-2-4.4-5.5-4.4H50v9H55.2z"/>
		<path class="st2" d="M69.5,400.9l-2.2,4.9H65l8.7-19.4H76l8.7,19.4h-2.4l-2.2-4.9H69.5z M74.8,388.9l-4.3,9.8h8.7L74.8,388.9z"/>
	</g>
</g>
</svg>
