<?xml version="1.0" encoding="utf-8"?>
<!-- Generator: Adobe Illustrator 19.1.0, SVG Export Plug-In . SVG Version: 6.00 Build 0)  -->
<svg version="1.1" id="Layer_1" xmlns="http://www.w3.org/2000/svg" xmlns:xlink="http://www.w3.org/1999/xlink" x="0px" y="0px"
	 viewBox="0 0 960 159" style="enable-background:new 0 0 960 159;" xml:space="preserve">
<style type="text/css">
	.st0{fill:#FFFFFF;}
</style>
<g>
	<path class="st0" d="M917.4,6.6H106c-21,0-40.6,10.3-52.5,27.5L11.7,94.6c-17.2,24.9,0.6,58.9,30.9,58.9H854
		c21,0,40.6-10.3,52.5-27.5l41.8-60.5C965.5,40.5,947.7,6.6,917.4,6.6 M931.7,54l-41.8,60.5c-8.2,11.8-21.6,18.8-35.9,18.8H42.6
		c-9.5,0-13.9-6.5-15.4-9.3c-1.5-2.8-4.3-10.1,1.1-17.9l41.8-60.5c8.2-11.8,21.6-18.8,35.9-18.8h811.4c9.5,0,13.9,6.5,15.4,9.3
		C934.3,38.8,937.1,46.2,931.7,54"/>
	<path class="st0" d="M157.4,107H79.7l34.4-3.5L147,56.5l-22.2-2.6h69.8l-7.6,11l51.5-6.6l14.6-20H123.6c-15.4,0-29.7,7.5-38.5,20.2
		L56.9,99.4c-7.1,10.3,0.3,24.3,12.7,24.3h110.1c9,0,17.4-4.4,22.5-11.7l15.8-22.5l-53.3,7.1L157.4,107z"/>
	<path class="st0" d="M400.2,38.3H291.1c-15.3,0-29.6,7.4-38.3,20l-29.5,42.3c-6.8,9.8,0.2,23.2,12.1,23.2h116.3l25.5-17l43.1-61.9
		C415.1,39.9,409.6,38.3,400.2,38.3 M354.4,58.5l-34.1,48.4h-73l31.5-2.9l33.5-47.9L283,53.9h110.2L354.4,58.5z"/>
	<path class="st0" d="M503.5,89.8l25.7-0.7c12.5-0.4,24-6.7,31-17.1l13-19.2c4.2-6.2-0.3-14.5-7.7-14.5H423.8l27.3,33l-23-18.7
		l-50.1,71.1h55.5l23.9-34.6h10l14.4,34.6h59.5l-16.4-30.8L503.5,89.8z M466.5,75.3l15-21.3h37.5l-15,21.3H466.5z"/>
	<path class="st0" d="M699.9,103.8l12.1-19c3.9-6.2-0.5-14.3-7.8-14.3h-73.6l9.4-14l-13.5-2.7h93.6l-35.8,2.8l-4.6,6.8l50-6.4
		l11.9-18.7H620.2c-15.5,0-30.1,7.7-38.7,20.6l-9.2,13.7c-5,7.4,0.3,17.3,9.2,17.3h69.8l-11.6,17.7H572l24-3.3l4.5-5.8l-51.9,6.7
		l-7.9,11l4.1,7.6h119C678.4,123.6,692,116.1,699.9,103.8"/>
	<polygon class="st0" points="786.5,49.4 691.9,123.6 746.6,123.6 764.4,106.5 730.6,105 782,88.6 833.2,48.5 817.6,62.3 
		812.6,84.9 750,103 839.3,103 809,105.8 804.7,123.6 862.1,123.6 875.4,38.3 778.8,38.3 	"/>
</g>
</svg>
