<?xml version="1.0" encoding="utf-8"?>
<!-- Generator: Adobe Illustrator 19.1.0, SVG Export Plug-In . SVG Version: 6.00 Build 0)  -->
<svg version="1.1" id="Layer_1" xmlns="http://www.w3.org/2000/svg" xmlns:xlink="http://www.w3.org/1999/xlink" x="0px" y="0px"
	 viewBox="0 0 170 54" style="enable-background:new 0 0 170 54;" xml:space="preserve">
<style type="text/css">
	.st0{opacity:0.5;fill:url(#SVGID_1_);stroke:#FFFFFF;stroke-miterlimit:10;}
	.st1{opacity:0.8;fill:#1A1A1A;}
	.st2{fill:#FFFFFF;}
</style>
<g>
	
		<linearGradient id="SVGID_1_" gradientUnits="userSpaceOnUse" x1="85" y1="-16374.2842" x2="85" y2="-16333.5361" gradientTransform="matrix(1 0 0 -1 0 -16327.667)">
		<stop  offset="0" style="stop-color:#FFFFFF;stop-opacity:0.5"/>
		<stop  offset="1" style="stop-color:#FFFFFF;stop-opacity:0.7"/>
	</linearGradient>
	<path class="st0" d="M142.8,52.4H27.2C13.2,52.4,1.9,41,1.9,27v0c0-14,11.4-25.4,25.4-25.4h115.6c14,0,25.4,11.4,25.4,25.4v0
		C168.1,41,156.8,52.4,142.8,52.4z"/>
	<circle class="st1" cx="142.2" cy="27.2" r="21.1"/>
	<g>
		<path class="st2" d="M40.9,21.7L40.4,23c-1-0.7-2.2-1-3.1-1c-1.5,0-2.4,0.6-2.4,1.5c0,2.9,6.4,1.4,6.4,5.5c0,1.9-1.7,3.1-4.1,3.1
			c-1.7,0-3.3-0.7-4.4-1.7l0.6-1.2c1.1,1,2.5,1.6,3.8,1.6c1.6,0,2.7-0.7,2.7-1.8c0-3-6.4-1.4-6.4-5.5c0-1.8,1.6-2.9,3.9-2.9
			C38.6,20.7,40,21.1,40.9,21.7z"/>
		<path class="st2" d="M48.2,20.7c2.8,0,4.4,1.4,4.4,3.8c0,2.5-1.6,4-4.4,4h-3v3.6h-1.3V20.7H48.2z M45.2,27.3h2.9
			c2.1,0,3.2-0.9,3.2-2.7c0-1.7-1.2-2.6-3.2-2.6h-2.9V27.3z"/>
		<path class="st2" d="M65.7,26.4c0,3.2-2.6,5.8-6,5.8c-3.3,0-6-2.6-6-5.8c0-3.2,2.6-5.7,6-5.7C63,20.7,65.7,23.2,65.7,26.4z
			 M55,26.4c0,2.5,2.1,4.5,4.7,4.5c2.5,0,4.6-2,4.6-4.5c0-2.5-2.1-4.5-4.6-4.5C57.2,21.9,55,23.9,55,26.4z"/>
		<path class="st2" d="M71.4,22v10.2h-1.3V22h-3.7v-1.3h8.8V22H71.4z"/>
		<path class="st2" d="M77,32.1V20.7h1.3v11.4H77z"/>
		<path class="st2" d="M83.1,22v4h5.3v1.3h-5.3v4.9h-1.3V20.7H89V22H83.1z"/>
		<path class="st2" d="M95,32.1h-1.3v-3.9l-4.4-7.5h1.4l3.7,5.9l3.7-5.9h1.3L95,28.2V32.1z"/>
	</g>
	<path class="st2" d="M152.8,27c0,6.1-5,11.2-11.4,11.1c-5.9-0.2-10.9-5-10.7-11.3c0.1-5.9,5.1-10.9,11.4-10.8
		C148,16.1,152.8,21,152.8,27z M138.7,22.1c-0.2,0-0.5,0-0.7,0c-0.9,0.1-1.8,0.2-2.7,0.3c-0.2,0-0.4,0.1-0.5,0.1
		c-0.5,0.3-0.7,0.8-0.5,1.3c0.2,0.5,0.7,0.8,1.2,0.7c1.2-0.2,2.5-0.4,3.7-0.4c0.7,0,1.3,0,2,0.1c1.5,0.1,3,0.4,4.4,0.9
		c1,0.3,2,0.8,3,1.3c0.5,0.3,1.1,0.1,1.4-0.5c0.3-0.5,0.1-1.1-0.4-1.4c-0.3-0.2-0.6-0.3-1-0.5c-1.7-0.8-3.4-1.3-5.2-1.6
		c-1.3-0.2-2.5-0.4-3.8-0.4C139.2,22.1,138.9,22.1,138.7,22.1z M139.3,25.9c-0.4,0-0.9,0-1.3,0c-0.8,0.1-1.7,0.2-2.5,0.4
		c-0.5,0.1-0.7,0.5-0.7,1c0.1,0.4,0.5,0.8,0.9,0.7c0.2,0,0.4-0.1,0.6-0.1c0.9-0.2,1.9-0.3,2.8-0.3c0.6,0,1.2,0,1.8,0.1
		c1.2,0.1,2.3,0.4,3.4,0.7c1,0.3,1.9,0.7,2.7,1.2c0.4,0.2,0.9,0.1,1.1-0.4c0.2-0.4,0.1-0.9-0.4-1.1c-1-0.6-2.1-1-3.2-1.4
		C142.9,26.2,141.2,25.9,139.3,25.9z M139.5,29.3c-0.6,0-1,0-1.5,0.1c-0.7,0.1-1.3,0.2-2,0.3c-0.4,0.1-0.6,0.4-0.5,0.8
		c0.1,0.4,0.4,0.6,0.8,0.5c1-0.2,2-0.4,3-0.4c0.5,0,0.9,0,1.4,0.1c1.1,0.1,2.2,0.3,3.3,0.7c0.7,0.3,1.4,0.6,2.1,1
		c0.1,0.1,0.2,0.1,0.3,0.1c0.3,0,0.6-0.2,0.6-0.5c0.1-0.3-0.1-0.6-0.3-0.7c-0.9-0.5-1.8-0.9-2.7-1.2
		C142.4,29.6,140.9,29.3,139.5,29.3z"/>
</g>
</svg>
