<?xml version="1.0" encoding="utf-8"?>
<!-- Generator: Adobe Illustrator 19.1.0, SVG Export Plug-In . SVG Version: 6.00 Build 0)  -->
<svg version="1.1" id="Layer_1" xmlns="http://www.w3.org/2000/svg" xmlns:xlink="http://www.w3.org/1999/xlink" x="0px" y="0px"
	 viewBox="0 0 512 512" style="enable-background:new 0 0 512 512;" xml:space="preserve">
<style type="text/css">
	.st0{fill:#35342F;}
</style>
<path class="st0" d="M256,4.3C117,4.3,4.3,117,4.3,256S117,507.7,256,507.7S507.7,395,507.7,256S395,4.3,256,4.3z M356.5,326
	c0,5.6-0.1,10.7-1.2,16.3c-1.2,5.5-3.3,10.6-6.5,15.2c-3.2,4.6-7.3,8.4-12.1,11.2c-4.9,2.9-10,4.5-15.4,5.6
	c-10.2,2-17.2,2.5-23.8,1.2c-6.3-1.3-11.7-4.2-16-8.1c-6.3-5.9-10.4-13.7-11.2-21.9c-1-9.7,2.2-20,9.4-27.6
	c3.6-3.8,8.3-6.8,14.4-9.2c6.4-2.5,13.5-4,24.4-6.2c2.9-0.6,5.7-1.2,8.6-1.7c3.8-0.7,7-1.7,9.6-4.9c2.6-3.2,2.6-7.1,2.6-11v-97.7
	c0-7.5-3.3-9.5-10.5-8.1c-5.1,1-114.7,23.1-114.7,23.1c-6.2,1.5-8.4,3.5-8.4,11.2v143.1c0,5.6-0.3,10.7-1.5,16.3
	c-1.2,5.5-3.3,10.6-6.5,15.2c-3.2,4.6-7.3,8.4-12.1,11.2c-4.9,2.9-10,4.6-15.4,5.7c-10.2,2-17.2,2.5-23.8,1.2
	c-6.3-1.3-11.7-4.3-16-8.2c-6.3-5.9-10-13.7-11-21.9c-1-9.7,1.9-20,9.2-27.6c3.6-3.8,8.3-6.8,14.4-9.2c6.4-2.5,13.5-4,24.4-6.2
	c2.9-0.6,5.7-1.2,8.6-1.7c3.8-0.7,7-1.7,9.6-4.9c2.6-3.2,2.9-7,2.9-10.8c0-30.3,0-165.1,0-165.1c0-2.2,0.2-3.7,0.3-4.4
	c0.6-3.5,1.9-6.5,4.4-8.6c2.1-1.7,4.8-3,8.2-3.7h0.1l132-26.7c1.2-0.2,10.7-1.9,11.8-2c7.1-0.6,11.2,4.1,11.2,11.6L356.5,326z"/>
</svg>
