<?xml version="1.0" encoding="UTF-8" standalone="no"?>
<!DOCTYPE svg PUBLIC "-//W3C//DTD SVG 1.1//EN" "http://www.w3.org/Graphics/SVG/1.1/DTD/svg11.dtd">
<svg width="100%" height="100%" viewBox="0 0 504 137" version="1.1" xmlns="http://www.w3.org/2000/svg" xmlns:xlink="http://www.w3.org/1999/xlink" xml:space="preserve" xmlns:serif="http://www.serif.com/" style="fill-rule:evenodd;clip-rule:evenodd;stroke-linejoin:round;stroke-miterlimit:2;">
    <path d="M503,68.5C503,30.694 472.306,0 434.5,0L68.5,0C30.694,0 0,30.694 0,68.5C0,106.306 30.694,137 68.5,137L434.5,137C472.306,137 503,106.306 503,68.5Z" style="fill:url(#_Linear1);"/>
    <path d="M503,68.5C503,30.694 472.306,0 434.5,0L68.5,0C30.694,0 0,30.694 0,68.5C0,106.306 30.694,137 68.5,137L434.5,137C472.306,137 503,106.306 503,68.5ZM498.573,68.5C498.573,103.863 469.863,132.573 434.5,132.573C434.5,132.573 68.5,132.573 68.5,132.573C33.137,132.573 4.427,103.863 4.427,68.5C4.427,33.137 33.137,4.427 68.5,4.427L434.5,4.427C469.863,4.427 498.573,33.137 498.573,68.5Z" style="fill:white;"/>
    <g transform="matrix(0.184836,0,0,0.184836,253.476,85.6218)">
        <g id="BUTTON-BUY-TICKETS" serif:id="BUTTON BUY TICKETS">
            <g id="buy-tickets-now" serif:id="buy tickets now">
                <path d="M-1020.95,0L-961.887,0C-953.449,0 -945.617,-1.074 -938.391,-3.223C-931.164,-5.371 -924.934,-8.555 -919.699,-12.773C-914.465,-16.914 -910.363,-22.07 -907.395,-28.242C-904.426,-34.414 -902.981,-41.563 -903.059,-49.688C-903.059,-54.297 -903.703,-58.691 -904.992,-62.871C-906.281,-67.051 -908.176,-70.859 -910.676,-74.297C-913.098,-77.5 -916.106,-80.371 -919.699,-82.91C-923.293,-85.449 -927.629,-87.383 -932.707,-88.711L-932.707,-88.945C-929.27,-90.352 -926.242,-91.934 -923.625,-93.691C-921.008,-95.449 -918.645,-97.5 -916.535,-99.844C-913.566,-103.047 -911.281,-106.738 -909.68,-110.918C-908.078,-115.098 -907.238,-119.609 -907.16,-124.453C-907.16,-132.422 -908.664,-139.316 -911.672,-145.137C-914.68,-150.957 -918.84,-155.742 -924.152,-159.492C-929.465,-163.242 -935.754,-166.035 -943.02,-167.871C-950.285,-169.707 -958.059,-170.625 -966.34,-170.625L-1020.95,-170.625L-1020.95,0ZM-992.59,-77.109L-960.246,-77.109C-955.637,-77.031 -951.535,-76.348 -947.941,-75.059C-944.348,-73.77 -941.301,-71.953 -938.801,-69.609C-936.301,-67.266 -934.426,-64.434 -933.176,-61.113C-931.926,-57.793 -931.301,-53.984 -931.301,-49.688C-931.301,-45.625 -932.063,-41.934 -933.586,-38.613C-935.109,-35.293 -937.277,-32.5 -940.09,-30.234C-942.668,-28.047 -945.793,-26.328 -949.465,-25.078C-953.137,-23.828 -957.199,-23.203 -961.652,-23.203L-992.59,-23.203L-992.59,-77.109ZM-992.59,-98.555L-992.59,-147.305L-965.988,-147.305C-961.145,-147.227 -956.731,-146.66 -952.746,-145.605C-948.762,-144.551 -945.441,-142.852 -942.785,-140.508C-940.441,-138.633 -938.625,-136.23 -937.336,-133.301C-936.047,-130.371 -935.402,-126.914 -935.402,-122.93C-935.402,-119.18 -936.106,-115.859 -937.512,-112.969C-938.918,-110.078 -940.832,-107.617 -943.254,-105.586C-945.91,-103.32 -949.172,-101.602 -953.039,-100.43C-956.906,-99.258 -961.145,-98.633 -965.754,-98.555L-992.59,-98.555Z" style="fill:rgb(243,245,239);fill-rule:nonzero;"/>
                <path d="M-771.715,-170.625L-799.488,-170.625L-799.723,-56.484C-799.879,-51.172 -800.582,-46.309 -801.832,-41.895C-803.082,-37.48 -804.918,-33.672 -807.34,-30.469C-809.762,-27.344 -812.75,-24.941 -816.305,-23.262C-819.859,-21.582 -823.941,-20.742 -828.551,-20.742C-833.082,-20.742 -837.047,-21.582 -840.445,-23.262C-843.844,-24.941 -846.715,-27.266 -849.059,-30.234C-851.481,-33.359 -853.316,-37.168 -854.566,-41.66C-855.816,-46.152 -856.481,-51.094 -856.559,-56.484L-856.793,-170.625L-884.566,-170.625L-884.801,-56.484C-884.723,-47.656 -883.336,-39.609 -880.641,-32.344C-877.945,-25.078 -874.137,-18.867 -869.215,-13.711C-864.371,-8.555 -858.512,-4.59 -851.637,-1.816C-844.762,0.957 -837.066,2.344 -828.551,2.344C-819.879,2.344 -812.047,0.937 -805.055,-1.875C-798.063,-4.688 -792.066,-8.672 -787.066,-13.828C-782.145,-18.984 -778.336,-25.176 -775.641,-32.402C-772.945,-39.629 -771.598,-47.656 -771.598,-56.484L-771.715,-170.625Z" style="fill:rgb(243,245,239);fill-rule:nonzero;"/>
                <path d="M-689.707,-89.063L-725.566,-170.625L-756.856,-170.625L-703.887,-61.758L-703.77,0L-676.231,0L-675.996,-60.938L-622.559,-170.625L-653.965,-170.625L-689.707,-89.063Z" style="fill:rgb(243,245,239);fill-rule:nonzero;"/>
                <path d="M-347.566,-147.305L-347.566,-170.625L-480.457,-170.625L-480.457,-147.305L-428.191,-147.305L-428.191,0L-400.184,0L-400.184,-147.305L-347.566,-147.305Z" style="fill:rgb(243,245,239);fill-rule:nonzero;"/>
                <path d="M-326.379,-170.625L-326.379,-147.305L-290.754,-147.305L-290.754,-23.203L-326.379,-23.203L-326.379,0L-225.832,0L-225.832,-23.203L-262.277,-23.203L-262.277,-147.305L-225.832,-147.305L-225.832,-170.625L-326.379,-170.625Z" style="fill:rgb(243,245,239);fill-rule:nonzero;"/>
                <path d="M-77.379,-52.5L-105.621,-52.5C-106.09,-47.344 -107.105,-42.773 -108.668,-38.789C-110.23,-34.805 -112.301,-31.484 -114.879,-28.828C-117.535,-26.094 -120.738,-24.023 -124.488,-22.617C-128.238,-21.211 -132.535,-20.508 -137.379,-20.508C-141.441,-20.508 -145.055,-21.074 -148.219,-22.207C-151.383,-23.34 -154.176,-25 -156.598,-27.188C-158.941,-29.219 -160.953,-31.641 -162.633,-34.453C-164.313,-37.266 -165.699,-40.391 -166.793,-43.828C-168.199,-47.969 -169.234,-52.539 -169.898,-57.539C-170.563,-62.539 -170.895,-67.891 -170.895,-73.594L-170.895,-97.148C-170.895,-101.758 -170.641,-106.27 -170.133,-110.684C-169.625,-115.098 -168.863,-119.258 -167.848,-123.164C-166.52,-127.617 -164.82,-131.66 -162.75,-135.293C-160.68,-138.926 -158.082,-141.875 -154.957,-144.141C-152.691,-146.016 -150.094,-147.461 -147.164,-148.477C-144.234,-149.492 -140.934,-150 -137.262,-150C-132.027,-150 -127.535,-149.238 -123.785,-147.715C-120.035,-146.191 -116.871,-143.984 -114.293,-141.094C-111.793,-138.203 -109.82,-134.707 -108.375,-130.605C-106.93,-126.504 -105.973,-121.914 -105.504,-116.836L-77.379,-116.836C-78.238,-125.352 -80.133,-133.086 -83.063,-140.039C-85.992,-146.992 -89.996,-152.93 -95.074,-157.852C-100.074,-162.695 -106.109,-166.445 -113.18,-169.102C-120.25,-171.758 -128.277,-173.086 -137.262,-173.086C-143.902,-173.086 -150.016,-172.188 -155.602,-170.391C-161.188,-168.594 -166.285,-166.094 -170.895,-162.891C-175.738,-159.375 -180.016,-155.137 -183.727,-150.176C-187.438,-145.215 -190.465,-139.688 -192.809,-133.594C-194.996,-128.125 -196.637,-122.305 -197.73,-116.133C-198.824,-109.961 -199.371,-103.555 -199.371,-96.914L-199.371,-73.594C-199.371,-66.641 -198.805,-59.961 -197.672,-53.555C-196.539,-47.148 -194.84,-41.211 -192.574,-35.742C-190.309,-30.195 -187.516,-25.098 -184.195,-20.449C-180.875,-15.801 -176.988,-11.836 -172.535,-8.555C-167.926,-5.039 -162.672,-2.324 -156.773,-0.41C-150.875,1.504 -144.41,2.461 -137.379,2.461C-128.785,2.461 -120.953,1.152 -113.883,-1.465C-106.813,-4.082 -100.699,-7.813 -95.543,-12.656C-90.465,-17.422 -86.363,-23.184 -83.238,-29.941C-80.113,-36.699 -78.16,-44.219 -77.379,-52.5Z" style="fill:rgb(243,245,239);fill-rule:nonzero;"/>
                <path d="M-7.91,-73.945L38.262,0L72.012,0L10.723,-95.508L69.082,-170.625L34.629,-170.625L-10.371,-111.094L-26.309,-90.352L-26.309,-170.625L-54.785,-170.625L-54.785,0L-26.309,0L-26.309,-53.32L-7.91,-73.945Z" style="fill:rgb(243,245,239);fill-rule:nonzero;"/>
                <path d="M183.785,-76.523L183.785,-99.258L113.238,-99.258L113.238,-147.305L195.035,-147.305L195.035,-170.625L84.996,-170.625L84.996,0L195.621,0L195.621,-23.203L113.238,-23.203L113.238,-76.523L183.785,-76.523Z" style="fill:rgb(243,245,239);fill-rule:nonzero;"/>
                <path d="M342.551,-147.305L342.551,-170.625L209.66,-170.625L209.66,-147.305L261.926,-147.305L261.926,0L289.934,0L289.934,-147.305L342.551,-147.305Z" style="fill:rgb(243,245,239);fill-rule:nonzero;"/>
                <path d="M448.465,-43.945C448.465,-40.195 447.664,-36.875 446.063,-33.984C444.461,-31.094 442.332,-28.672 439.676,-26.719C436.941,-24.688 433.719,-23.164 430.008,-22.148C426.297,-21.133 422.293,-20.625 417.996,-20.625C412.918,-20.625 408.25,-21.25 403.992,-22.5C399.734,-23.75 396.043,-25.664 392.918,-28.242C389.715,-30.742 387.195,-33.926 385.359,-37.793C383.523,-41.66 382.41,-46.211 382.02,-51.445L353.895,-51.445C353.973,-43.242 355.633,-35.977 358.875,-29.648C362.117,-23.32 366.512,-17.813 372.059,-13.125C378.074,-8.125 385.145,-4.316 393.27,-1.699C401.395,0.918 409.637,2.227 417.996,2.227C425.887,2.227 433.387,1.23 440.496,-0.762C447.606,-2.754 453.856,-5.742 459.246,-9.727C464.559,-13.555 468.797,-18.359 471.961,-24.141C475.125,-29.922 476.707,-36.602 476.707,-44.18C476.707,-52.383 474.891,-59.629 471.258,-65.918C467.625,-72.207 462.801,-77.617 456.785,-82.148C451.941,-85.742 446.648,-88.809 440.906,-91.348C435.164,-93.887 429.285,-96.016 423.27,-97.734C418.504,-99.141 413.953,-100.664 409.617,-102.305C405.281,-103.945 401.434,-105.859 398.074,-108.047C394.793,-110.234 392.176,-112.793 390.223,-115.723C388.27,-118.652 387.254,-122.07 387.176,-125.977C387.176,-129.648 387.918,-132.969 389.402,-135.938C390.887,-138.906 392.957,-141.445 395.613,-143.555C398.27,-145.586 401.414,-147.168 405.047,-148.301C408.68,-149.434 412.645,-150 416.941,-150C421.863,-150 426.219,-149.277 430.008,-147.832C433.797,-146.387 437.02,-144.414 439.676,-141.914C442.254,-139.336 444.266,-136.27 445.711,-132.715C447.156,-129.16 448.074,-125.234 448.465,-120.938L476.356,-120.938C476.356,-128.672 474.813,-135.723 471.727,-142.09C468.641,-148.457 464.441,-153.945 459.129,-158.555C453.816,-163.086 447.586,-166.621 440.438,-169.16C433.289,-171.699 425.574,-172.969 417.293,-172.969C409.481,-172.969 402.039,-171.895 394.969,-169.746C387.898,-167.598 381.707,-164.492 376.395,-160.43C371.082,-156.289 366.863,-151.309 363.738,-145.488C360.613,-139.668 359.051,-133.125 359.051,-125.859C359.051,-119.141 360.398,-113.105 363.094,-107.754C365.789,-102.402 369.52,-97.617 374.285,-93.398C379.051,-89.258 384.813,-85.527 391.57,-82.207C398.328,-78.887 405.731,-76.094 413.777,-73.828C419.012,-72.344 423.758,-70.684 428.016,-68.848C432.273,-67.012 435.965,-64.961 439.09,-62.695C442.059,-60.273 444.363,-57.539 446.004,-54.492C447.645,-51.445 448.465,-47.93 448.465,-43.945Z" style="fill:rgb(243,245,239);fill-rule:nonzero;"/>
                <path d="M745.723,0L745.723,-170.625L717.363,-170.625L717.129,-53.672L662.051,-170.625L633.457,-170.625L633.457,0L661.934,0L662.051,-117.422L717.481,0L745.723,0Z" style="fill:rgb(243,245,239);fill-rule:nonzero;"/>
                <path d="M889.254,-73.945L889.254,-96.445C889.254,-103.555 888.629,-110.41 887.379,-117.012C886.129,-123.613 884.254,-129.805 881.754,-135.586C879.488,-140.977 876.676,-145.938 873.316,-150.469C869.957,-155 866.012,-158.945 861.481,-162.305C856.949,-165.664 851.832,-168.281 846.129,-170.156C840.426,-172.031 834.176,-172.969 827.379,-172.969C820.66,-172.969 814.508,-172.051 808.922,-170.215C803.336,-168.379 798.356,-165.781 793.981,-162.422C789.449,-158.984 785.524,-154.941 782.203,-150.293C778.883,-145.645 776.09,-140.547 773.824,-135C771.481,-129.219 769.723,-123.086 768.551,-116.602C767.379,-110.117 766.793,-103.398 766.793,-96.445L766.793,-73.945C766.793,-67.305 767.34,-60.84 768.434,-54.551C769.527,-48.262 771.168,-42.344 773.356,-36.797C775.621,-31.016 778.453,-25.703 781.852,-20.859C785.25,-16.016 789.215,-11.875 793.746,-8.438C798.199,-5.078 803.258,-2.441 808.922,-0.527C814.586,1.387 820.816,2.344 827.613,2.344C834.176,2.344 840.211,1.445 845.719,-0.352C851.227,-2.148 856.246,-4.609 860.777,-7.734C865.465,-11.172 869.606,-15.293 873.199,-20.098C876.793,-24.902 879.801,-30.156 882.223,-35.859C884.488,-41.563 886.227,-47.617 887.438,-54.023C888.649,-60.43 889.254,-67.07 889.254,-73.945ZM860.895,-96.68L860.895,-73.945C860.816,-69.727 860.563,-65.566 860.133,-61.465C859.703,-57.363 859.02,-53.438 858.082,-49.688C856.988,-45.391 855.524,-41.465 853.688,-37.91C851.852,-34.355 849.566,-31.289 846.832,-28.711C844.488,-26.445 841.695,-24.648 838.453,-23.32C835.211,-21.992 831.598,-21.328 827.613,-21.328C823.473,-21.328 819.82,-22.012 816.656,-23.379C813.492,-24.746 810.699,-26.602 808.277,-28.945C805.777,-31.445 803.649,-34.512 801.891,-38.145C800.133,-41.777 798.746,-45.703 797.731,-49.922C796.793,-53.672 796.129,-57.578 795.738,-61.641C795.348,-65.703 795.152,-69.805 795.152,-73.945L795.152,-96.68C795.152,-100.898 795.367,-105.098 795.797,-109.277C796.227,-113.457 796.91,-117.422 797.848,-121.172C798.863,-125.547 800.309,-129.512 802.184,-133.066C804.059,-136.621 806.363,-139.688 809.098,-142.266C811.363,-144.375 814.02,-146.035 817.066,-147.246C820.113,-148.457 823.551,-149.063 827.379,-149.063C831.363,-149.063 834.918,-148.438 838.043,-147.188C841.168,-145.938 843.941,-144.219 846.363,-142.031C849.098,-139.531 851.422,-136.504 853.336,-132.949C855.25,-129.395 856.793,-125.469 857.965,-121.172C858.981,-117.422 859.703,-113.477 860.133,-109.336C860.563,-105.195 860.816,-100.977 860.895,-96.68Z" style="fill:rgb(243,245,239);fill-rule:nonzero;"/>
                <path d="M921.809,0L948.41,0L965.52,-104.414L966.809,-112.5L967.981,-104.414L985.324,0L1011.93,0L1034.43,-170.625L1008.18,-170.625L996.34,-65.859L995.52,-58.711L994.348,-65.742L977.356,-170.625L955.793,-170.625L939.387,-66.211L938.215,-59.18L937.395,-65.859L925.676,-170.625L899.543,-170.625L921.809,0Z" style="fill:rgb(243,245,239);fill-rule:nonzero;"/>
            </g>
        </g>
    </g>
    <defs>
        <linearGradient id="_Linear1" x1="0" y1="0" x2="1" y2="0" gradientUnits="userSpaceOnUse" gradientTransform="matrix(7.95552e-15,129.924,-129.924,7.95552e-15,374.457,3)"><stop offset="0" style="stop-color:rgb(107,113,127);stop-opacity:1"/><stop offset="0.36" style="stop-color:rgb(105,111,125);stop-opacity:1"/><stop offset="1" style="stop-color:rgb(52,55,61);stop-opacity:1"/></linearGradient>
    </defs>
</svg>
