<svg xmlns="http://www.w3.org/2000/svg" xmlns:xlink="http://www.w3.org/1999/xlink" id="Layer_1" x="0px" y="0px" viewBox="0 0 180 50" style="enable-background:new 0 0 180 50;" xml:space="preserve"><style type="text/css">	.st0{fill:#FFFFFF;}</style><g>	<g>		<path class="st0" d="M1.8,27V1.1h9.1c4.4,0,7.6,1.1,9.7,3.3c2.1,2.2,3.1,5.3,3.1,9.3c0,4.1-1.1,7.4-3.4,9.8   c-2.3,2.4-5.6,3.5-10.1,3.6L1.8,27z M10,22.6c2.9,0,4.9-0.8,6.2-2.2c1.3-1.5,1.9-3.6,1.9-6.4c0-3.1-0.6-5.3-1.8-6.5   c-1.2-1.3-3.1-1.9-5.8-1.9H7.3v17L10,22.6z"></path>		<path class="st0" d="M26.4,14.1c0-4,1.1-7.2,3.3-9.8C31.9,1.9,35,0.6,39,0.6c4,0,6.9,1.2,8.9,3.6c2,2.4,3,5.5,3,9.4   c0,4.3-1,7.7-3.1,10.1c-2.1,2.4-5.2,3.6-9.3,3.6s-7.1-1.2-9.1-3.6C27.4,21.4,26.4,18.2,26.4,14.1L26.4,14.1z M38.7,22.7   c4.4,0,6.5-2.9,6.5-8.8c0-5.8-2.1-8.7-6.3-8.7c-2.1,0-3.8,0.7-5,2.2c-1.2,1.5-1.8,3.7-1.8,6.6C32.1,19.8,34.3,22.7,38.7,22.7   L38.7,22.7z"></path>		<path class="st0" d="M69.8,27l-10-18.3V27h-5V1.1h6.6l9.8,18.3V1.1h5V27H69.8z"></path>		<path class="st0" d="M93.1,12.2l10-11.1h5.9l-9.5,10.8l9.3,15.1h-6.4l-6.8-10.8l-2.5,2.7V27h-5.5V1.1h5.5V12.2z"></path>		<path class="st0" d="M111.8,27V1.1H122c5.2,0,7.8,2.1,7.8,6.3c0,1.6-0.5,2.9-1.4,3.9c-1,1-2.1,1.7-3.5,2.1v0.1c4,0.5,6,2.6,6,6.3   c0,4.8-3.3,7.1-9.8,7.1H111.8z M120.1,22.7c1.7,0,2.9-0.3,3.8-0.7c0.8-0.5,1.3-1.4,1.3-2.7c0-1.3-0.4-2.2-1.2-2.7   c-0.8-0.5-1.9-0.7-3.3-0.7h-3.4v6.8L120.1,22.7z M119.3,11.8c0.8,0,1.4,0,1.9-0.1c0.5-0.1,1.1-0.2,1.6-0.4   c0.5-0.2,0.9-0.6,1.2-1.1c0.3-0.5,0.4-1.1,0.4-1.8c0-1.3-0.4-2.1-1.1-2.4c-0.7-0.4-1.8-0.5-3.3-0.5h-2.9v6.4L119.3,11.8z"></path>		<path class="st0" d="M154.5,27h-5.9l-5.1-9.8h-3.5V27h-5.5V1.1h10.1c3,0,5.2,0.7,6.5,2s2,3.1,2,5.2c0,3.6-1.5,6-4.5,7.4L154.5,27z    M142.8,12.8c3.1,0,4.7-1.3,4.7-3.9c0-1.2-0.4-2.1-1.1-2.6s-1.9-0.8-3.4-0.8h-3v7.3H142.8z"></path>		<path class="st0" d="M172.4,27l-10-18.3V27h-5V1.1h6.6l9.8,18.3V1.1h5V27H172.4z"></path>	</g>	<g>		<path class="st0" d="M4.6,37l1.3,9.8l1.6-12.1c0.1-1.1,0.5-1.6,1-1.6c0.6,0,0.9,0.5,1,1.4L11,46.9l1.3-9.6   c0.1-0.7,0.1-1.2,0.1-1.6c0-0.6-0.2-1-0.6-1c-0.1,0-0.2,0-0.4,0s-0.3,0-0.4,0c-0.4,0-0.7-0.3-0.7-0.8c0-0.5,0.2-0.8,0.6-0.8   c0.2,0,0.3,0,0.5,0c0.8,0.2,1.4,0.2,1.7,0.2c0.2,0,0.5,0,0.9-0.1s0.7-0.1,0.9-0.1c0.4,0,0.6,0.3,0.6,0.8c0,0.5-0.2,0.8-0.6,0.8   c-0.1,0-0.2,0-0.3-0.1c-0.1,0-0.2-0.1-0.3-0.1c-0.2,0-0.4,0.1-0.5,0.4c-0.1,0.2-0.2,0.8-0.3,1.7L12,47.9c-0.1,0.9-0.4,1.3-0.9,1.3   c-0.5,0-0.9-0.5-1-1.6L8.5,35.3L6.8,47.9c-0.1,0.8-0.4,1.3-0.9,1.3c-0.5,0-0.8-0.4-0.9-1.3L3.2,36.3c-0.1-0.6-0.2-1-0.3-1.2   s-0.4-0.3-0.6-0.3H2.1l-0.3,0.1c-0.3,0-0.5-0.3-0.5-0.8c0-0.5,0.2-0.8,0.5-0.8c0.1,0,0.3,0,0.5,0.1c0.6,0.1,1.1,0.2,1.6,0.2   c0.2,0,0.8-0.1,1.7-0.2c0.2,0,0.3,0,0.4,0c0.4,0,0.6,0.3,0.6,0.8c0,0.6-0.2,0.8-0.7,0.8c-0.1,0-0.2,0-0.4,0c-0.2,0-0.3,0-0.4,0   c-0.4,0-0.5,0.3-0.5,0.8c0,0.2,0,0.4,0,0.6L4.6,37z"></path>		<path class="st0" d="M20.1,49.4c-1.4,0-2.4-0.7-3.2-2.2s-1.2-3.5-1.2-6c0-2.6,0.4-4.6,1.2-6c0.8-1.5,1.9-2.2,3.3-2.2   c1.3,0,2.4,0.7,3.2,2.1c0.8,1.4,1.2,3.4,1.2,5.8c0,2.6-0.4,4.7-1.2,6.3C22.6,48.6,21.5,49.4,20.1,49.4z M20.1,34.5   c-1,0-1.7,0.6-2.3,1.7C17.3,37.4,17,39,17,41.1c0,2.1,0.3,3.7,0.8,4.9c0.5,1.2,1.3,1.7,2.3,1.7c0.9,0,1.7-0.6,2.3-1.8   s0.8-2.8,0.8-4.9c0-2.1-0.3-3.7-0.8-4.8C21.9,35.1,21.1,34.5,20.1,34.5z"></path>		<path class="st0" d="M33.3,40.3c-0.3,0.2-0.7,0.4-1.1,0.6c0.6,0.2,1,0.5,1.2,1s0.3,1.3,0.3,2.5v1.1c0,0.1,0,0.2,0,0.3   c0,1.1,0.2,1.7,0.7,1.7c0.5,0,0.7-0.7,0.7-2v-0.7v-0.6v-0.3c0-0.4,0-0.8,0.1-0.9c0.1-0.3,0.2-0.4,0.5-0.4c0.4,0,0.6,0.3,0.6,1   c0,0,0,0.2,0,0.5v0.5c0,0.3,0,0.5,0,0.6v0.6c0,0.1,0,0.2,0,0.4c0,0.9-0.2,1.6-0.5,2.1C35.4,48.7,35,49,34.4,49   c-1.2,0-1.8-0.9-1.8-2.8v-0.7v-0.8v-0.5c0-1-0.1-1.7-0.4-2.1c-0.3-0.3-0.8-0.5-1.6-0.5h-1.4c-0.3,0-0.5,0.3-0.5,0.9v1.8   c0,1.1,0,1.8,0,2c0.1,0.8,0.3,1.2,0.8,1.2c0.1,0,0.2,0,0.3,0c0.2,0,0.3,0,0.4,0c0.3,0,0.5,0.3,0.5,0.8c0,0.5-0.2,0.8-0.7,0.8   l-0.2,0L29,48.8c-0.3-0.1-0.6-0.1-0.8-0.1c-0.3,0-0.7,0-1.1,0.1l-0.7,0.1c-0.2,0-0.2,0-0.2,0c-0.4,0-0.7-0.3-0.7-0.8   c0-0.5,0.2-0.7,0.5-0.7c0.1,0,0.2,0,0.4,0c0.1,0,0.2,0.1,0.3,0.1c0.5,0,0.8-0.6,0.8-1.7v-9.3c0-1.2-0.3-1.7-0.8-1.7   c-0.1,0-0.2,0-0.4,0c-0.2,0-0.3,0-0.4,0c-0.1,0-0.2-0.1-0.3-0.2s-0.1-0.3-0.1-0.5c0-0.5,0.2-0.8,0.7-0.8c0,0,0.1,0,0.2,0l0.8,0.1   c0.2,0,0.5,0,0.8,0c0.3,0,0.7,0,1.1,0l1.2-0.1c0.4,0,0.7,0,1.1,0c2.2,0,3.4,1.3,3.4,3.9C34.5,38.7,34.1,39.7,33.3,40.3z    M29.1,40.1h1.4c0.9,0,1.5-0.2,1.9-0.6c0.5-0.4,0.8-1.2,0.8-2.3c0-1.8-0.8-2.6-2.4-2.6c-0.8,0-1.4,0.1-1.7,0.3s-0.5,0.6-0.5,1.1   v0.7v2.7c0,0.3,0,0.4,0.1,0.5C28.8,40.1,28.9,40.1,29.1,40.1z"></path>		<path class="st0" d="M39.8,45.5c0,0.9,0.1,1.4,0.2,1.6c0.1,0.1,0.2,0.2,0.4,0.3c0.1,0,0.5,0,1,0h1.3c0.7,0,1.2-0.1,1.4-0.4   c0.2-0.3,0.4-0.9,0.4-1.7c0-0.2,0-0.5,0-0.8c0-0.6,0-1,0-1.1c0-0.7,0.2-1,0.5-1c0.4,0,0.6,0.3,0.6,0.9c0,0.2,0,0.3,0,0.4l-0.1,1.2   c0,0.3,0,0.7,0,1.1c0,0.2,0,0.5,0,1c0,0.4,0,0.7,0,1c0,0.7-0.3,1-0.8,1c-0.1,0-0.3,0-0.7-0.1c-0.2,0-0.6-0.1-1.1-0.1h-1.1h-2.4   c-0.2,0-0.7,0-1.2,0.1c-0.1,0-0.2,0-0.4,0c-0.2,0-0.4,0-0.5,0c-0.4,0-0.6-0.3-0.6-0.8c0-0.5,0.2-0.7,0.5-0.7c0.1,0,0.2,0,0.4,0.1   c0.2,0,0.3,0.1,0.4,0.1c0.5,0,0.8-0.6,0.8-1.7v-9.3c0-1.1-0.3-1.7-0.8-1.7c-0.1,0-0.2,0-0.3,0c-0.2,0-0.3,0.1-0.4,0.1   c-0.1,0-0.2-0.1-0.3-0.2c-0.1-0.1-0.1-0.3-0.1-0.5c0-0.5,0.2-0.8,0.7-0.8c0.1,0,0.1,0,0.2,0l0.8,0.1c0.4,0.1,0.8,0.1,1,0.1   c0.3,0,0.6,0,1-0.1l0.7-0.1c0.1,0,0.1,0,0.2,0c0.5,0,0.7,0.3,0.7,0.8c0,0.2,0,0.4-0.1,0.5c-0.1,0.1-0.2,0.2-0.3,0.2   c-0.1,0-0.2,0-0.4-0.1c-0.1,0-0.2,0-0.3,0c-0.5,0-0.8,0.6-0.8,1.7V45.5z"></path>		<path class="st0" d="M48.3,36.5c0-1.2-0.3-1.7-0.8-1.7c-0.1,0-0.2,0-0.3,0c-0.2,0-0.3,0.1-0.4,0.1c-0.3,0-0.5-0.2-0.5-0.7   c0-0.5,0.2-0.8,0.7-0.8c0.1,0,0.1,0,0.2,0l0.8,0.2c0.3,0.1,0.6,0.1,1,0.1c0.3,0,0.6,0,0.9-0.1l1-0.2c0.2,0,0.4,0,0.8,0   c0.9,0,1.7,0.2,2.3,0.6c0.8,0.5,1.5,1.4,1.9,2.7c0.5,1.3,0.7,2.8,0.7,4.5c0,1.5-0.2,2.9-0.6,4.1c-0.4,1.2-0.9,2.1-1.5,2.7   c-0.8,0.7-1.7,1-2.8,1c-0.2,0-0.5,0-0.7,0l-1.1-0.1c-0.4,0-0.7-0.1-1.1-0.1c-0.3,0-0.6,0-0.8,0.1L47.2,49c0,0-0.1,0-0.1,0   C47,49,47,49,47,49c-0.4,0-0.7-0.3-0.7-0.8c0-0.2,0-0.4,0.1-0.5c0.1-0.1,0.2-0.2,0.3-0.2c0.1,0,0.3,0,0.4,0.1c0.1,0,0.2,0,0.3,0   c0.5,0,0.8-0.6,0.8-1.7V36.5z M49.6,36.2V46c0,0.7,0.2,1.1,0.7,1.3c0.2,0.1,0.6,0.1,1.3,0.1c1.2,0,2.1-0.5,2.7-1.5   c0.7-1.2,1-2.8,1-4.8c0-1.5-0.2-2.9-0.6-3.9c-0.4-1.1-1-1.8-1.7-2.1c-0.4-0.2-1-0.3-1.6-0.3c-0.8,0-1.3,0.1-1.5,0.2   C49.7,35.2,49.6,35.6,49.6,36.2z"></path>		<path class="st0" d="M66.4,45.8c0,1.2,0.3,1.7,0.8,1.7c0.1,0,0.2,0,0.4,0s0.3,0,0.4,0c0.1,0,0.2,0.1,0.3,0.2   c0.1,0.1,0.1,0.3,0.1,0.5c0,0.5-0.2,0.8-0.7,0.8c0,0-0.1,0-0.1,0c-0.1,0-0.1,0-0.1,0l-0.7-0.2c-0.3-0.1-0.6-0.1-1-0.1   c-0.4,0-0.7,0-1,0.1L64,49c0,0-0.1,0-0.1,0c-0.1,0-0.1,0-0.1,0c-0.4,0-0.7-0.3-0.7-0.8c0-0.5,0.2-0.7,0.5-0.7c0.1,0,0.2,0,0.4,0   s0.3,0,0.4,0c0.5,0,0.8-0.6,0.8-1.7v-1.6v-2v-2v-3.8c0-1.1-0.4-1.6-1.1-1.6h-0.5c-0.7,0-1.1,0.5-1.1,1.6c0,0.4,0,0.6,0,0.8   l0.1,0.9c0,0.1,0,0.3,0,0.6c0,1-0.2,1.5-0.6,1.5c-0.4,0-0.6-0.4-0.6-1.1c0-0.2,0-0.5,0-1c0-0.7,0-1.2,0-1.4c0-0.4,0-0.8,0-1.2   c0-0.8-0.1-1.2-0.1-1c0-0.7,0.2-1,0.6-1c0.1,0,0.5,0,1,0.1c0.1,0,0.5,0,1.3,0.1h1.7c0.2,0,0.7,0,1.6,0c0.2,0,0.5,0,1-0.1   c0.4,0,0.7-0.1,1-0.1c0.5,0,0.8,0.3,0.8,1v0c0,0.2,0,0.4,0,0.9s-0.1,0.9-0.1,1.3v0.3c0,0.2,0,0.6,0,1.1c0,0.6,0.1,1.1,0.1,1.2   c0,0.6-0.2,1-0.6,1c-0.4,0-0.6-0.4-0.6-1.2c0-0.3,0-0.7,0-1.2c0-0.6,0-1,0-1.2c0-1.1-0.4-1.6-1.2-1.6h-0.4c-0.4,0-0.6,0.1-0.8,0.4   c-0.2,0.2-0.3,0.6-0.3,1.2l-0.1,1.6V45.8z"></path>		<path class="st0" d="M75.7,49.4c-1.4,0-2.4-0.7-3.2-2.2s-1.2-3.5-1.2-6c0-2.6,0.4-4.6,1.2-6c0.8-1.5,1.9-2.2,3.3-2.2   c1.3,0,2.4,0.7,3.2,2.1c0.8,1.4,1.2,3.4,1.2,5.8c0,2.6-0.4,4.7-1.2,6.3C78.1,48.6,77.1,49.4,75.7,49.4z M75.7,34.5   c-1,0-1.7,0.6-2.3,1.7c-0.5,1.1-0.8,2.8-0.8,4.8c0,2.1,0.3,3.7,0.8,4.9c0.5,1.2,1.3,1.7,2.3,1.7c0.9,0,1.7-0.6,2.3-1.8   s0.8-2.8,0.8-4.9c0-2.1-0.3-3.7-0.8-4.8C77.5,35.1,76.7,34.5,75.7,34.5z"></path>		<path class="st0" d="M83.9,37v1.5l-0.1,1.9v3.6c0,1.1,0.1,1.9,0.2,2.4c0.2,0.5,0.5,0.9,0.9,1.2c0.4,0.3,0.8,0.4,1.3,0.4   c0.6,0,1-0.2,1.4-0.5c0.4-0.3,0.7-0.8,0.8-1.3c0.1-0.5,0.2-1.3,0.2-2.1v-6c0-1.2,0-1.8,0-2c-0.1-0.8-0.3-1.2-0.8-1.2   c-0.1,0-0.2,0-0.3,0c-0.2,0-0.3,0.1-0.4,0.1c-0.1,0-0.2-0.1-0.3-0.2c-0.1-0.2-0.1-0.3-0.1-0.5c0-0.5,0.2-0.8,0.7-0.8   c0.1,0,0.1,0,0.2,0l0.9,0.2c0.2,0,0.5,0.1,0.8,0.1c0.3,0,0.5,0,0.7-0.1l0.7-0.2c0.2,0,0.3-0.1,0.4-0.1c0.4,0,0.6,0.3,0.6,0.8   c0,0.5-0.2,0.8-0.6,0.8h-0.2c0,0-0.1,0-0.2,0c-0.3,0-0.5,0.2-0.6,0.7c-0.1,0.5-0.1,1.7-0.1,3.6v4c0,1,0,1.7-0.1,2.2   c-0.1,0.8-0.3,1.4-0.5,2c-0.6,1.3-1.6,2-3.1,2c-1.8,0-3-0.9-3.5-2.7c-0.2-0.5-0.2-1.4-0.2-2.5c0-0.6,0-1.4,0-2.5   c0-1.1,0-1.9,0-2.5V38c0-1.1,0-1.8,0-1.9c-0.1-0.8-0.3-1.3-0.6-1.3c0,0-0.1,0-0.1,0c-0.1,0-0.1,0-0.1,0c0,0-0.1,0-0.2,0   c-0.4,0-0.6-0.3-0.6-0.8c0-0.5,0.2-0.8,0.6-0.8c0.2,0,0.3,0,0.5,0.1c0.5,0.1,1,0.2,1.4,0.2c0.4,0,0.9-0.1,1.5-0.2   c0.1,0,0.3,0,0.4,0c0.4,0,0.6,0.3,0.6,0.8c0,0.5-0.2,0.8-0.5,0.8c-0.1,0-0.2,0-0.4-0.1c-0.2,0-0.3-0.1-0.4-0.1   c-0.3,0-0.5,0.3-0.7,0.8C83.9,35.8,83.9,36.3,83.9,37z"></path>		<path class="st0" d="M99.8,40.3c-0.3,0.2-0.7,0.4-1.1,0.6c0.6,0.2,1,0.5,1.2,1s0.3,1.3,0.3,2.5v1.1c0,0.1,0,0.2,0,0.3   c0,1.1,0.2,1.7,0.7,1.7c0.5,0,0.7-0.7,0.7-2v-0.7v-0.6v-0.3c0-0.4,0-0.8,0.1-0.9c0.1-0.3,0.2-0.4,0.5-0.4c0.4,0,0.6,0.3,0.6,1   c0,0,0,0.2,0,0.5v0.5c0,0.3,0,0.5,0,0.6v0.6c0,0.1,0,0.2,0,0.4c0,0.9-0.2,1.6-0.5,2.1c-0.3,0.5-0.8,0.8-1.4,0.8   c-1.2,0-1.8-0.9-1.8-2.8v-0.7v-0.8v-0.5c0-1-0.1-1.7-0.4-2.1c-0.3-0.3-0.8-0.5-1.6-0.5h-1.4c-0.3,0-0.5,0.3-0.5,0.9v1.8   c0,1.1,0,1.8,0,2c0.1,0.8,0.3,1.2,0.8,1.2c0.1,0,0.2,0,0.3,0c0.2,0,0.3,0,0.4,0c0.3,0,0.5,0.3,0.5,0.8c0,0.5-0.2,0.8-0.7,0.8   l-0.2,0l-0.8-0.2c-0.3-0.1-0.6-0.1-0.8-0.1c-0.3,0-0.7,0-1.1,0.1l-0.7,0.1c-0.2,0-0.2,0-0.2,0c-0.4,0-0.7-0.3-0.7-0.8   c0-0.5,0.2-0.7,0.5-0.7c0.1,0,0.2,0,0.4,0c0.1,0,0.2,0.1,0.3,0.1c0.5,0,0.8-0.6,0.8-1.7v-9.3c0-1.2-0.3-1.7-0.8-1.7   c-0.1,0-0.2,0-0.4,0c-0.2,0-0.3,0-0.4,0c-0.1,0-0.2-0.1-0.3-0.2s-0.1-0.3-0.1-0.5c0-0.5,0.2-0.8,0.7-0.8c0,0,0.1,0,0.2,0l0.8,0.1   c0.2,0,0.5,0,0.8,0c0.3,0,0.7,0,1.1,0l1.2-0.1c0.4,0,0.7,0,1.1,0c2.2,0,3.4,1.3,3.4,3.9C100.9,38.7,100.6,39.7,99.8,40.3z    M95.6,40.1H97c0.9,0,1.5-0.2,1.9-0.6c0.5-0.4,0.8-1.2,0.8-2.3c0-1.8-0.8-2.6-2.4-2.6c-0.8,0-1.4,0.1-1.7,0.3s-0.5,0.6-0.5,1.1   v0.7v2.7c0,0.3,0,0.4,0.1,0.5C95.3,40.1,95.4,40.1,95.6,40.1z"></path>	</g></g></svg>