<?xml version="1.0" encoding="UTF-8" standalone="no"?>
<!DOCTYPE svg PUBLIC "-//W3C//DTD SVG 1.1//EN" "http://www.w3.org/Graphics/SVG/1.1/DTD/svg11.dtd">
<svg width="100%" height="100%" viewBox="0 0 512 512" version="1.1" xmlns="http://www.w3.org/2000/svg" xmlns:xlink="http://www.w3.org/1999/xlink" xml:space="preserve" xmlns:serif="http://www.serif.com/" style="fill-rule:evenodd;clip-rule:evenodd;stroke-linejoin:round;stroke-miterlimit:2;">
    <path d="M256,4.3C117,4.3 4.3,117 4.3,256C4.3,395 117,507.7 256,507.7C395,507.7 507.7,395 507.7,256C507.7,117 395,4.3 256,4.3ZM322.354,91.813L189.646,91.813C135.996,91.854 91.862,135.989 91.821,189.639L91.821,322.346C91.854,376.002 135.991,420.146 189.646,420.187L322.354,420.187C376.006,420.138 420.138,375.999 420.179,322.346L420.179,189.639C420.155,135.983 376.01,91.838 322.354,91.813ZM387.163,322.346C387.155,357.896 357.904,387.147 322.354,387.155L189.646,387.155C154.101,387.155 124.852,357.906 124.852,322.361L124.852,189.624C124.852,154.087 154.095,124.845 189.631,124.845L322.354,124.845C357.896,124.853 387.14,154.097 387.148,189.639L387.163,322.346ZM256.007,171.101C209.169,171.101 171.108,209.177 171.108,256C171.108,302.823 209.184,340.899 256.007,340.899C302.831,340.899 340.907,302.823 340.907,256C340.907,209.177 302.845,171.101 256.007,171.101ZM256.007,307.868C256.005,307.868 256.002,307.868 256,307.868C227.546,307.868 204.132,284.454 204.132,256C204.132,227.549 227.541,204.136 255.993,204.132C255.995,204.132 255.998,204.132 256,204.132C284.454,204.132 307.868,227.546 307.868,256C307.868,284.451 284.459,307.864 256.007,307.868ZM341.086,151.383C352.241,151.391 361.415,160.573 361.415,171.727C361.415,182.888 352.232,192.072 341.071,192.072C329.916,192.072 320.735,182.897 320.727,171.742C320.727,160.518 328.339,151.383 341.086,151.383Z" style="fill:rgb(53,52,47);"/>
</svg>
