<?xml version="1.0" encoding="UTF-8" standalone="no"?>
<!DOCTYPE svg PUBLIC "-//W3C//DTD SVG 1.1//EN" "http://www.w3.org/Graphics/SVG/1.1/DTD/svg11.dtd">
<svg width="100%" height="100%" viewBox="0 0 504 137" version="1.1" xmlns="http://www.w3.org/2000/svg" xmlns:xlink="http://www.w3.org/1999/xlink" xml:space="preserve" xmlns:serif="http://www.serif.com/" style="fill-rule:evenodd;clip-rule:evenodd;stroke-linejoin:round;stroke-miterlimit:2;">
    <path d="M503,68.5C503,30.694 472.306,0 434.5,0L68.5,0C30.694,0 0,30.694 0,68.5C0,106.306 30.694,137 68.5,137L434.5,137C472.306,137 503,106.306 503,68.5Z" style="fill:url(#_Linear1);"/>
    <path d="M503,68.5C503,30.694 472.306,0 434.5,0L68.5,0C30.694,0 0,30.694 0,68.5C0,106.306 30.694,137 68.5,137L434.5,137C472.306,137 503,106.306 503,68.5ZM498.573,68.5C498.573,103.863 469.863,132.573 434.5,132.573C434.5,132.573 68.5,132.573 68.5,132.573C33.137,132.573 4.427,103.863 4.427,68.5C4.427,33.137 33.137,4.427 68.5,4.427L434.5,4.427C469.863,4.427 498.573,33.137 498.573,68.5Z" style="fill:white;"/>
    <g id="new-balance-store" serif:id="new balance store" transform="matrix(0.179302,0,0,0.179302,251.916,85.1806)">
        <path d="M-1006.58,0L-1006.58,-170.625L-1034.94,-170.625L-1035.18,-53.672L-1090.25,-170.625L-1118.85,-170.625L-1118.85,0L-1090.37,0L-1090.25,-117.422L-1034.82,0L-1006.58,0Z" style="fill:rgb(243,245,239);fill-rule:nonzero;"/>
        <path d="M-878.402,-76.523L-878.402,-99.258L-948.949,-99.258L-948.949,-147.305L-867.152,-147.305L-867.152,-170.625L-977.191,-170.625L-977.191,0L-866.566,0L-866.566,-23.203L-948.949,-23.203L-948.949,-76.523L-878.402,-76.523Z" style="fill:rgb(243,245,239);fill-rule:nonzero;"/>
        <path d="M-830.496,0L-803.895,0L-786.785,-104.414L-785.496,-112.5L-784.324,-104.414L-766.981,0L-740.379,0L-717.879,-170.625L-744.129,-170.625L-755.965,-65.859L-756.785,-58.711L-757.957,-65.742L-774.949,-170.625L-796.512,-170.625L-812.918,-66.211L-814.09,-59.18L-814.91,-65.859L-826.629,-170.625L-852.762,-170.625L-830.496,0Z" style="fill:rgb(243,245,239);fill-rule:nonzero;"/>
        <path d="M-606.879,0L-547.816,0C-539.379,0 -531.547,-1.074 -524.32,-3.223C-517.094,-5.371 -510.863,-8.555 -505.629,-12.773C-500.395,-16.914 -496.293,-22.07 -493.324,-28.242C-490.356,-34.414 -488.91,-41.563 -488.988,-49.688C-488.988,-54.297 -489.633,-58.691 -490.922,-62.871C-492.211,-67.051 -494.106,-70.859 -496.606,-74.297C-499.027,-77.5 -502.035,-80.371 -505.629,-82.91C-509.223,-85.449 -513.559,-87.383 -518.637,-88.711L-518.637,-88.945C-515.199,-90.352 -512.172,-91.934 -509.555,-93.691C-506.938,-95.449 -504.574,-97.5 -502.465,-99.844C-499.496,-103.047 -497.211,-106.738 -495.609,-110.918C-494.008,-115.098 -493.168,-119.609 -493.09,-124.453C-493.09,-132.422 -494.594,-139.316 -497.602,-145.137C-500.609,-150.957 -504.77,-155.742 -510.082,-159.492C-515.395,-163.242 -521.684,-166.035 -528.949,-167.871C-536.215,-169.707 -543.988,-170.625 -552.27,-170.625L-606.879,-170.625L-606.879,0ZM-578.52,-77.109L-546.176,-77.109C-541.566,-77.031 -537.465,-76.348 -533.871,-75.059C-530.277,-73.77 -527.231,-71.953 -524.731,-69.609C-522.231,-67.266 -520.356,-64.434 -519.106,-61.113C-517.856,-57.793 -517.231,-53.984 -517.231,-49.688C-517.231,-45.625 -517.992,-41.934 -519.516,-38.613C-521.039,-35.293 -523.207,-32.5 -526.02,-30.234C-528.598,-28.047 -531.723,-26.328 -535.395,-25.078C-539.066,-23.828 -543.129,-23.203 -547.582,-23.203L-578.52,-23.203L-578.52,-77.109ZM-578.52,-98.555L-578.52,-147.305L-551.918,-147.305C-547.074,-147.227 -542.66,-146.66 -538.676,-145.605C-534.691,-144.551 -531.371,-142.852 -528.715,-140.508C-526.371,-138.633 -524.555,-136.23 -523.266,-133.301C-521.977,-130.371 -521.332,-126.914 -521.332,-122.93C-521.332,-119.18 -522.035,-115.859 -523.441,-112.969C-524.848,-110.078 -526.762,-107.617 -529.184,-105.586C-531.84,-103.32 -535.102,-101.602 -538.969,-100.43C-542.836,-99.258 -547.074,-98.633 -551.684,-98.555L-578.52,-98.555Z" style="fill:rgb(243,245,239);fill-rule:nonzero;"/>
        <path d="M-385.77,-39.258L-374.285,0L-345.105,0L-399.715,-170.625L-424.676,-170.625L-480.223,0L-450.926,0L-439.324,-39.258L-385.77,-39.258ZM-432.176,-63.398L-412.254,-130.898L-392.684,-63.398L-432.176,-63.398Z" style="fill:rgb(243,245,239);fill-rule:nonzero;"/>
        <path d="M-299.895,-23.203L-299.895,-170.625L-328.137,-170.625L-328.137,0L-218.449,0L-218.449,-23.203L-299.895,-23.203Z" style="fill:rgb(243,245,239);fill-rule:nonzero;"/>
        <path d="M-109.723,-39.258L-98.238,0L-69.059,0L-123.668,-170.625L-148.629,-170.625L-204.176,0L-174.879,0L-163.277,-39.258L-109.723,-39.258ZM-156.129,-63.398L-136.207,-130.898L-116.637,-63.398L-156.129,-63.398Z" style="fill:rgb(243,245,239);fill-rule:nonzero;"/>
        <path d="M55.605,0L55.605,-170.625L27.246,-170.625L27.012,-53.672L-28.066,-170.625L-56.66,-170.625L-56.66,0L-28.184,0L-28.066,-117.422L27.363,0L55.605,0Z" style="fill:rgb(243,245,239);fill-rule:nonzero;"/>
        <path d="M198.668,-52.5L170.426,-52.5C169.957,-47.344 168.941,-42.773 167.379,-38.789C165.816,-34.805 163.746,-31.484 161.168,-28.828C158.512,-26.094 155.309,-24.023 151.559,-22.617C147.809,-21.211 143.512,-20.508 138.668,-20.508C134.605,-20.508 130.992,-21.074 127.828,-22.207C124.664,-23.34 121.871,-25 119.449,-27.188C117.105,-29.219 115.094,-31.641 113.414,-34.453C111.734,-37.266 110.348,-40.391 109.254,-43.828C107.848,-47.969 106.813,-52.539 106.148,-57.539C105.484,-62.539 105.152,-67.891 105.152,-73.594L105.152,-97.148C105.152,-101.758 105.406,-106.27 105.914,-110.684C106.422,-115.098 107.184,-119.258 108.199,-123.164C109.527,-127.617 111.227,-131.66 113.297,-135.293C115.367,-138.926 117.965,-141.875 121.09,-144.141C123.355,-146.016 125.953,-147.461 128.883,-148.477C131.813,-149.492 135.113,-150 138.785,-150C144.02,-150 148.512,-149.238 152.262,-147.715C156.012,-146.191 159.176,-143.984 161.754,-141.094C164.254,-138.203 166.227,-134.707 167.672,-130.605C169.117,-126.504 170.074,-121.914 170.543,-116.836L198.668,-116.836C197.809,-125.352 195.914,-133.086 192.984,-140.039C190.055,-146.992 186.051,-152.93 180.973,-157.852C175.973,-162.695 169.938,-166.445 162.867,-169.102C155.797,-171.758 147.77,-173.086 138.785,-173.086C132.145,-173.086 126.031,-172.188 120.445,-170.391C114.859,-168.594 109.762,-166.094 105.152,-162.891C100.309,-159.375 96.031,-155.137 92.32,-150.176C88.609,-145.215 85.582,-139.688 83.238,-133.594C81.051,-128.125 79.41,-122.305 78.316,-116.133C77.223,-109.961 76.676,-103.555 76.676,-96.914L76.676,-73.594C76.676,-66.641 77.242,-59.961 78.375,-53.555C79.508,-47.148 81.207,-41.211 83.473,-35.742C85.738,-30.195 88.531,-25.098 91.852,-20.449C95.172,-15.801 99.059,-11.836 103.512,-8.555C108.121,-5.039 113.375,-2.324 119.273,-0.41C125.172,1.504 131.637,2.461 138.668,2.461C147.262,2.461 155.094,1.152 162.164,-1.465C169.234,-4.082 175.348,-7.813 180.504,-12.656C185.582,-17.422 189.684,-23.184 192.809,-29.941C195.934,-36.699 197.887,-44.219 198.668,-52.5Z" style="fill:rgb(243,245,239);fill-rule:nonzero;"/>
        <path d="M321.809,-76.523L321.809,-99.258L251.262,-99.258L251.262,-147.305L333.059,-147.305L333.059,-170.625L223.02,-170.625L223.02,0L333.645,0L333.645,-23.203L251.262,-23.203L251.262,-76.523L321.809,-76.523Z" style="fill:rgb(243,245,239);fill-rule:nonzero;"/>
        <path d="M544.488,-43.945C544.488,-40.195 543.688,-36.875 542.086,-33.984C540.484,-31.094 538.356,-28.672 535.699,-26.719C532.965,-24.688 529.742,-23.164 526.031,-22.148C522.32,-21.133 518.316,-20.625 514.02,-20.625C508.941,-20.625 504.273,-21.25 500.016,-22.5C495.758,-23.75 492.066,-25.664 488.941,-28.242C485.738,-30.742 483.219,-33.926 481.383,-37.793C479.547,-41.66 478.434,-46.211 478.043,-51.445L449.918,-51.445C449.996,-43.242 451.656,-35.977 454.898,-29.648C458.141,-23.32 462.535,-17.813 468.082,-13.125C474.098,-8.125 481.168,-4.316 489.293,-1.699C497.418,0.918 505.66,2.227 514.02,2.227C521.91,2.227 529.41,1.23 536.52,-0.762C543.629,-2.754 549.879,-5.742 555.27,-9.727C560.582,-13.555 564.82,-18.359 567.984,-24.141C571.148,-29.922 572.731,-36.602 572.731,-44.18C572.731,-52.383 570.914,-59.629 567.281,-65.918C563.648,-72.207 558.824,-77.617 552.809,-82.148C547.965,-85.742 542.672,-88.809 536.93,-91.348C531.188,-93.887 525.309,-96.016 519.293,-97.734C514.527,-99.141 509.977,-100.664 505.641,-102.305C501.305,-103.945 497.457,-105.859 494.098,-108.047C490.816,-110.234 488.199,-112.793 486.246,-115.723C484.293,-118.652 483.277,-122.07 483.199,-125.977C483.199,-129.648 483.941,-132.969 485.426,-135.938C486.91,-138.906 488.981,-141.445 491.637,-143.555C494.293,-145.586 497.438,-147.168 501.07,-148.301C504.703,-149.434 508.668,-150 512.965,-150C517.887,-150 522.242,-149.277 526.031,-147.832C529.82,-146.387 533.043,-144.414 535.699,-141.914C538.277,-139.336 540.289,-136.27 541.734,-132.715C543.18,-129.16 544.098,-125.234 544.488,-120.938L572.379,-120.938C572.379,-128.672 570.836,-135.723 567.75,-142.09C564.664,-148.457 560.465,-153.945 555.152,-158.555C549.84,-163.086 543.609,-166.621 536.461,-169.16C529.313,-171.699 521.598,-172.969 513.316,-172.969C505.504,-172.969 498.063,-171.895 490.992,-169.746C483.922,-167.598 477.731,-164.492 472.418,-160.43C467.106,-156.289 462.887,-151.309 459.762,-145.488C456.637,-139.668 455.074,-133.125 455.074,-125.859C455.074,-119.141 456.422,-113.105 459.117,-107.754C461.813,-102.402 465.543,-97.617 470.309,-93.398C475.074,-89.258 480.836,-85.527 487.594,-82.207C494.352,-78.887 501.754,-76.094 509.801,-73.828C515.035,-72.344 519.781,-70.684 524.039,-68.848C528.297,-67.012 531.988,-64.961 535.113,-62.695C538.082,-60.273 540.387,-57.539 542.027,-54.492C543.668,-51.445 544.488,-47.93 544.488,-43.945Z" style="fill:rgb(243,245,239);fill-rule:nonzero;"/>
        <path d="M714.621,-147.305L714.621,-170.625L581.731,-170.625L581.731,-147.305L633.996,-147.305L633.996,0L662.004,0L662.004,-147.305L714.621,-147.305Z" style="fill:rgb(243,245,239);fill-rule:nonzero;"/>
        <path d="M847.254,-73.945L847.254,-96.445C847.254,-103.555 846.629,-110.41 845.379,-117.012C844.129,-123.613 842.254,-129.805 839.754,-135.586C837.488,-140.977 834.676,-145.938 831.316,-150.469C827.957,-155 824.012,-158.945 819.481,-162.305C814.949,-165.664 809.832,-168.281 804.129,-170.156C798.426,-172.031 792.176,-172.969 785.379,-172.969C778.66,-172.969 772.508,-172.051 766.922,-170.215C761.336,-168.379 756.356,-165.781 751.981,-162.422C747.449,-158.984 743.524,-154.941 740.203,-150.293C736.883,-145.645 734.09,-140.547 731.824,-135C729.481,-129.219 727.723,-123.086 726.551,-116.602C725.379,-110.117 724.793,-103.398 724.793,-96.445L724.793,-73.945C724.793,-67.305 725.34,-60.84 726.434,-54.551C727.527,-48.262 729.168,-42.344 731.356,-36.797C733.621,-31.016 736.453,-25.703 739.852,-20.859C743.25,-16.016 747.215,-11.875 751.746,-8.438C756.199,-5.078 761.258,-2.441 766.922,-0.527C772.586,1.387 778.816,2.344 785.613,2.344C792.176,2.344 798.211,1.445 803.719,-0.352C809.227,-2.148 814.246,-4.609 818.777,-7.734C823.465,-11.172 827.606,-15.293 831.199,-20.098C834.793,-24.902 837.801,-30.156 840.223,-35.859C842.488,-41.563 844.227,-47.617 845.438,-54.023C846.649,-60.43 847.254,-67.07 847.254,-73.945ZM818.895,-96.68L818.895,-73.945C818.816,-69.727 818.563,-65.566 818.133,-61.465C817.703,-57.363 817.02,-53.438 816.082,-49.688C814.988,-45.391 813.524,-41.465 811.688,-37.91C809.852,-34.355 807.566,-31.289 804.832,-28.711C802.488,-26.445 799.695,-24.648 796.453,-23.32C793.211,-21.992 789.598,-21.328 785.613,-21.328C781.473,-21.328 777.82,-22.012 774.656,-23.379C771.492,-24.746 768.699,-26.602 766.277,-28.945C763.777,-31.445 761.649,-34.512 759.891,-38.145C758.133,-41.777 756.746,-45.703 755.731,-49.922C754.793,-53.672 754.129,-57.578 753.738,-61.641C753.348,-65.703 753.152,-69.805 753.152,-73.945L753.152,-96.68C753.152,-100.898 753.367,-105.098 753.797,-109.277C754.227,-113.457 754.91,-117.422 755.848,-121.172C756.863,-125.547 758.309,-129.512 760.184,-133.066C762.059,-136.621 764.363,-139.688 767.098,-142.266C769.363,-144.375 772.02,-146.035 775.066,-147.246C778.113,-148.457 781.551,-149.063 785.379,-149.063C789.363,-149.063 792.918,-148.438 796.043,-147.188C799.168,-145.938 801.941,-144.219 804.363,-142.031C807.098,-139.531 809.422,-136.504 811.336,-132.949C813.25,-129.395 814.793,-125.469 815.965,-121.172C816.981,-117.422 817.703,-113.477 818.133,-109.336C818.563,-105.195 818.816,-100.977 818.895,-96.68Z" style="fill:rgb(243,245,239);fill-rule:nonzero;"/>
        <path d="M926.918,-66.211L959.613,0L989.731,0L989.731,-1.523L953.285,-72.891C957.973,-75 962.231,-77.5 966.059,-80.391C969.887,-83.281 973.168,-86.641 975.902,-90.469C978.637,-94.297 980.766,-98.594 982.289,-103.359C983.813,-108.125 984.574,-113.438 984.574,-119.297C984.574,-127.813 983.09,-135.254 980.121,-141.621C977.152,-147.988 973.012,-153.32 967.699,-157.617C962.309,-161.836 955.902,-165.039 948.481,-167.227C941.059,-169.414 932.934,-170.547 924.106,-170.625L869.965,-170.625L869.965,0L898.09,0L898.09,-66.211L926.918,-66.211ZM898.09,-89.18L898.09,-147.656L924.106,-147.656C928.949,-147.578 933.324,-146.934 937.231,-145.723C941.137,-144.512 944.457,-142.734 947.191,-140.391C950.16,-137.891 952.406,-134.785 953.93,-131.074C955.453,-127.363 956.215,-123.047 956.215,-118.125C956.215,-113.75 955.512,-109.844 954.106,-106.406C952.699,-102.969 950.746,-100.078 948.246,-97.734C945.434,-95 942.016,-92.91 937.992,-91.465C933.969,-90.02 929.457,-89.258 924.457,-89.18L898.09,-89.18Z" style="fill:rgb(243,245,239);fill-rule:nonzero;"/>
        <path d="M1107.95,-76.523L1107.95,-99.258L1037.4,-99.258L1037.4,-147.305L1119.2,-147.305L1119.2,-170.625L1009.16,-170.625L1009.16,0L1119.79,0L1119.79,-23.203L1037.4,-23.203L1037.4,-76.523L1107.95,-76.523Z" style="fill:rgb(243,245,239);fill-rule:nonzero;"/>
    </g>
    <defs>
        <linearGradient id="_Linear1" x1="0" y1="0" x2="1" y2="0" gradientUnits="userSpaceOnUse" gradientTransform="matrix(7.95552e-15,129.924,-129.924,7.95552e-15,374.457,3)"><stop offset="0" style="stop-color:rgb(107,113,127);stop-opacity:1"/><stop offset="0.36" style="stop-color:rgb(105,111,125);stop-opacity:1"/><stop offset="1" style="stop-color:rgb(52,55,61);stop-opacity:1"/></linearGradient>
    </defs>
</svg>
