<?xml version="1.0" encoding="utf-8"?>
<!-- Generator: Adobe Illustrator 19.1.0, SVG Export Plug-In . SVG Version: 6.00 Build 0)  -->
<svg version="1.1" id="Layer_1" xmlns="http://www.w3.org/2000/svg" xmlns:xlink="http://www.w3.org/1999/xlink" x="0px" y="0px"
	 viewBox="0 0 512 512" style="enable-background:new 0 0 512 512;" xml:space="preserve">
<style type="text/css">
	.st0{fill:#35342F;}
</style>
<path class="st0" d="M256,4.3C117,4.3,4.3,117,4.3,256S117,507.7,256,507.7S507.7,395,507.7,256S395,4.3,256,4.3z M347,375.5
	c-10.1-5.5-20.3-10.7-30.9-15.1c-23.8-9.9-48.5-16.4-74.1-19.5c-33.8-4.1-67.2-2.3-100.2,5.6c-7.8,1.9-15.3-2.6-17.1-9.9
	c-1.9-7.8,2.6-15.2,10.6-17.1c20.5-4.9,41.3-7.8,62.5-8.4c46.1-1.3,90.3,7,132.7,25.2c10.2,4.4,20.2,9.4,29.9,14.9
	c4.7,2.7,7.2,6.8,7.2,12.4C367.4,374.1,356.3,380.6,347,375.5z M398.5,302.2c-0.8,7.6-5.1,12.8-12.4,15.3c-1.8,0.6-3.6,1-5.3,0.9
	c-3.3,0.1-6.2-0.7-8.8-2.2c-30-16.2-61.7-27.7-95.1-34.5c-25.4-5.2-51.1-7.5-77-6.9c-22.6,0.5-44.8,3.2-66.9,8
	c-9.3,2-18.7-4.3-20.9-13.8c-2.2-9.3,3.5-19,12.9-21.3c11.3-2.8,22.9-4.6,34.5-6.1c16.8-2.1,33.8-3.2,50.8-3
	c50.9,0.6,99.9,10.5,146.8,30.4c11,4.7,21.9,9.8,32.4,15.7C396.1,288.5,399.3,294.6,398.5,302.2z M432.2,235.5
	c-3,10.4-12.3,16.9-23.1,16.3c-3-0.2-5.8-1.1-8.5-2.5c-32.6-16.9-66.8-29.3-102.6-37.2c-25.2-5.5-50.7-8.7-76.5-9.6
	c-21.5-0.8-43,0.3-64.3,2.8c-10.8,1.3-21.6,3.1-32.3,5.2c-13.9,2.8-26.9-7.7-26.8-21.8c0-10.6,7.5-19.6,18.1-21.8
	c26.3-5.3,52.8-8.3,79.7-8.9c73.6-1.7,143.7,13.1,210.2,44.5c5,2.4,10,4.8,14.8,7.4C430.4,214.9,435,225.5,432.2,235.5z"/>
</svg>
