<?xml version="1.0" encoding="utf-8"?>
<!-- Generator: Adobe Illustrator 19.1.0, SVG Export Plug-In . SVG Version: 6.00 Build 0)  -->
<svg version="1.1" id="Layer_1" xmlns="http://www.w3.org/2000/svg" xmlns:xlink="http://www.w3.org/1999/xlink" x="0px" y="0px"
	 viewBox="0 0 214 54" style="enable-background:new 0 0 214 54;" xml:space="preserve">
<style type="text/css">
	.st0{opacity:0.5;fill:url(#SVGID_1_);stroke:#FFFFFF;stroke-miterlimit:10;}
	.st1{opacity:0.8;fill:#1A1A1A;}
	.st2{fill:#FFFFFF;}
</style>
<g>
	
		<linearGradient id="SVGID_1_" gradientUnits="userSpaceOnUse" x1="107" y1="-16374.2842" x2="107" y2="-16333.5361" gradientTransform="matrix(1 0 0 -1 0 -16327.667)">
		<stop  offset="0" style="stop-color:#FFFFFF;stop-opacity:0.5"/>
		<stop  offset="1" style="stop-color:#FFFFFF;stop-opacity:0.7"/>
	</linearGradient>
	<path class="st0" d="M187,52.4H27C13,52.4,1.7,41,1.7,27v0C1.7,13,13,1.6,27,1.6h160c14,0,25.4,11.4,25.4,25.4v0
		C212.3,41,201,52.4,187,52.4z"/>
	<circle class="st1" cx="185.8" cy="27" r="21.1"/>
	<g>
		<path class="st2" d="M34.7,29.2l-1.3,2.9h-1.4l5.1-11.4h1.4l5.1,11.4h-1.4L41,29.2H34.7z M37.8,22.2L35.3,28h5.1L37.8,22.2z"/>
		<path class="st2" d="M49.7,20.7c2.8,0,4.4,1.4,4.4,3.8c0,2.5-1.6,4-4.4,4h-3v3.6h-1.3V20.7H49.7z M46.8,27.3h2.9
			c2.1,0,3.2-0.9,3.2-2.7c0-1.7-1.2-2.6-3.2-2.6h-2.9V27.3z"/>
		<path class="st2" d="M60.6,20.7c2.8,0,4.4,1.4,4.4,3.8c0,2.5-1.6,4-4.4,4h-3v3.6h-1.3V20.7H60.6z M57.7,27.3h2.9
			c2.1,0,3.2-0.9,3.2-2.7c0-1.7-1.2-2.6-3.2-2.6h-2.9V27.3z"/>
		<path class="st2" d="M73.6,30.9v1.2h-6.3V20.7h1.3v10.2H73.6z"/>
		<path class="st2" d="M77,22v3.7h5.8V27H77v3.9h6.6v1.2h-8V20.7h7.7V22H77z"/>
		<path class="st2" d="M101.1,32.1l0-9.4l-4.2,8.2h-0.8L92,22.7v9.4h-1.2V20.7h1.6l4.2,8.2l4.2-8.2h1.6v11.4H101.1z"/>
		<path class="st2" d="M115.1,27.4c0,3-1.8,4.8-4.8,4.8c-3,0-4.8-1.8-4.8-4.8v-6.7h1.3v6.7c0,2.2,1.3,3.5,3.5,3.5
			c2.2,0,3.5-1.3,3.5-3.5v-6.7h1.3V27.4z"/>
		<path class="st2" d="M125.3,21.7l-0.6,1.2c-1-0.7-2.2-1-3.1-1c-1.5,0-2.4,0.6-2.4,1.5c0,2.9,6.4,1.4,6.4,5.5
			c0,1.9-1.7,3.1-4.1,3.1c-1.7,0-3.3-0.7-4.4-1.7l0.6-1.2c1.1,1,2.5,1.6,3.8,1.6c1.6,0,2.7-0.7,2.7-1.8c0-3-6.4-1.4-6.4-5.5
			c0-1.8,1.6-2.9,3.9-2.9C123,20.7,124.4,21.1,125.3,21.7z"/>
		<path class="st2" d="M128.2,32.1V20.7h1.3v11.4H128.2z"/>
		<path class="st2" d="M142,22.3l-0.8,1c-0.9-0.9-2.1-1.4-3.4-1.4c-2.6,0-4.6,2-4.6,4.5c0,2.5,2.1,4.5,4.6,4.5
			c1.3,0,2.5-0.5,3.4-1.4l0.8,0.9c-1.1,1.1-2.7,1.8-4.2,1.8c-3.3,0-5.9-2.6-5.9-5.8c0-3.2,2.6-5.7,5.9-5.7
			C139.4,20.7,141,21.3,142,22.3z"/>
	</g>
	<path id="_Compound_Path_11_1_" class="st2" d="M196.9,18.6c-0.6-1.3-1.7-2.3-3.1-2.7c-0.9-0.2-1.8-0.3-2.8-0.3h-10.2
		c-0.9,0-1.9,0.1-2.8,0.3c-1.4,0.4-2.5,1.4-3.1,2.7c-0.3,1-0.5,2.1-0.5,3.2v10.2c0,1.1,0.1,2.2,0.5,3.2c0.6,1.3,1.7,2.3,3.1,2.7
		c0.9,0.2,1.8,0.3,2.8,0.3H191c0.9,0,1.9-0.1,2.8-0.3c1.4-0.4,2.5-1.4,3.1-2.7c0.3-1,0.5-2.1,0.5-3.2V21.9
		C197.4,20.8,197.2,19.7,196.9,18.6z M191.1,31.3c-0.1,0.3-0.2,0.5-0.3,0.8c-0.2,0.2-0.4,0.4-0.6,0.6c-0.2,0.1-0.5,0.2-0.8,0.3
		c-0.4,0.1-0.8,0.1-1.2,0.1c-0.3-0.1-0.6-0.2-0.8-0.4c-0.7-0.7-0.8-1.8-0.1-2.5c0,0,0,0,0,0c0.2-0.2,0.5-0.4,0.7-0.5
		c0.4-0.1,0.8-0.2,1.3-0.3c0.1,0,0.3-0.1,0.4-0.1c0.2,0,0.4-0.1,0.5-0.3c0.1-0.2,0.2-0.4,0.1-0.6l0-5c0-0.4-0.2-0.5-0.5-0.4
		c-0.3,0.1-5.9,1.2-5.9,1.2c-0.3,0-0.5,0.2-0.4,0.5c0,0,0,0.1,0,0.1l0,7.4c0,0.3,0,0.6-0.1,0.8c-0.1,0.3-0.2,0.5-0.3,0.8
		c-0.2,0.2-0.4,0.4-0.6,0.6c-0.2,0.1-0.5,0.2-0.8,0.3c-0.4,0.1-0.8,0.1-1.2,0.1c-0.3-0.1-0.6-0.2-0.8-0.4c-0.7-0.7-0.8-1.8-0.1-2.5
		c0.2-0.2,0.5-0.4,0.7-0.5c0.4-0.1,0.8-0.2,1.3-0.3c0.1,0,0.3-0.1,0.4-0.1c0.2,0,0.4-0.1,0.5-0.3c0.1-0.2,0.2-0.4,0.1-0.6v-8.5
		c0-0.1,0-0.2,0-0.2c0-0.2,0.1-0.3,0.2-0.4c0.1-0.1,0.3-0.2,0.4-0.2l0,0l6.8-1.4c0.1,0,0.5-0.1,0.6-0.1c0.3,0,0.5,0.2,0.6,0.4
		c0,0.1,0,0.1,0,0.2l0,10.7C191.2,30.7,191.2,31,191.1,31.3L191.1,31.3z"/>
</g>
</svg>
