<?xml version="1.0" encoding="UTF-8" standalone="no"?><!DOCTYPE svg PUBLIC "-//W3C//DTD SVG 1.1//EN" "http://www.w3.org/Graphics/SVG/1.1/DTD/svg11.dtd"><svg width="100%" height="100%" viewBox="0 0 128 128" version="1.1" xmlns="http://www.w3.org/2000/svg" xmlns:xlink="http://www.w3.org/1999/xlink" xml:space="preserve" xmlns:serif="http://www.serif.com/" style="fill-rule:evenodd;clip-rule:evenodd;stroke-linejoin:round;stroke-miterlimit:2;"><rect id="Artboard6" x="0" y="0" width="128" height="128" style="fill:none;"/><path d="M126.998,63.95c0.165,34.822 -28.585,64 -64.804,63.036c-33.585,-0.889 -62.005,-28.722 -61.178,-64.638c0.775,-33.801 28.847,-62.33 64.895,-61.338c33.699,0.924 61.138,28.625 61.087,62.94Zm-27.536,-21.6c-1.548,0 -2.719,0.834 -3.306,2.312l-0.13,0l-0.325,-1.595c-0.054,-0.26 -0.212,-0.423 -0.457,-0.423l-2.149,0c-0.244,0 -0.423,0.179 -0.423,0.423l0,12.693c0,0.244 0.179,0.423 0.423,0.423l2.605,0c0.244,0 0.423,-0.179 0.423,-0.423l0,-7.335c0,-1.89 0.717,-2.916 2.034,-2.916c1.205,0 1.873,0.88 1.873,2.459l0,7.792c0,0.244 0.179,0.423 0.423,0.423l2.607,0c0.244,0 0.423,-0.179 0.423,-0.423l0,-8.052c0,-3.306 -1.532,-5.358 -4.023,-5.358Zm-21.508,41.866c0.163,0.374 0.634,0.374 1.367,0.228c1.955,-0.423 4.429,-0.457 4.852,0.13c0.408,0.601 -0.488,2.911 -1.546,4.603c-0.392,0.65 -0.553,1.058 -0.228,1.367c0.081,0.097 0.195,0.13 0.325,0.146c0.392,0 0.896,-0.39 1.368,-0.829c1.026,-0.896 1.823,-2.034 2.263,-3.319c0.439,-1.237 0.652,-2.976 0.195,-3.644c-0.439,-0.634 -2.149,-1.058 -3.468,-1.04c-1.383,0 -2.718,0.341 -3.923,0.975c-0.75,0.406 -1.432,0.863 -1.205,1.383Zm-49.547,-27.74c1.613,0 2.784,-0.836 3.371,-2.248l0.13,0l0.325,1.532c0.057,0.26 0.205,0.423 0.457,0.423l2.15,0c0.244,0 0.423,-0.179 0.423,-0.423l0,-8.187c0,-3.4 -1.758,-5.223 -5.065,-5.223c-2.784,0 -4.674,1.273 -5.277,3.566c-0.081,0.309 0.067,0.538 0.342,0.587l2.264,0.39c0.276,0.049 0.439,-0.094 0.52,-0.39c0.293,-1.039 0.937,-1.581 1.914,-1.581c1.237,0 1.847,0.799 1.847,2.459l0,0.338c-0.374,-0.081 -0.829,-0.109 -1.351,-0.109c-3.647,0 -5.943,1.873 -5.943,4.795c0,2.426 1.563,4.072 3.891,4.072Zm1.319,-2.573c-1.01,0 -1.662,-0.733 -1.662,-1.888c0,-1.563 1.108,-2.553 2.883,-2.553c0.293,0 0.587,0.033 0.863,0.081l0,0.859c0,2.264 -0.733,3.501 -2.084,3.501Zm14.312,-11.553c-1.498,0 -2.621,0.831 -3.208,2.312l-0.13,0l-0.327,-1.595c-0.052,-0.26 -0.211,-0.423 -0.455,-0.423l-2.15,0c-0.244,0 -0.423,0.179 -0.423,0.423l0,12.693c0,0.244 0.179,0.423 0.423,0.423l2.605,0c0.244,0 0.423,-0.179 0.423,-0.423l0,-7.335c0,-1.89 0.668,-2.916 1.938,-2.916c1.158,0 1.776,0.88 1.776,2.459l0,7.792c0,0.244 0.179,0.423 0.423,0.423l2.605,0c0.244,0 0.423,-0.179 0.423,-0.423l0,-7.335c0,-1.89 0.668,-2.916 1.938,-2.916c1.156,0 1.774,0.88 1.774,2.459l0,7.792c0,0.244 0.179,0.423 0.423,0.423l2.607,0c0.244,0 0.423,-0.179 0.423,-0.423l0,-8.052c0,-3.306 -1.483,-5.358 -3.924,-5.358c-1.483,0 -2.654,0.802 -3.615,2.442l-0.13,0c-0.62,-1.543 -1.808,-2.442 -3.42,-2.442Zm-2.211,41.183c0.113,0.342 0.374,0.764 0.766,1.253c4.998,6.165 13.04,8.865 20.805,8.865c6.79,0 13.351,-2.05 17.518,-5.661c0.717,-0.634 1.091,-1.138 1.091,-1.529c0,-0.163 -0.065,-0.293 -0.179,-0.423c-0.358,-0.374 -0.896,-0.098 -1.546,0.244c-3.875,2.033 -9.834,3.431 -16.167,3.431c-7.146,0 -14.799,-1.773 -20.594,-6.441c-0.553,-0.439 -1.156,-0.878 -1.563,-0.553c-0.146,0.114 -0.279,0.358 -0.13,0.813Zm37.444,-34.121c0,4.035 2.524,7.059 5.862,7.059c3.354,0 5.895,-3.024 5.895,-7.059c0,-4.037 -2.542,-7.062 -5.895,-7.062c-3.338,0 -5.862,3.025 -5.862,7.062Zm5.862,4.295c-1.465,0 -2.28,-1.53 -2.28,-4.295c0,-2.767 0.815,-4.299 2.28,-4.299c1.483,0 2.312,1.532 2.312,4.299c0,2.765 -0.829,4.295 -2.312,4.295Zm-24.619,2.769c1.613,0 2.784,-0.836 3.371,-2.248l0.13,0l0.325,1.532c0.057,0.26 0.205,0.423 0.457,0.423l2.15,0c0.244,0 0.423,-0.179 0.423,-0.423l0,-8.187c0,-3.4 -1.758,-5.223 -5.065,-5.223c-2.784,0 -4.674,1.273 -5.277,3.566c-0.081,0.309 0.067,0.538 0.342,0.587l2.264,0.39c0.276,0.049 0.439,-0.094 0.52,-0.39c0.293,-1.039 0.937,-1.581 1.914,-1.581c1.237,0 1.847,0.799 1.847,2.459l0,0.338c-0.374,-0.081 -0.829,-0.109 -1.351,-0.109c-3.647,0 -5.943,1.873 -5.943,4.795c0,2.426 1.563,4.072 3.891,4.072Zm1.319,-2.573c-1.01,0 -1.66,-0.733 -1.66,-1.888c0,-1.563 1.107,-2.553 2.881,-2.553c0.293,0 0.587,0.033 0.863,0.081l0,0.859c0,2.264 -0.733,3.501 -2.084,3.501Zm6.984,-0.098l0,1.954c0,0.244 0.179,0.423 0.423,0.423l8.956,0c0.244,0 0.423,-0.179 0.423,-0.423l0,-1.888c0,-0.244 -0.162,-0.423 -0.423,-0.423l-5.385,0l5.353,-7.808c0.146,-0.212 0.195,-0.392 0.195,-0.618l0,-1.955c0,-0.244 -0.179,-0.423 -0.423,-0.423l-8.566,0c-0.244,0 -0.423,0.179 -0.423,0.423l0,1.89c0,0.244 0.179,0.423 0.423,0.423l4.942,0l-5.301,7.808c-0.13,0.195 -0.195,0.39 -0.195,0.618Zm10.791,4.96c-1.108,0 -2.02,0.75 -2.02,2.02c0,1.237 0.912,2.019 2.02,2.019c1.107,0 2.019,-0.782 2.019,-2.019c0,-1.27 -0.912,-2.02 -2.019,-2.02Zm-39.012,4.813c-1.498,0 -2.621,0.831 -3.208,2.312l-0.13,0l-0.327,-1.595c-0.052,-0.26 -0.211,-0.423 -0.455,-0.423l-2.15,0c-0.244,0 -0.423,0.179 -0.423,0.423l0,12.693c0,0.244 0.179,0.423 0.423,0.423l2.605,0c0.244,0 0.423,-0.179 0.423,-0.423l0,-7.335c0,-1.89 0.668,-2.916 1.938,-2.916c1.158,0 1.776,0.88 1.776,2.459l0,7.792c0,0.244 0.179,0.423 0.423,0.423l2.605,0c0.244,0 0.423,-0.179 0.423,-0.423l0,-7.335c0,-1.89 0.668,-2.916 1.938,-2.916c1.156,0 1.774,0.88 1.774,2.459l0,7.792c0,0.244 0.179,0.423 0.423,0.423l2.607,0c0.244,0 0.423,-0.179 0.423,-0.423l0,-8.052c0,-3.306 -1.483,-5.358 -3.924,-5.358c-1.483,0 -2.654,0.802 -3.615,2.442l-0.13,0c-0.62,-1.543 -1.808,-2.442 -3.42,-2.442Zm23.74,0.716c0,-0.244 -0.179,-0.423 -0.423,-0.423l-2.605,0c-0.244,0 -0.423,0.179 -0.423,0.423l0,7.418c0,1.873 -0.683,2.849 -1.987,2.849c-1.172,0 -1.792,-0.847 -1.792,-2.394l0,-7.873c0,-0.244 -0.179,-0.423 -0.423,-0.423l-2.605,0c-0.244,0 -0.423,0.179 -0.423,0.423l0,8.134c0,3.273 1.498,5.275 3.94,5.275c1.532,0 2.672,-0.798 3.257,-2.312l0.13,0l0.327,1.595c0.057,0.26 0.195,0.423 0.455,0.423l2.15,0c0.244,0 0.423,-0.179 0.423,-0.423l0,-12.693Zm8.499,3.411c0.033,0.26 0.228,0.371 0.488,0.325l2.345,-0.39c0.293,-0.049 0.39,-0.228 0.325,-0.522c-0.488,-2.091 -2.117,-3.541 -4.933,-3.541c-2.719,0 -4.903,1.481 -4.903,4.127c0,1.888 0.929,3.281 3.794,3.974l1.418,0.341c1.058,0.257 1.563,0.717 1.563,1.563c0,0.872 -0.717,1.41 -1.743,1.41c-1.124,0 -1.906,-0.685 -2.134,-2.109c-0.065,-0.358 -0.227,-0.48 -0.52,-0.423l-2.247,0.423c-0.262,0.049 -0.392,0.227 -0.358,0.488c0.39,2.948 2.605,4.33 5.26,4.33c2.914,0 5.096,-1.873 5.096,-4.429c0,-2.019 -1.01,-3.371 -3.371,-3.956l-1.904,-0.473c-1.01,-0.252 -1.498,-0.683 -1.498,-1.351c0,-0.717 0.618,-1.205 1.548,-1.205c0.928,0 1.611,0.52 1.774,1.416Zm21.248,5.455c0.049,-0.277 -0.081,-0.457 -0.342,-0.504l-2.361,-0.423c-0.26,-0.049 -0.423,0.065 -0.488,0.341c-0.358,1.646 -1.075,2.378 -2.052,2.378c-1.498,0 -2.28,-1.532 -2.28,-4.316c0,-2.776 0.782,-4.307 2.28,-4.307c0.977,0 1.693,0.733 2.052,2.377c0.065,0.277 0.228,0.392 0.488,0.342l2.361,-0.423c0.262,-0.049 0.392,-0.228 0.342,-0.504c-0.587,-2.932 -2.735,-4.544 -5.244,-4.544c-3.354,0 -5.862,3.046 -5.862,7.059c0,4.023 2.508,7.067 5.862,7.067c2.508,0 4.657,-1.611 5.244,-4.543Zm-16.201,3.827c0,0.244 0.179,0.423 0.423,0.423l2.605,0c0.244,0 0.423,-0.179 0.423,-0.423l0,-12.693c0,-0.244 -0.179,-0.423 -0.423,-0.423l-2.605,0c-0.244,0 -0.423,0.179 -0.423,0.423l0,12.693Z" style="fill:#fff;"/></svg>