<?xml version="1.0" encoding="utf-8"?>
<!-- Generator: Adobe Illustrator 19.1.0, SVG Export Plug-In . SVG Version: 6.00 Build 0)  -->
<svg version="1.1" id="Layer_1" xmlns="http://www.w3.org/2000/svg" xmlns:xlink="http://www.w3.org/1999/xlink" x="0px" y="0px"
	 viewBox="0 0 60 60" style="enable-background:new 0 0 60 60;" xml:space="preserve">
<style type="text/css">
	.st0{fill:#FFFFFF;}
</style>
<g>
	<g>
		<path class="st0" d="M13.1,26.8c1.2,0,2,0.6,2.5,1.8h0.1c0.7-1.2,1.5-1.8,2.6-1.8c1.8,0,2.8,1.5,2.8,3.9v5.8
			c0,0.2-0.1,0.3-0.3,0.3h-1.9c-0.2,0-0.3-0.1-0.3-0.3v-5.6c0-1.1-0.4-1.8-1.3-1.8c-0.9,0-1.4,0.7-1.4,2.1v5.3
			c0,0.2-0.1,0.3-0.3,0.3h-1.9c-0.2,0-0.3-0.1-0.3-0.3v-5.6c0-1.1-0.4-1.8-1.3-1.8c-0.9,0-1.4,0.7-1.4,2.1v5.3
			c0,0.2-0.1,0.3-0.3,0.3H8.6c-0.2,0-0.3-0.1-0.3-0.3v-9.1c0-0.2,0.1-0.3,0.3-0.3h1.5c0.2,0,0.3,0.1,0.3,0.3l0.2,1.2h0.1
			C11.2,27.4,12.1,26.8,13.1,26.8z"/>
		<path class="st0" d="M30.2,27.3v9.1c0,0.2-0.1,0.3-0.3,0.3h-1.5c-0.2,0-0.3-0.1-0.3-0.3l-0.2-1.2h-0.1c-0.4,1.1-1.2,1.7-2.3,1.7
			c-1.8,0-2.8-1.4-2.8-3.8v-5.9c0-0.2,0.1-0.3,0.3-0.3h1.9c0.2,0,0.3,0.1,0.3,0.3V33c0,1.1,0.4,1.7,1.3,1.7c0.9,0,1.4-0.7,1.4-2.1
			v-5.3c0-0.2,0.1-0.3,0.3-0.3h1.9C30.1,27,30.2,27.2,30.2,27.3z"/>
		<path class="st0" d="M36.4,29.8c-0.1-0.6-0.6-1-1.3-1c-0.7,0-1.1,0.4-1.1,0.9c0,0.5,0.4,0.8,1.1,1l1.4,0.3
			c1.7,0.4,2.4,1.4,2.4,2.9c0,1.8-1.6,3.2-3.7,3.2c-1.9,0-3.5-1-3.8-3.1c0-0.2,0.1-0.3,0.3-0.4l1.6-0.3c0.2,0,0.3,0,0.4,0.3
			c0.2,1,0.7,1.5,1.5,1.5c0.7,0,1.3-0.4,1.3-1c0-0.6-0.4-0.9-1.1-1.1l-1-0.2c-2.1-0.5-2.7-1.5-2.7-2.9c0-1.9,1.6-3,3.5-3
			c2,0,3.2,1,3.6,2.6c0,0.2,0,0.3-0.2,0.4L36.7,30C36.5,30.1,36.4,30,36.4,29.8z"/>
		<path class="st0" d="M41.2,23.3c0.8,0,1.5,0.5,1.5,1.5c0,0.9-0.7,1.5-1.5,1.5s-1.5-0.6-1.5-1.5C39.8,23.9,40.5,23.3,41.2,23.3z
			 M40,36.5v-9.1c0-0.2,0.1-0.3,0.3-0.3h1.9c0.2,0,0.3,0.1,0.3,0.3v9.1c0,0.2-0.1,0.3-0.3,0.3h-1.9C40.1,36.8,40,36.7,40,36.5z"/>
		<path class="st0" d="M51.7,33.7c-0.4,2.1-2,3.3-3.8,3.3c-2.4,0-4.2-2.2-4.2-5.1c0-2.9,1.8-5.1,4.2-5.1c1.8,0,3.4,1.2,3.8,3.3
			c0,0.2-0.1,0.3-0.2,0.4l-1.7,0.3c-0.2,0-0.3,0-0.4-0.2c-0.3-1.2-0.8-1.7-1.5-1.7c-1.1,0-1.6,1.1-1.6,3.1c0,2,0.6,3.1,1.6,3.1
			c0.7,0,1.2-0.5,1.5-1.7c0-0.2,0.2-0.3,0.4-0.2l1.7,0.3C51.6,33.4,51.7,33.5,51.7,33.7z"/>
		<path class="st0" d="M40.1,41.7c0.1,0.3,0.5,0.3,1,0.2c1.4-0.3,3.2-0.3,3.5,0.1c0.3,0.4-0.4,2.1-1.1,3.3c-0.3,0.5-0.4,0.8-0.2,1
			c0.1,0.1,0.1,0.1,0.2,0.1c0.3,0,0.6-0.3,1-0.6c0.7-0.6,1.3-1.5,1.6-2.4c0.3-0.9,0.5-2.1,0.1-2.6c-0.3-0.5-1.5-0.8-2.5-0.8
			c-1,0-2,0.2-2.8,0.7C40.4,41,39.9,41.3,40.1,41.7L40.1,41.7z"/>
		<path class="st0" d="M14,41.2c0.1,0.2,0.3,0.6,0.6,0.9c3.6,4.4,9.4,6.4,15,6.4c4.9,0,9.6-1.5,12.6-4.1c0.5-0.5,0.8-0.8,0.8-1.1
			c0-0.1,0-0.2-0.1-0.3c-0.3-0.3-0.6-0.1-1.1,0.2c-2.8,1.5-7.1,2.5-11.7,2.5c-5.2,0-10.7-1.3-14.8-4.6c-0.4-0.3-0.8-0.6-1.1-0.4
			C14,40.7,13.9,40.9,14,41.2L14,41.2z"/>
		<path class="st0" d="M4.3,21.7c-1.7,0-2.8-1.2-2.8-2.9c0-2.1,1.7-3.5,4.3-3.5c0.4,0,0.7,0,1,0.1v-0.2c0-1.2-0.4-1.8-1.3-1.8
			c-0.7,0-1.2,0.4-1.4,1.1c-0.1,0.2-0.2,0.3-0.4,0.3l-1.6-0.3c-0.2,0-0.3-0.2-0.2-0.4c0.4-1.7,1.8-2.6,3.8-2.6
			c2.4,0,3.6,1.3,3.6,3.8v5.9c0,0.2-0.1,0.3-0.3,0.3H7.4c-0.2,0-0.3-0.1-0.3-0.3l-0.2-1.1H6.8C6.4,21.1,5.5,21.7,4.3,21.7z
			 M5.3,19.8c1,0,1.5-0.9,1.5-2.5v-0.6c-0.2,0-0.4-0.1-0.6-0.1c-1.3,0-2.1,0.7-2.1,1.8C4.1,19.3,4.6,19.8,5.3,19.8z"/>
		<path class="st0" d="M15.6,11.5c1.2,0,2,0.6,2.5,1.8h0.1c0.7-1.2,1.5-1.8,2.6-1.8c1.8,0,2.8,1.5,2.8,3.9v5.8
			c0,0.2-0.1,0.3-0.3,0.3h-1.9c-0.2,0-0.3-0.1-0.3-0.3v-5.6c0-1.1-0.4-1.8-1.3-1.8c-0.9,0-1.4,0.7-1.4,2.1v5.3
			c0,0.2-0.1,0.3-0.3,0.3h-1.9c-0.2,0-0.3-0.1-0.3-0.3v-5.6c0-1.1-0.4-1.8-1.3-1.8c-0.9,0-1.4,0.7-1.4,2.1v5.3
			c0,0.2-0.1,0.3-0.3,0.3h-1.9c-0.2,0-0.3-0.1-0.3-0.3V12c0-0.2,0.1-0.3,0.3-0.3h1.5c0.2,0,0.3,0.1,0.3,0.3l0.2,1.2h0.1
			C13.7,12.1,14.5,11.5,15.6,11.5z"/>
		<path class="st0" d="M27.5,21.7c-1.7,0-2.8-1.2-2.8-2.9c0-2.1,1.7-3.5,4.3-3.5c0.4,0,0.7,0,1,0.1v-0.2c0-1.2-0.4-1.8-1.3-1.8
			c-0.7,0-1.2,0.4-1.4,1.1c-0.1,0.2-0.2,0.3-0.4,0.3l-1.6-0.3c-0.2,0-0.3-0.2-0.2-0.4c0.4-1.7,1.8-2.6,3.8-2.6
			c2.4,0,3.6,1.3,3.6,3.8v5.9c0,0.2-0.1,0.3-0.3,0.3h-1.5c-0.2,0-0.3-0.1-0.3-0.3L30,20.1h-0.1C29.5,21.1,28.7,21.7,27.5,21.7z
			 M28.4,19.8c1,0,1.5-0.9,1.5-2.5v-0.6c-0.2,0-0.4-0.1-0.6-0.1c-1.3,0-2.1,0.7-2.1,1.8C27.2,19.3,27.7,19.8,28.4,19.8z"/>
		<path class="st0" d="M33.5,19.8c0-0.2,0-0.3,0.1-0.4l3.8-5.6h-3.6c-0.2,0-0.3-0.1-0.3-0.3V12c0-0.2,0.1-0.3,0.3-0.3H40
			c0.2,0,0.3,0.1,0.3,0.3v1.4c0,0.2,0,0.3-0.1,0.4l-3.9,5.6h3.9c0.2,0,0.3,0.1,0.3,0.3v1.4c0,0.2-0.1,0.3-0.3,0.3h-6.5
			c-0.2,0-0.3-0.1-0.3-0.3V19.8z"/>
		<path class="st0" d="M41,16.6c0-2.9,1.8-5.1,4.2-5.1c2.4,0,4.2,2.2,4.2,5.1c0,2.9-1.8,5.1-4.2,5.1C42.8,21.7,41,19.5,41,16.6z
			 M45.2,19.7c1.1,0,1.7-1.1,1.7-3.1c0-2-0.6-3.1-1.7-3.1c-1.1,0-1.6,1.1-1.6,3.1C43.6,18.6,44.2,19.7,45.2,19.7z"/>
		<path class="st0" d="M55.6,11.5c1.8,0,2.9,1.5,2.9,3.9v5.8c0,0.2-0.1,0.3-0.3,0.3h-1.9c-0.2,0-0.3-0.1-0.3-0.3v-5.6
			c0-1.1-0.5-1.8-1.3-1.8c-1,0-1.5,0.7-1.5,2.1v5.3c0,0.2-0.1,0.3-0.3,0.3H51c-0.2,0-0.3-0.1-0.3-0.3V12c0-0.2,0.1-0.3,0.3-0.3h1.5
			c0.2,0,0.3,0.1,0.3,0.3l0.2,1.2h0.1C53.6,12.1,54.4,11.5,55.6,11.5z"/>
	</g>
</g>
</svg>
