<?xml version="1.0" encoding="utf-8"?>
<!-- Generator: Adobe Illustrator 19.1.0, SVG Export Plug-In . SVG Version: 6.00 Build 0)  -->
<svg version="1.1" id="Layer_1" xmlns="http://www.w3.org/2000/svg" xmlns:xlink="http://www.w3.org/1999/xlink" x="0px" y="0px"
	 viewBox="0 0 60 60" style="enable-background:new 0 0 60 60;" xml:space="preserve">
<style type="text/css">
	.st0{fill:#FFFFFF;}
</style>
<path id="_Compound_Path_11_2_" class="st0" d="M56.2,10c-1.3-3.2-4-5.6-7.3-6.6c-2.2-0.5-4.4-0.8-6.6-0.7H17.7
	c-2.2-0.1-4.4,0.2-6.6,0.7c-3.3,1-6,3.4-7.3,6.6c-0.8,2.5-1.2,5.1-1.1,7.7v24.6c-0.1,2.6,0.2,5.2,1.1,7.7c1.3,3.2,4,5.6,7.3,6.6
	c2.2,0.5,4.4,0.8,6.6,0.7h24.6c2.2,0.1,4.4-0.2,6.6-0.7c3.3-1,6-3.4,7.3-6.6c0.8-2.5,1.2-5.1,1.1-7.7V17.7
	C57.4,15.1,57.1,12.5,56.2,10z M42.5,40.3c-0.1,0.7-0.4,1.3-0.8,1.9c-0.4,0.6-0.9,1-1.5,1.4c-0.6,0.3-1.2,0.6-1.9,0.7
	c-1,0.2-2,0.3-2.9,0.1c-0.7-0.1-1.4-0.5-2-1c-1.7-1.6-1.9-4.3-0.3-6c0,0,0.1-0.1,0.1-0.1c0.5-0.5,1.1-0.9,1.8-1.1c1-0.3,2-0.6,3-0.8
	c0.4-0.1,0.7-0.1,1.1-0.2c0.5,0,0.9-0.3,1.2-0.6c0.3-0.4,0.4-0.9,0.3-1.3l0-12c0-0.9-0.4-1.2-1.3-1C38.7,20.3,25.2,23,25.2,23
	c-0.6,0-1.1,0.6-1.1,1.2c0,0.1,0,0.1,0,0.2l0,17.6c0,0.7,0,1.3-0.2,2c-0.1,0.7-0.4,1.3-0.8,1.9c-0.4,0.6-0.9,1-1.5,1.4
	c-0.6,0.3-1.2,0.6-1.9,0.7c-1,0.2-2,0.3-2.9,0.1c-0.7-0.1-1.4-0.5-2-1c-1.7-1.6-1.8-4.4-0.2-6.1c0.5-0.5,1.1-0.9,1.8-1.1
	c1-0.3,2-0.6,3-0.8c0.4-0.1,0.7-0.1,1.1-0.2c0.5,0,0.9-0.3,1.2-0.6c0.3-0.4,0.4-0.9,0.4-1.3V16.6c0-0.2,0-0.4,0-0.5
	c0-0.4,0.2-0.8,0.5-1.1c0.3-0.2,0.6-0.4,1-0.5l0,0l16.2-3.3c0.1,0,1.3-0.2,1.4-0.2c0.7-0.1,1.3,0.4,1.4,1.1c0,0.1,0,0.2,0,0.4
	l0,25.8C42.7,38.9,42.7,39.6,42.5,40.3L42.5,40.3z"/>
</svg>
