<?xml version="1.0" encoding="UTF-8" standalone="no"?><!DOCTYPE svg PUBLIC "-//W3C//DTD SVG 1.1//EN" "http://www.w3.org/Graphics/SVG/1.1/DTD/svg11.dtd"><svg width="100%" height="100%" viewBox="0 0 128 128" version="1.1" xmlns="http://www.w3.org/2000/svg" xmlns:xlink="http://www.w3.org/1999/xlink" xml:space="preserve" xmlns:serif="http://www.serif.com/" style="fill-rule:evenodd;clip-rule:evenodd;stroke-linejoin:round;stroke-miterlimit:2;"><rect id="Artboard6" x="0" y="0" width="128" height="128" style="fill:none;"/><path d="M64,1c34.771,0 63,28.229 63,63c0,34.771 -28.229,63 -63,63c-34.771,0 -63,-28.229 -63,-63c0,-34.771 28.229,-63 63,-63Zm26.568,85.54c0.259,-1.402 0.371,-2.825 0.325,-4.252l-0.005,-54.573c0.046,-0.254 0.051,-0.518 0.02,-0.777c-0.183,-1.428 -1.489,-2.444 -2.921,-2.261c-0.279,0.025 -2.764,0.462 -3.063,0.523l-34.384,6.94l-0.01,0c-0.787,0.142 -1.524,0.472 -2.144,0.965c-0.65,0.574 -1.062,1.372 -1.158,2.235c-0.056,0.381 -0.081,0.767 -0.081,1.158l0,43.02c0.097,1.001 -0.173,2.007 -0.757,2.83c-0.645,0.726 -1.544,1.184 -2.51,1.28l-2.245,0.457c-2.159,0.356 -4.288,0.894 -6.361,1.61c-1.417,0.508 -2.698,1.336 -3.754,2.408c-3.434,3.698 -3.231,9.475 0.457,12.919c1.168,1.082 2.611,1.824 4.176,2.144c2.063,0.315 4.176,0.208 6.203,-0.315c1.412,-0.264 2.769,-0.767 4.013,-1.483c1.255,-0.737 2.337,-1.737 3.17,-2.926c0.823,-1.199 1.397,-2.545 1.682,-3.968c0.279,-1.397 0.412,-2.814 0.386,-4.232l0,-37.355c-0.03,-0.137 -0.051,-0.274 -0.061,-0.412c-0.071,-1.311 0.93,-2.433 2.24,-2.505c0,0 28.577,-5.766 29.908,-6.025c1.864,-0.356 2.738,0.173 2.738,2.124l0,25.493c0.117,1.006 -0.127,2.017 -0.696,2.855c-0.65,0.721 -1.544,1.179 -2.51,1.28l-2.245,0.452c-2.159,0.356 -4.288,0.899 -6.361,1.61c-1.417,0.513 -2.703,1.336 -3.754,2.413l-0.203,0.213c-3.323,3.688 -3.028,9.378 0.66,12.706c1.168,1.077 2.611,1.809 4.171,2.118c2.068,0.315 4.181,0.208 6.203,-0.315c1.412,-0.254 2.774,-0.747 4.019,-1.463c1.255,-0.737 2.337,-1.732 3.165,-2.926c0.828,-1.194 1.397,-2.545 1.687,-3.968Z" style="fill:#fff;"/></svg>