<?xml version="1.0" encoding="UTF-8" standalone="no"?>
<!DOCTYPE svg PUBLIC "-//W3C//DTD SVG 1.1//EN" "http://www.w3.org/Graphics/SVG/1.1/DTD/svg11.dtd">
<svg width="100%" height="100%" viewBox="0 0 128 128" version="1.1" xmlns="http://www.w3.org/2000/svg" xmlns:xlink="http://www.w3.org/1999/xlink" xml:space="preserve" xmlns:serif="http://www.serif.com/" style="fill-rule:evenodd;clip-rule:evenodd;stroke-linejoin:round;stroke-miterlimit:2;">
    <rect id="Artboard6" x="0" y="0" width="128" height="128" style="fill:none;"/>
    <path d="M126.998,63.95C127.163,98.772 98.413,127.95 62.194,126.986C28.609,126.097 0.189,98.264 1.016,62.348C1.791,28.547 29.863,0.018 65.911,1.01C99.61,1.934 127.049,29.635 126.998,63.95ZM28.533,49.875C28.533,54.453 29.448,58.166 30.579,58.166C31.707,58.166 32.623,54.453 32.623,49.875C32.623,45.297 31.707,41.584 30.579,41.584C29.448,41.584 28.533,45.297 28.533,49.875ZM95.377,49.875C95.377,54.453 96.293,58.166 97.423,58.166C98.552,58.166 99.467,54.453 99.467,49.875C99.467,45.297 98.552,41.584 97.423,41.584C96.293,41.584 95.377,45.297 95.377,49.875ZM88.026,39.354C86.964,32.799 85.232,28.532 83.287,28.532C80.972,28.532 78.965,34.562 78.018,43.316C77.085,36.945 75.676,32.882 74.1,32.882C71.888,32.882 70.01,40.871 69.309,52.017C68.002,46.305 66.105,42.718 64.006,42.718C61.906,42.718 60.008,46.302 58.7,52.017C58.002,40.871 56.121,32.882 53.909,32.882C52.329,32.882 50.921,36.945 49.991,43.316C49.042,34.562 47.035,28.532 44.718,28.532C42.768,28.532 41.041,32.795 39.981,39.354C39.317,35.552 38.361,33.155 37.292,33.155C35.3,33.155 33.685,41.456 33.685,51.699C33.685,61.94 35.3,70.243 37.292,70.243C38.108,70.243 38.866,68.84 39.469,66.471C40.426,75.122 42.418,81.064 44.718,81.064C46.505,81.064 48.099,77.493 49.172,71.861C49.911,82.572 51.751,90.169 53.907,90.169C55.266,90.169 56.5,87.159 57.407,82.256C58.5,92.38 61.043,99.468 64.001,99.468C66.961,99.468 69.498,92.378 70.595,82.256C71.509,87.159 72.743,90.169 74.095,90.169C76.251,90.169 78.096,82.572 78.83,71.861C79.903,77.493 81.502,81.064 83.284,81.064C85.587,81.064 87.575,75.118 88.535,66.471C89.141,68.833 89.894,70.243 90.71,70.243C92.702,70.243 94.316,61.94 94.316,51.699C94.316,41.456 92.704,33.16 90.715,33.155L90.712,33.155C89.646,33.159 88.683,35.551 88.026,39.354Z" style="fill:white;"/>
</svg>
