<?xml version="1.0" encoding="utf-8"?>
<!-- Generator: Adobe Illustrator 19.1.0, SVG Export Plug-In . SVG Version: 6.00 Build 0)  -->
<svg version="1.1" id="Layer_1" xmlns="http://www.w3.org/2000/svg" xmlns:xlink="http://www.w3.org/1999/xlink" x="0px" y="0px"
	 viewBox="-275 367 60 60" style="enable-background:new -275 367 60 60;" xml:space="preserve">
<style type="text/css">
	.st0{fill:#FFFFFF;}
</style>
<path class="st0" d="M-226.4,377.9c0.5-2.9,1.3-4.8,2.1-4.8h0c1.5,0,2.8,6.4,2.8,14.4c0,7.9-1.3,14.4-2.8,14.4
	c-0.6,0-1.2-1.1-1.7-2.9c-0.7,6.7-2.3,11.3-4.1,11.3c-1.4,0-2.6-2.8-3.5-7.1c-0.6,8.3-2,14.2-3.7,14.2c-1,0-2-2.3-2.7-6.1
	c-0.9,7.8-2.8,13.3-5.1,13.3c-2.3,0-4.3-5.5-5.1-13.3c-0.7,3.8-1.7,6.1-2.7,6.1c-1.7,0-3.1-5.9-3.7-14.2c-0.8,4.4-2.1,7.1-3.5,7.1
	c-1.8,0-3.3-4.6-4.1-11.3c-0.5,1.8-1.1,2.9-1.7,2.9c-1.5,0-2.8-6.4-2.8-14.4c0-7.9,1.3-14.4,2.8-14.4c0.8,0,1.6,1.9,2.1,4.8
	c0.8-5.1,2.2-8.4,3.7-8.4c1.8,0,3.4,4.7,4.1,11.5c0.7-4.9,1.8-8.1,3-8.1c1.7,0,3.2,6.2,3.7,14.8c1-4.4,2.5-7.2,4.1-7.2
	s3.1,2.8,4.1,7.2c0.5-8.6,2-14.8,3.7-14.8c1.2,0,2.3,3.1,3,8.1c0.7-6.8,2.3-11.5,4.1-11.5C-228.5,369.5-227.2,372.8-226.4,377.9z
	 M-272.5,386c0-3.5,0.7-6.4,1.6-6.4c0.9,0,1.6,2.9,1.6,6.4c0,3.5-0.7,6.4-1.6,6.4C-271.8,392.5-272.5,389.6-272.5,386z M-220.7,386
	c0-3.5,0.7-6.4,1.6-6.4s1.6,2.9,1.6,6.4c0,3.5-0.7,6.4-1.6,6.4S-220.7,389.6-220.7,386z"/>
</svg>
