<?xml version="1.0" encoding="utf-8"?>
<!-- Generator: Adobe Illustrator 19.1.0, SVG Export Plug-In . SVG Version: 6.00 Build 0)  -->
<svg version="1.1" id="Layer_1" xmlns="http://www.w3.org/2000/svg" xmlns:xlink="http://www.w3.org/1999/xlink" x="0px" y="0px"
	 viewBox="0 0 60 60" style="enable-background:new 0 0 60 60;" xml:space="preserve">
<style type="text/css">
	.st0{fill:#FFFFFF;}
</style>
<path class="st0" d="M5.4,32.1v-3.9c0.1,0,0.1-0.1,0.1-0.2c0-0.2,0-0.4,0.1-0.6c0.2-1.6,0.5-3.1,1-4.6c1.1-3.4,2.8-6.4,5.1-9
	c2.1-2.4,4.6-4.3,7.4-5.7c1.4-0.7,2.9-1.3,4.4-1.7c1.5-0.4,2.9-0.7,4.4-0.8c0.1,0,0.2,0,0.2-0.1h3.9C32,5.6,32,5.6,32.2,5.6
	c1.7,0.2,3.3,0.4,4.9,1c1,0.3,1.9,0.6,2.8,1.1c1.2,0.5,2.3,1.1,3.4,1.9c2.6,1.7,4.8,3.8,6.6,6.4c1.6,2.2,2.7,4.5,3.5,7
	c0.5,1.7,0.9,3.4,1,5.1c0,0.1,0,0.2,0.1,0.2V32c-0.1,0-0.1,0.1-0.1,0.1c-0.1,0.5-0.1,1.1-0.2,1.6c-0.1,0.8-0.3,1.6-0.5,2.4
	c-1,4.1-3,7.7-5.9,10.8c-0.8,0.9-1.7,1.7-2.6,2.4c-3.3,2.6-7,4.3-11.1,5.1c-0.1,0-0.2,0-0.2,0c0.2,0,0.2-0.2,0.2-0.3
	c0-5.6,0-11.1,0-16.7c0-0.4,0-0.3,0.3-0.3c1.6,0,3.2,0,4.8,0c0.2,0,0.3-0.1,0.3-0.3c0.1-0.6,0.2-1.2,0.3-1.8
	c0.3-1.6,0.5-3.2,0.8-4.9c-0.1,0-0.2,0-0.3,0c-2,0-4,0-6,0c-0.2,0-0.3,0-0.3-0.3c0-1.5,0-3,0-4.5c0-0.3,0-0.7,0.1-1
	c0.2-1.1,0.8-1.9,1.9-2.3c0.6-0.2,1.1-0.2,1.7-0.2c1,0,2,0,3,0c0.2,0,0.2,0,0.2-0.2c0-1.9,0-3.9,0-5.8c0-0.2-0.1-0.2-0.2-0.3
	c-0.8-0.1-1.5-0.2-2.3-0.3c-1.5-0.2-3-0.3-4.4-0.1c-1.3,0.2-2.5,0.5-3.7,1.1c-1.1,0.6-2,1.4-2.7,2.4c-1.1,1.6-1.6,3.4-1.6,5.4
	c0,1.9,0,3.8,0,5.7c0,0.2-0.1,0.3-0.3,0.3c-1.9,0-3.8,0-5.6,0c-0.2,0-0.3,0.1-0.3,0.3c0,2.1,0,4.2,0,6.3c0,0.2,0.1,0.3,0.3,0.3
	c1.9,0,3.7,0,5.6,0c0.3,0,0.3,0.1,0.3,0.3c0,5.6,0,11.1,0,16.7c0,0.1,0,0.2,0,0.3c-0.1,0.1-0.2,0.1-0.3,0.1c-2.2-0.4-4.3-1.1-6.2-2
	c-5.4-2.6-9.4-6.6-11.9-12.1c-1.2-2.6-1.9-5.3-2.1-8.1C5.5,32.2,5.6,32.1,5.4,32.1"/>
</svg>
