<?xml version="1.0" encoding="utf-8"?>
<!-- Generator: Adobe Illustrator 19.1.0, SVG Export Plug-In . SVG Version: 6.00 Build 0)  -->
<svg version="1.1" id="Layer_1" xmlns="http://www.w3.org/2000/svg" xmlns:xlink="http://www.w3.org/1999/xlink" x="0px" y="0px"
	 viewBox="0 0 60 60" style="enable-background:new 0 0 60 60;" xml:space="preserve">
<style type="text/css">
	.st0{fill:#FFFFFF;}
</style>
<g>
	<path class="st0" d="M30,54.5c-4.4-0.1-8.8-0.1-13.1-0.7c-6.3-0.8-9.4-3.2-10.3-9.4c-1.4-9.4-1.4-19,0-28.4C7.4,9.8,9.9,7.4,16,6.5
		c9.3-1.3,18.6-1.3,27.9,0c6.2,0.9,8.7,3.4,9.6,9.6c1.3,9.3,1.3,18.7,0,27.9c-0.9,6.5-4,9-10.6,9.8C38.6,54.3,34.3,54.3,30,54.5
		 M30,49.6c4-0.1,8.1,0.1,12.1-0.3c4.6-0.4,6.8-2.5,7.1-7.2c0.5-8,0.5-16,0-24c-0.3-4.7-2.5-6.9-7.2-7.2c-8-0.5-16-0.5-24,0
		c-4.8,0.3-6.9,2.5-7.2,7.3c-0.5,8-0.5,16,0,24c0.3,4.6,2.5,6.7,7.1,7.1C21.9,49.7,26,49.5,30,49.6"/>
	<path class="st0" d="M29.9,17.9c6.7,0,12.2,5.4,12.2,12.1c0,6.7-5.5,12.2-12.2,12.2c-6.7,0-12-5.4-12.1-12.1
		C17.8,23.5,23.2,17.9,29.9,17.9 M30,37.4c4,0,7.4-3.4,7.4-7.4c0-3.9-3.3-7.3-7.2-7.4c-3.9-0.1-7.4,3.3-7.5,7.3
		C22.6,33.9,26,37.4,30,37.4"/>
	<path class="st0" d="M44.6,17.9c0,1.3-1.1,2.3-2.5,2.3c-1.4,0-2.3-1-2.3-2.4c0-1.4,1.1-2.4,2.4-2.4C43.5,15.5,44.6,16.7,44.6,17.9"
		/>
</g>
</svg>
