<?xml version="1.0" encoding="UTF-8" standalone="no"?><!DOCTYPE svg PUBLIC "-//W3C//DTD SVG 1.1//EN" "http://www.w3.org/Graphics/SVG/1.1/DTD/svg11.dtd"><svg width="100%" height="100%" viewBox="0 0 128 128" version="1.1" xmlns="http://www.w3.org/2000/svg" xmlns:xlink="http://www.w3.org/1999/xlink" xml:space="preserve" xmlns:serif="http://www.serif.com/" style="fill-rule:evenodd;clip-rule:evenodd;stroke-linejoin:round;stroke-miterlimit:2;"><rect id="Artboard6" x="0" y="0" width="128" height="128" style="fill:none;"/><path d="M64,1c34.771,0 63,28.229 63,63c0,34.771 -28.229,63 -63,63c-34.771,0 -63,-28.229 -63,-63c0,-34.771 28.229,-63 63,-63Zm-0.018,95.42c5.731,-0.144 11.461,-0.174 17.17,-0.837c8.707,-1.009 12.857,-4.338 14.07,-12.937c1.738,-12.304 1.724,-24.727 -0.011,-37.034c-1.158,-8.215 -4.487,-11.555 -12.699,-12.721c-12.307,-1.749 -24.727,-1.735 -37.034,-0.033c-8.176,1.133 -11.464,4.335 -12.63,12.478c-1.793,12.528 -1.865,25.177 0.055,37.7c1.271,8.273 5.327,11.511 13.683,12.52c5.783,0.696 11.591,0.724 17.397,0.865Zm-0.003,-6.43c-5.347,-0.094 -10.693,0.099 -16.037,-0.412c-6.024,-0.58 -8.988,-3.388 -9.389,-9.439c-0.705,-10.61 -0.716,-21.226 -0.008,-31.837c0.431,-6.421 3.241,-9.265 9.577,-9.685c10.61,-0.702 21.229,-0.699 31.839,0c6.192,0.409 9.107,3.332 9.513,9.519c0.696,10.61 0.694,21.226 0,31.837c-0.409,6.231 -3.302,9.011 -9.458,9.605c-5.344,0.517 -10.69,0.307 -16.037,0.412Zm19.379,-41.992c0.03,-1.697 -1.448,-3.222 -3.155,-3.255c-1.757,-0.036 -3.161,1.351 -3.189,3.147c-0.028,1.873 1.219,3.167 3.075,3.191c1.79,0.022 3.236,-1.343 3.269,-3.084Zm-19.427,-0.03c-8.897,0.041 -16.164,7.405 -16.034,16.25c0.13,8.883 7.212,15.921 16.081,15.979c8.853,0.061 16.17,-7.25 16.148,-16.137c-0.022,-8.917 -7.286,-16.137 -16.195,-16.092Zm0.019,25.868c-5.28,-0.044 -9.779,-4.625 -9.696,-9.87c0.086,-5.294 4.697,-9.768 9.928,-9.638c5.22,0.13 9.582,4.573 9.582,9.754c-0.003,5.272 -4.556,9.798 -9.815,9.754Z" style="fill:#fff;"/></svg>