<?xml version="1.0" encoding="UTF-8" standalone="no"?><!DOCTYPE svg PUBLIC "-//W3C//DTD SVG 1.1//EN" "http://www.w3.org/Graphics/SVG/1.1/DTD/svg11.dtd"><svg width="100%" height="100%" viewBox="0 0 128 128" version="1.1" xmlns="http://www.w3.org/2000/svg" xmlns:xlink="http://www.w3.org/1999/xlink" xml:space="preserve" xmlns:serif="http://www.serif.com/" style="fill-rule:evenodd;clip-rule:evenodd;stroke-linejoin:round;stroke-miterlimit:2;"><rect id="Artboard6" x="0" y="0" width="128" height="128" style="fill:none;"/><path d="M126.998,63.95c0.165,34.822 -28.585,64 -64.804,63.036c-33.585,-0.889 -62.005,-28.722 -61.178,-64.638c0.775,-33.801 28.847,-62.33 64.895,-61.338c33.699,0.924 61.138,28.625 61.087,62.94Zm-86.225,-30.213l0,64.531l0.642,0c5.416,0 10.833,0.002 16.249,0c2.163,0 3.311,-1.152 3.313,-3.324c0.002,-3.744 0,-7.488 0,-11.232l0,-0.755c1.472,0 2.862,0.005 4.25,0c4.729,-0.02 9.384,-0.533 13.86,-2.148c6.715,-2.426 11.669,-6.749 14.293,-13.494c1.761,-4.528 2.195,-9.239 1.589,-14.041c-0.993,-7.862 -4.972,-13.602 -12.239,-16.931c-4.012,-1.838 -8.268,-2.591 -12.658,-2.6c-9.559,-0.021 -19.118,-0.007 -28.677,-0.007l-0.622,0Z" style="fill:#fff;"/></svg>