<?xml version="1.0" encoding="utf-8"?>
<!-- Generator: Adobe Illustrator 19.1.0, SVG Export Plug-In . SVG Version: 6.00 Build 0)  -->
<svg version="1.1" id="Layer_1" xmlns="http://www.w3.org/2000/svg" xmlns:xlink="http://www.w3.org/1999/xlink" x="0px" y="0px"
	 viewBox="-275 367 60 60" style="enable-background:new -275 367 60 60;" xml:space="preserve">
<style type="text/css">
	.st0{fill:#FFFFFF;}
</style>
<g>
	<path class="st0" d="M-268.2,369.5c0.2,0,0.4,0,0.5,0c8.1,0,16.3,0,24.4,0c3.7,0,7.4,0.6,10.8,2.2c6.2,2.8,9.6,7.7,10.4,14.4
		c0.5,4.1,0.1,8.1-1.4,12c-2.2,5.7-6.5,9.4-12.2,11.5c-3.8,1.4-7.8,1.8-11.8,1.8c-1.2,0-2.4,0-3.6,0c0,0.2,0,0.4,0,0.6
		c0,3.2,0,6.4,0,9.6c0,1.9-1,2.8-2.8,2.8c-4.6,0-9.2,0-13.8,0c-0.2,0-0.3,0-0.5,0C-268.2,406.2-268.2,387.9-268.2,369.5z"/>
</g>
</svg>
