<?xml version="1.0" encoding="UTF-8" standalone="no"?><!DOCTYPE svg PUBLIC "-//W3C//DTD SVG 1.1//EN" "http://www.w3.org/Graphics/SVG/1.1/DTD/svg11.dtd"><svg width="100%" height="100%" viewBox="0 0 128 128" version="1.1" xmlns="http://www.w3.org/2000/svg" xmlns:xlink="http://www.w3.org/1999/xlink" xml:space="preserve" xmlns:serif="http://www.serif.com/" style="fill-rule:evenodd;clip-rule:evenodd;stroke-linejoin:round;stroke-miterlimit:2;"><rect id="Artboard6" x="0" y="0" width="128" height="128" style="fill:none;"/><path d="M50.959,77.321c-3.232,0 -5.895,0.137 -8.546,0.388c-3.837,0.365 -7.617,1.043 -11.374,1.893c-2.087,0.473 -3.472,2.48 -3.01,4.464c0.485,2.104 2.457,3.312 4.624,2.805c5.598,-1.323 11.265,-2.047 17.023,-2.087c2.617,-0.017 5.228,0.097 7.833,0.342c6.368,0.593 12.565,1.961 18.591,4.116c4.15,1.482 8.135,3.307 11.961,5.496c0.564,0.325 1.197,0.496 1.841,0.467c1.733,-0.08 3.215,-1.328 3.569,-2.936c0.353,-1.625 -0.405,-3.25 -1.938,-4.11c-4.988,-2.794 -10.188,-5.102 -15.644,-6.841c-8.295,-2.645 -16.801,-3.945 -24.931,-3.996m-0.627,-19.48c-2.548,-0.029 -5.091,0.097 -7.634,0.279c-4.806,0.342 -9.561,1.055 -14.258,2.087c-2.588,0.57 -4.219,2.925 -3.854,5.467c0.348,2.451 2.577,4.281 5.131,4.099c1.095,-0.074 2.166,-0.382 3.25,-0.599c5.319,-1.043 10.695,-1.551 16.111,-1.648c3.512,-0.063 7.018,0.125 10.518,0.467c6.682,0.661 13.215,2.018 19.606,4.071c5.427,1.745 10.615,4.031 15.655,6.687c2.434,1.283 5.273,0.325 6.528,-2.075c1.22,-2.343 0.325,-5.188 -2.064,-6.488c-5.912,-3.21 -12.086,-5.781 -18.517,-7.765c-9.931,-3.061 -20.085,-4.572 -30.472,-4.584m-3.831,-21.784c-1.397,0.08 -2.788,0.16 -4.185,0.239c-5.125,0.308 -10.205,0.975 -15.245,1.933c-1.009,0.194 -2.041,0.331 -2.965,0.821c-2.702,1.425 -3.882,4.435 -2.885,7.314c0.969,2.794 3.825,4.447 6.796,3.854c7.029,-1.414 14.127,-2.155 21.299,-2.241c3.74,-0.046 7.474,0.137 11.197,0.473c8.552,0.764 16.904,2.48 25.062,5.137c5.872,1.904 11.528,4.338 17.023,7.143c2.873,1.465 6.402,0.285 7.885,-2.588c1.516,-2.93 0.462,-6.471 -2.423,-7.993c-1.784,-0.935 -3.586,-1.847 -5.422,-2.685c-9.475,-4.327 -19.332,-7.474 -29.588,-9.355c-7.206,-1.317 -14.469,-2.012 -21.795,-2.087c-1.585,-0.017 -3.17,-0.034 -4.755,0.034m80.499,27.895c0.165,34.822 -28.585,64 -64.804,63.036c-33.585,-0.889 -62.005,-28.722 -61.178,-64.638c0.775,-33.801 28.847,-62.33 64.895,-61.338c33.699,0.924 61.138,28.625 61.087,62.94" style="fill:#fff;fill-rule:nonzero;"/></svg>