<?xml version="1.0" encoding="utf-8"?>
<!-- Generator: Adobe Illustrator 19.1.0, SVG Export Plug-In . SVG Version: 6.00 Build 0)  -->
<svg version="1.1" id="Layer_1" xmlns="http://www.w3.org/2000/svg" xmlns:xlink="http://www.w3.org/1999/xlink" x="0px" y="0px"
	 viewBox="0 0 60 60" style="enable-background:new 0 0 60 60;" xml:space="preserve">
<style type="text/css">
	.st0{fill:#FFFFFF;}
</style>
<path class="st0" d="M56.5,30c0.1,14.6-12,26.9-27.3,26.5C15.1,56.1,3.2,44.4,3.5,29.3C3.8,15.1,15.6,3.1,30.8,3.5
	C45,3.9,56.5,15.5,56.5,30z M22.6,18.2c-0.6,0-1.2,0.1-1.8,0.1c-2.2,0.1-4.3,0.4-6.4,0.8c-0.4,0.1-0.9,0.1-1.2,0.3
	c-1.1,0.6-1.6,1.9-1.2,3.1c0.4,1.2,1.6,1.9,2.9,1.6c3-0.6,5.9-0.9,9-0.9c1.6,0,3.1,0.1,4.7,0.2c3.6,0.3,7.1,1,10.5,2.2
	c2.5,0.8,4.8,1.8,7.2,3c1.2,0.6,2.7,0.1,3.3-1.1c0.6-1.2,0.2-2.7-1-3.4c-0.8-0.4-1.5-0.8-2.3-1.1c-4-1.8-8.1-3.1-12.4-3.9
	c-3-0.6-6.1-0.8-9.2-0.9C24,18.2,23.3,18.2,22.6,18.2z M24.2,27.4c-1.1,0-2.1,0-3.2,0.1c-2,0.1-4,0.4-6,0.9
	c-1.1,0.2-1.8,1.2-1.6,2.3c0.1,1,1.1,1.8,2.2,1.7c0.5,0,0.9-0.2,1.4-0.3c2.2-0.4,4.5-0.7,6.8-0.7c1.5,0,3,0.1,4.4,0.2
	c2.8,0.3,5.6,0.8,8.3,1.7c2.3,0.7,4.5,1.7,6.6,2.8c1,0.5,2.2,0.1,2.7-0.9c0.5-1,0.1-2.2-0.9-2.7c-2.5-1.4-5.1-2.4-7.8-3.3
	C32.9,28,28.6,27.4,24.2,27.4z M24.5,35.6c-1.4,0-2.5,0.1-3.6,0.2c-1.6,0.2-3.2,0.4-4.8,0.8c-0.9,0.2-1.5,1-1.3,1.9
	c0.2,0.9,1,1.4,1.9,1.2c2.4-0.6,4.7-0.9,7.2-0.9c1.1,0,2.2,0,3.3,0.1c2.7,0.3,5.3,0.8,7.8,1.7c1.7,0.6,3.4,1.4,5,2.3
	c0.2,0.1,0.5,0.2,0.8,0.2c0.7,0,1.4-0.6,1.5-1.2c0.1-0.7-0.2-1.4-0.8-1.7C39.5,39,37.3,38,35,37.3C31.5,36.2,27.9,35.6,24.5,35.6z"
	/>
</svg>
