<?xml version="1.0" encoding="utf-8"?>
<!-- Generator: Adobe Illustrator 19.1.0, SVG Export Plug-In . SVG Version: 6.00 Build 0)  -->
<svg version="1.1" id="Layer_1" xmlns="http://www.w3.org/2000/svg" xmlns:xlink="http://www.w3.org/1999/xlink" x="0px" y="0px"
	 viewBox="0 0 60 60" style="enable-background:new 0 0 60 60;" xml:space="preserve">
<style type="text/css">
	.st0{fill:#FFFFFF;}
</style>
<path class="st0" d="M26.1,32.4c-1.1-0.3-2.2-0.4-3.3-0.3c-3.5,0.5-6.1,3.5-6.1,7c-0.1,3.5,2.5,6.6,5.9,7.2c4.5,0.8,8.6-2.6,8.6-7.2
	c0-6.7,0-13.3,0-20c0-4.3,0-8.7,0-13V5.5h8c0.1,3.4,1.3,6.3,3.7,8.6c2.4,2.4,5.3,3.5,8.7,3.6v7.9c-4.5,0-8.6-1.4-12.4-4.2
	c0,0.3,0,0.4,0,0.6c0,5.6,0,11.2,0,16.8c0.1,7.9-5.7,14-12.7,15.2c-8.7,1.5-17-4.7-17.9-13.5c-0.8-7.9,4.9-15.1,12.7-16.3
	c1.5-0.2,3-0.3,4.5-0.1c0.2,0,0.4,0.1,0.4,0.4c0,2.5,0,5,0,7.6C26.2,32.3,26.1,32.3,26.1,32.4"/>
</svg>
