<?xml version="1.0" encoding="utf-8"?>
<!-- Generator: Adobe Illustrator 19.1.0, SVG Export Plug-In . SVG Version: 6.00 Build 0)  -->
<svg version="1.1" id="Layer_1" xmlns="http://www.w3.org/2000/svg" xmlns:xlink="http://www.w3.org/1999/xlink" x="0px" y="0px"
	 viewBox="0 0 60 60" style="enable-background:new 0 0 60 60;" xml:space="preserve">
<style type="text/css">
	.st0{fill:#FFFFFF;}
</style>
<path class="st0" d="M26.6,35.5c-0.4,0.4-0.8,0.9-1.1,1.3c-1.7,2-3.5,4-5.2,6.1c-2,2.4-4.1,4.8-6.1,7.1c-1.3,1.5-2.6,3-3.8,4.5
	c0,0.1-0.1,0.1-0.2,0.1c-1.1,0-2.3,0-3.4,0c-0.2,0-0.4,0-0.6,0c6.2-7.3,12.5-14.5,18.7-21.7C18.5,23.7,12.3,14.6,6.1,5.5
	c0.1,0,0.2,0,0.2,0c4.6,0,9.2,0,13.8,0c0.1,0,0.2,0,0.3,0.2c4,5.8,8,11.7,12,17.5c0.1,0.1,0.1,0.2,0.2,0.3c0.1-0.1,0.2-0.2,0.3-0.3
	c1.1-1.3,2.3-2.6,3.4-4c2-2.3,3.9-4.6,5.9-6.9c1.9-2.2,3.7-4.4,5.6-6.5c0.2-0.2,0.3-0.3,0.6-0.3c1.2,0,2.3,0,3.5,0
	c0.1,0,0.2,0,0.3,0c-0.1,0.2-0.3,0.3-0.4,0.5c-2.9,3.4-5.9,6.8-8.8,10.3c-2.6,3-5.1,6-7.7,9c-0.2,0.3-0.5,0.6-0.7,0.8
	c-0.1,0.1-0.1,0.2,0,0.3c0.8,1.2,1.7,2.5,2.5,3.7c5.3,7.8,10.7,15.6,16.1,23.4c0.2,0.3,0.4,0.6,0.6,1c-0.1,0-0.1,0-0.2,0
	c-1.2,0-2.3,0-3.5,0c-3.4,0-6.8,0-10.2,0c-0.2,0-0.3-0.1-0.5-0.3c-4.1-6-8.3-12-12.4-18C27,36,26.8,35.7,26.6,35.5 M11.8,8.7
	c0.1,0.1,0.1,0.2,0.2,0.2c5.7,8.2,11.4,16.4,17.2,24.6c4.1,5.9,8.2,11.8,12.4,17.7c0.1,0.2,0.3,0.2,0.5,0.2c1.7,0,3.4,0,5.1,0
	c0.4,0,0.7,0,1.1,0c-0.1-0.1-0.1-0.2-0.2-0.2c-5.8-8.3-11.6-16.6-17.4-24.9c-4-5.8-8.1-11.6-12.1-17.4c-0.1-0.1-0.2-0.2-0.4-0.2
	c-1.7,0-3.4,0-5.1,0C12.6,8.7,12.3,8.7,11.8,8.7"/>
</svg>
