<?xml version="1.0" encoding="UTF-8" standalone="no"?><!DOCTYPE svg PUBLIC "-//W3C//DTD SVG 1.1//EN" "http://www.w3.org/Graphics/SVG/1.1/DTD/svg11.dtd"><svg width="100%" height="100%" viewBox="0 0 128 128" version="1.1" xmlns="http://www.w3.org/2000/svg" xmlns:xlink="http://www.w3.org/1999/xlink" xml:space="preserve" xmlns:serif="http://www.serif.com/" style="fill-rule:evenodd;clip-rule:evenodd;stroke-linejoin:round;stroke-miterlimit:2;"><rect id="Artboard6" x="0" y="0" width="128" height="128" style="fill:none;"/><path d="M64,1c34.771,0 63,28.229 63,63c0,34.771 -28.229,63 -63,63c-34.771,0 -63,-28.229 -63,-63c0,-34.771 28.229,-63 63,-63Zm3.549,38.517c-11.262,-0.075 -19.015,0.175 -26.751,0.75c-7.048,0.525 -10.179,3.556 -10.817,10.567c-0.825,9.049 -1.138,18.115 0.095,27.171c0.793,5.83 3.221,8.466 9.024,9.346c5.94,0.903 11.945,0.905 17.935,1.03c10.757,0.223 21.519,0.243 32.213,-1.105c5.115,-0.645 7.723,-3.341 8.493,-8.351c1.511,-9.834 1.133,-19.7 0.07,-29.529c-0.57,-5.267 -3.381,-8.071 -8.691,-8.809c-8.308,-1.158 -16.704,-0.98 -21.571,-1.07Zm-10.477,34.746l0,-20.541l17.64,10.212l-17.64,10.329Z" style="fill:#fff;"/></svg>