<?xml version="1.0" encoding="utf-8"?>
<!-- Generator: Adobe Illustrator 19.1.0, SVG Export Plug-In . SVG Version: 6.00 Build 0)  -->
<svg version="1.1" id="Layer_1" xmlns="http://www.w3.org/2000/svg" xmlns:xlink="http://www.w3.org/1999/xlink" x="0px" y="0px"
	 viewBox="0 0 60 60" style="enable-background:new 0 0 60 60;" xml:space="preserve">
<style type="text/css">
	.st0{fill:#FFFFFF;}
</style>
<path class="st0" d="M33,9.6c4.1,0.1,11.1-0.1,18,0.9c4.4,0.6,6.8,3,7.2,7.3c0.9,8.2,1.2,16.4-0.1,24.6c-0.6,4.2-2.8,6.4-7.1,7
	c-8.9,1.1-17.9,1.1-26.8,0.9c-5-0.1-10-0.1-14.9-0.9c-4.8-0.7-6.9-2.9-7.5-7.8C0.7,34.1,1,26.6,1.7,19c0.5-5.8,3.1-8.4,9-8.8
	C17.1,9.7,23.6,9.5,33,9.6 M24.2,38.6c5-3,9.7-5.7,14.7-8.6c-5.1-3-9.8-5.7-14.7-8.5V38.6z"/>
</svg>
